<svg width="4099" height="2385" xmlns="http://www.w3.org/2000/svg" xmlns:xlink="http://www.w3.org/1999/xlink" xml:space="preserve" overflow="hidden"><g transform="translate(-81 -52)"><rect x="111" y="2189" width="785" height="197" stroke="#07B9D5" stroke-width="10.3125" stroke-miterlimit="8" stroke-opacity="0.45098" fill="none"/><text fill="#BFBFBF" font-family="Calibri,Calibri_MSFontService,sans-serif" font-weight="400" font-size="83" transform="matrix(1 0 0 1 197.087 2266)">functional_object</text><text fill="#BFBFBF" font-family="Calibri,Calibri_MSFontService,sans-serif" font-weight="400" font-size="83" transform="matrix(1 0 0 1 787.764 2266)">:</text><text fill="#BFBFBF" font-family="Calibri,Calibri_MSFontService,sans-serif" font-weight="400" font-size="83" transform="matrix(1 0 0 1 417.385 2365)">LM</text><text fill="#BFBFBF" font-family="Calibri,Calibri_MSFontService,sans-serif" font-weight="400" font-size="83" transform="matrix(1 0 0 1 522.801 2365)">-</text><text fill="#BFBFBF" font-family="Calibri,Calibri_MSFontService,sans-serif" font-weight="400" font-size="83" transform="matrix(1 0 0 1 548.01 2365)">5</text><rect x="1208" y="2181" width="786" height="213" stroke="#07B9D5" stroke-width="10.3125" stroke-miterlimit="8" stroke-opacity="0.45098" fill="none"/><text fill="#BFBFBF" font-family="Calibri,Calibri_MSFontService,sans-serif" font-weight="400" font-size="83" transform="matrix(1 0 0 1 1293.5 2266)">event: 1969</text><text fill="#BFBFBF" font-family="Calibri,Calibri_MSFontService,sans-serif" font-weight="400" font-size="83" transform="matrix(1 0 0 1 1690.85 2266)">-</text><text fill="#BFBFBF" font-family="Calibri,Calibri_MSFontService,sans-serif" font-weight="400" font-size="83" transform="matrix(1 0 0 1 1716.06 2266)">07</text><text fill="#BFBFBF" font-family="Calibri,Calibri_MSFontService,sans-serif" font-weight="400" font-size="83" transform="matrix(1 0 0 1 1799.71 2266)">-</text><text fill="#BFBFBF" font-family="Calibri,Calibri_MSFontService,sans-serif" font-weight="400" font-size="83" transform="matrix(1 0 0 1 1824.92 2266)">21</text><text fill="#BFBFBF" font-family="Calibri,Calibri_MSFontService,sans-serif" font-weight="400" font-size="83" transform="matrix(1 0 0 1 1433.16 2365)">T17:54:00</text><text fill="#BFBFBF" font-family="Courier New,Courier New_MSFontService,sans-serif" font-weight="700" font-size="46" transform="matrix(1 0 0 1 738.669 2020)">beginning</text><path d="M3.38602-0.592674 109.46 605.423 102.688 606.608-3.38602 0.592674ZM120.358 577.356 107.251 612.736 82.9054 583.912C81.6804 582.462 81.8631 580.293 83.3135 579.068 84.7638 577.843 86.9326 578.025 88.1576 579.476L108.7 603.798 102.851 604.822 113.911 574.968C114.571 573.188 116.548 572.279 118.329 572.939 120.109 573.598 121.017 575.576 120.358 577.356Z" fill="#07B9D5" fill-opacity="0.45098" transform="matrix(-1 0 0 1 611.748 1577.5)"/><text fill="#BFBFBF" font-family="Courier New,Courier New_MSFontService,sans-serif" font-weight="700" font-size="46" transform="matrix(1 0 0 1 113.574 1795)">temporal_part_of</text><rect x="3403" y="2189" width="772" height="197" stroke="#07B9D5" stroke-width="10.3125" stroke-miterlimit="8" stroke-opacity="0.45098" fill="none"/><text fill="#BFBFBF" font-family="Calibri,Calibri_MSFontService,sans-serif" font-weight="400" font-size="83" transform="matrix(1 0 0 1 3614.69 2266)">individual: </text><text fill="#BFBFBF" font-family="Calibri,Calibri_MSFontService,sans-serif" font-weight="400" font-size="83" transform="matrix(1 0 0 1 3602.38 2365)">Buzz Aldrin</text><path d="M3569.73 1580.32 3790.78 2182.54 3784.33 2184.91 3563.27 1582.68ZM3796.52 2152.98 3789.91 2190.13 3760.83 2166.08C3759.37 2164.87 3759.16 2162.71 3760.37 2161.24 3761.58 2159.78 3763.75 2159.58 3765.21 2160.79L3789.75 2181.07 3784.17 2183.12 3789.75 2151.78C3790.09 2149.91 3791.87 2148.66 3793.74 2149 3795.61 2149.33 3796.86 2151.11 3796.52 2152.98Z" fill="#07B9D5" fill-opacity="0.45098"/><text fill="#BFBFBF" font-family="Courier New,Courier New_MSFontService,sans-serif" font-weight="700" font-size="46" transform="matrix(1 0 0 1 3673.98 1828)">temporal_part_of</text><rect x="2306" y="2181" width="785" height="213" stroke="#07B9D5" stroke-width="10.3125" stroke-miterlimit="8" stroke-opacity="0.45098" fill="none"/><text fill="#BFBFBF" font-family="Calibri,Calibri_MSFontService,sans-serif" font-weight="400" font-size="83" transform="matrix(1 0 0 1 2390.94 2266)">event: 1969</text><text fill="#BFBFBF" font-family="Calibri,Calibri_MSFontService,sans-serif" font-weight="400" font-size="83" transform="matrix(1 0 0 1 2788.29 2266)">-</text><text fill="#BFBFBF" font-family="Calibri,Calibri_MSFontService,sans-serif" font-weight="400" font-size="83" transform="matrix(1 0 0 1 2813.5 2266)">07</text><text fill="#BFBFBF" font-family="Calibri,Calibri_MSFontService,sans-serif" font-weight="400" font-size="83" transform="matrix(1 0 0 1 2897.14 2266)">-</text><text fill="#BFBFBF" font-family="Calibri,Calibri_MSFontService,sans-serif" font-weight="400" font-size="83" transform="matrix(1 0 0 1 2922.35 2266)">21</text><text fill="#BFBFBF" font-family="Calibri,Calibri_MSFontService,sans-serif" font-weight="400" font-size="83" transform="matrix(1 0 0 1 2530.59 2365)">T21:35:00</text><text fill="#BFBFBF" font-family="Courier New,Courier New_MSFontService,sans-serif" font-weight="700" font-size="46" transform="matrix(1 0 0 1 885.155 1735)">ending</text><text fill="#BFBFBF" font-family="Courier New,Courier New_MSFontService,sans-serif" font-weight="400" font-size="46" transform="matrix(1 0 0 1 1109.79 115)">part_of_by_class</text><text fill="#BFBFBF" font-family="Courier New,Courier New_MSFontService,sans-serif" font-weight="400" font-size="46" transform="matrix(1 0 0 1 1549.79 115)">_</text><text fill="#BFBFBF" font-family="Courier New,Courier New_MSFontService,sans-serif" font-weight="400" font-size="46" transform="matrix(1 0 0 1 972.29 170)">(INV) </text><text fill="#BFBFBF" font-family="Courier New,Courier New_MSFontService,sans-serif" font-weight="400" font-size="46" transform="matrix(1 0 0 1 1137.29 170)">consists_of_by_class</text><text fill="#BFBFBF" font-family="Courier New,Courier New_MSFontService,sans-serif" font-weight="400" font-size="46" transform="matrix(1 0 0 1 1687.29 170)">_</text><text fill="#BFBFBF" font-family="Courier New,Courier New_MSFontService,sans-serif" font-weight="400" font-size="46" transform="matrix(1 0 0 1 2631.03 281)">part_of_by_class</text><text fill="#BFBFBF" font-family="Courier New,Courier New_MSFontService,sans-serif" font-weight="400" font-size="46" transform="matrix(1 0 0 1 3071.03 281)">_</text><text fill="#BFBFBF" font-family="Courier New,Courier New_MSFontService,sans-serif" font-weight="400" font-size="46" transform="matrix(1 0 0 1 2489.81 336)">(INV) </text><text fill="#BFBFBF" font-family="Courier New,Courier New_MSFontService,sans-serif" font-weight="400" font-size="46" transform="matrix(1 0 0 1 2654.81 336)">consists_of_by_class</text><text fill="#BFBFBF" font-family="Courier New,Courier New_MSFontService,sans-serif" font-weight="400" font-size="46" transform="matrix(1 0 0 1 3204.81 336)">_</text><rect x="1740" y="68.0001" width="757" height="294" stroke="#7C4CFF" stroke-width="10.3125" stroke-miterlimit="8" fill="none"/><text font-family="Calibri,Calibri_MSFontService,sans-serif" font-weight="400" font-size="83" transform="matrix(1 0 0 1 1839.13 154)">kind_of</text><text font-family="Calibri,Calibri_MSFontService,sans-serif" font-weight="400" font-size="83" transform="matrix(1 0 0 1 2092.36 154)">_</text><text font-family="Calibri,Calibri_MSFontService,sans-serif" font-weight="400" font-size="83" transform="matrix(1 0 0 1 2133.61 154)">activity</text><text font-family="Calibri,Calibri_MSFontService,sans-serif" font-weight="400" font-size="83" transform="matrix(1 0 0 1 2375.38 154)">:</text><text font-family="Calibri,Calibri_MSFontService,sans-serif" font-weight="400" font-size="73" transform="matrix(1 0 0 1 1852.1 245)">Ascent from lunar </text><text font-family="Calibri,Calibri_MSFontService,sans-serif" font-weight="400" font-size="73" transform="matrix(1 0 0 1 1783.99 333)">surface kind of activity</text><rect x="286" y="74.9999" width="661" height="294" stroke="#7C4CFF" stroke-width="10.3125" stroke-miterlimit="8" fill="none"/><text font-family="Calibri,Calibri_MSFontService,sans-serif" font-weight="400" font-size="83" transform="matrix(1 0 0 1 540.026 161)">role:</text><text font-family="Calibri,Calibri_MSFontService,sans-serif" font-weight="400" font-size="73" transform="matrix(1 0 0 1 334.532 252)">Lunar module pilot </text><text font-family="Calibri,Calibri_MSFontService,sans-serif" font-weight="400" font-size="73" transform="matrix(1 0 0 1 558.29 340)">role</text><rect x="3242" y="68.0001" width="872" height="294" stroke="#7C4CFF" stroke-width="10.3125" stroke-miterlimit="8" fill="none"/><text font-family="Calibri,Calibri_MSFontService,sans-serif" font-weight="400" font-size="83" transform="matrix(1 0 0 1 3601.19 198)">role:</text><text font-family="Calibri,Calibri_MSFontService,sans-serif" font-weight="400" font-size="73" transform="matrix(1 0 0 1 3388.64 289)">Ascent module </text><text font-family="Calibri,Calibri_MSFontService,sans-serif" font-weight="400" font-size="73" transform="matrix(1 0 0 1 3850.29 289)">r</text><text font-family="Calibri,Calibri_MSFontService,sans-serif" font-weight="400" font-size="73" transform="matrix(1 0 0 1 3874.88 289)">ole</text><path d="M6.8459-3.37396 786.227 3.87636 786.163 10.7511 6.78194 3.50074ZM32.3959 19.3131-0.0159307-0.000148397 32.7496-18.7071C34.3983-19.6484 36.4979-19.0749 37.4392-17.4262 38.3805-15.7775 37.807-13.6779 36.1584-12.7366L8.51032 3.04854 8.56556-2.88969 35.9151 13.4071C37.546 14.3789 38.0803 16.4888 37.1085 18.1197 36.1367 19.7506 34.0268 20.2849 32.3959 19.3131ZM760.603-11.9361 793.014 7.37715 760.249 26.0841C758.6 27.0254 756.501 26.4519 755.559 24.8032 754.618 23.1545 755.192 21.0549 756.84 20.1136L784.488 4.32847 784.433 10.2667 757.083-6.0301C755.453-7.0019 754.918-9.1118 755.89-10.7427 756.862-12.3736 758.972-12.9079 760.603-11.9361Z" fill="#07B9D5" fill-opacity="0.45098" transform="matrix(1 0 0 -1 947.5 222.877)"/><path d="M6.8067-3.4375 738.15-3.43714 738.15 3.43786 6.8067 3.4375ZM32.5742 19.0109-0.0159307-2.3342e-07 32.5742-19.0109C34.2141-19.9675 36.3189-19.4136 37.2755-17.7737 38.2321-16.1338 37.6782-14.029 36.0383-13.0724L8.53831 2.96924 8.53831-2.96924 36.0383 13.0724C37.6782 14.029 38.2321 16.1339 37.2755 17.7737 36.3189 19.4136 34.214 19.9675 32.5742 19.0109ZM712.382-19.0106 744.973 0.000360184 712.382 19.0113C710.743 19.9678 708.638 19.4139 707.681 17.7741 706.724 16.1342 707.278 14.0294 708.918 13.0728L736.418-2.96888 736.418 2.9696 708.918-13.0721C707.278-14.0287 706.724-16.1335 707.681-17.7734 708.638-19.4132 710.743-19.9672 712.382-19.0106Z" fill="#07B9D5" fill-opacity="0.45098" transform="matrix(-1 0 0 1 3242.46 215.5)"/><rect x="1642" y="786" width="956" height="287" stroke="#07B9D5" stroke-width="10.3125" stroke-miterlimit="8" fill="none"/><text font-family="Calibri,Calibri_MSFontService,sans-serif" font-weight="400" font-size="83" transform="matrix(1 0 0 1 1988 869)">activity</text><text font-family="Calibri,Calibri_MSFontService,sans-serif" font-weight="400" font-size="83" transform="matrix(1 0 0 1 2229.77 869)">:</text><text font-family="Calibri,Calibri_MSFontService,sans-serif" font-weight="700" font-size="73" transform="matrix(1 0 0 1 1677.66 960)">Return from Lunar Surface to </text><text font-family="Calibri,Calibri_MSFontService,sans-serif" font-weight="700" font-size="73" transform="matrix(1 0 0 1 2051.02 1048)">CSM</text><path d="M3.43741-0.0248166 9.23691 803.278 2.36209 803.327-3.43741 0.0248166ZM24.6239 777.396 5.84874 810.122-13.397 777.67C-14.3654 776.037-13.8267 773.928-12.1937 772.96-10.5608 771.992-8.45204 772.53-7.48364 774.163L8.75614 801.547 2.81782 801.59 18.6605 773.975C19.6053 772.328 21.706 771.759 23.3528 772.703 24.9995 773.648 25.5686 775.749 24.6239 777.396Z" fill="#07B9D5" fill-opacity="0.45098" transform="matrix(1 0 0 -1 611.5 1179.61)"/><path d="M1.69242-2.99201 508.907 283.913 505.522 289.897-1.69242 2.99201ZM494.142 257.669 513.149 290.262 475.423 290.763C473.524 290.789 471.965 289.27 471.94 287.372 471.915 285.474 473.433 283.914 475.331 283.889L507.165 283.466 504.242 288.635 488.203 261.132C487.247 259.492 487.801 257.388 489.441 256.431 491.081 255.475 493.186 256.029 494.142 257.669Z" fill="#07B9D5" transform="matrix(1 0 0 -1 1129.5 1219.75)"/><text font-family="Courier New,Courier New_MSFontService,sans-serif" font-weight="700" font-size="46" transform="matrix(1 0 0 1 1779.85 1200)">participant_in</text><path d="M2116.69 786.431 2115.09 369.319 2121.96 369.292 2123.56 786.405ZM2099.61 395.147 2118.5 362.484 2137.64 395.001C2138.6 396.637 2138.05 398.744 2136.42 399.707 2134.78 400.67 2132.67 400.124 2131.71 398.488L2115.56 371.05 2121.5 371.027 2105.57 398.588C2104.62 400.232 2102.51 400.794 2100.87 399.844 2099.23 398.893 2098.66 396.791 2099.61 395.147Z" fill="#07B9D5"/><text font-family="Courier New,Courier New_MSFontService,sans-serif" font-weight="700" font-size="46" transform="matrix(1 0 0 1 1940.67 608)">member_of_kind</text><path d="M3015.62 1219.91 2602.17 936.187 2606.06 930.518 3019.52 1214.24ZM2614.6 963.606 2598.49 929.491 2636.12 932.256C2638.01 932.395 2639.43 934.042 2639.29 935.936 2639.15 937.829 2637.5 939.251 2635.61 939.112L2603.86 936.779 2607.22 931.883 2620.82 960.669C2621.63 962.386 2620.9 964.435 2619.18 965.246 2617.46 966.057 2615.41 965.323 2614.6 963.606Z" fill="#07B9D5"/><text font-family="Courier New,Courier New_MSFontService,sans-serif" font-weight="700" font-size="46" transform="matrix(1 0 0 1 2829.62 1012)">participant_in</text><path d="M3.40565-0.466848 114.606 810.738 107.795 811.672-3.40565 0.466848ZM126.537 783.107 112.129 817.977 88.8677 788.27C87.6973 786.776 87.9602 784.615 89.455 783.445 90.9497 782.274 93.1103 782.537 94.2807 784.032L113.909 809.098 108.025 809.905 120.183 780.481C120.908 778.726 122.918 777.892 124.673 778.617 126.428 779.342 127.262 781.352 126.537 783.107Z" fill="#07B9D5" fill-opacity="0.45098" transform="matrix(1 0 0 -1 3566.5 1180.46)"/><text font-family="Courier New,Courier New_MSFontService,sans-serif" font-weight="700" font-size="46" transform="matrix(1 0 0 1 371.522 1067)">member_of_kind</text><text font-family="Courier New,Courier New_MSFontService,sans-serif" font-weight="700" font-size="46" transform="matrix(1 0 0 1 3421.94 757)">member_of_kind</text><rect x="92.0001" y="1179" width="1038" height="398" stroke="#07B9D5" stroke-width="10.3125" stroke-miterlimit="8" fill="none"/><text font-family="Calibri,Calibri_MSFontService,sans-serif" font-weight="400" font-size="83" transform="matrix(1 0 0 1 342.812 1312)">participant AND </text><text font-family="Calibri,Calibri_MSFontService,sans-serif" font-weight="400" font-size="83" transform="matrix(1 0 0 1 322.989 1411)">State_of</text><text font-family="Calibri,Calibri_MSFontService,sans-serif" font-weight="400" font-size="83" transform="matrix(1 0 0 1 603.924 1411)">_</text><text font-family="Calibri,Calibri_MSFontService,sans-serif" font-weight="400" font-size="83" transform="matrix(1 0 0 1 645.174 1411)">person</text><text font-family="Calibri,Calibri_MSFontService,sans-serif" font-weight="400" font-size="83" transform="matrix(1 0 0 1 876.357 1411)">: </text><text font-family="Calibri,Calibri_MSFontService,sans-serif" font-weight="700" font-size="73" transform="matrix(1 0 0 1 143.391 1502)">Participant state of Buzz Aldrin</text><rect x="3018" y="1180" width="1096" height="401" stroke="#07B9D5" stroke-width="10.3125" stroke-miterlimit="8" fill="none"/><text font-family="Calibri,Calibri_MSFontService,sans-serif" font-weight="400" font-size="73" transform="matrix(1 0 0 1 3063.74 1317)">participant AND </text><text font-family="Calibri,Calibri_MSFontService,sans-serif" font-weight="400" font-size="73" transform="matrix(1 0 0 1 3555.76 1317)">State_of_person</text><text font-family="Calibri,Calibri_MSFontService,sans-serif" font-weight="400" font-size="73" transform="matrix(1 0 0 1 4048.29 1317)">: </text><text font-family="Calibri,Calibri_MSFontService,sans-serif" font-weight="700" font-size="73" transform="matrix(1 0 0 1 3091.77 1405)">P</text><text font-family="Calibri,Calibri_MSFontService,sans-serif" font-weight="700" font-size="73" transform="matrix(1 0 0 1 3129.28 1405)">articipant</text><text font-family="Calibri,Calibri_MSFontService,sans-serif" font-weight="700" font-size="73" transform="matrix(1 0 0 1 3439.69 1405)">s</text><text font-family="Calibri,Calibri_MSFontService,sans-serif" font-weight="700" font-size="73" transform="matrix(1 0 0 1 3468.08 1405)">tate</text><text font-family="Calibri,Calibri_MSFontService,sans-serif" font-weight="700" font-size="73" transform="matrix(1 0 0 1 3605.58 1405)">of</text><text font-family="Calibri,Calibri_MSFontService,sans-serif" font-weight="700" font-size="73" transform="matrix(1 0 0 1 3685.22 1405)">L</text><text font-family="Calibri,Calibri_MSFontService,sans-serif" font-weight="700" font-size="73" transform="matrix(1 0 0 1 3716.16 1405)">M5</text><text font-family="Calibri,Calibri_MSFontService,sans-serif" font-weight="700" font-size="73" transform="matrix(1 0 0 1 3834.18 1405)">Ascent </text><text font-family="Calibri,Calibri_MSFontService,sans-serif" font-weight="700" font-size="73" transform="matrix(1 0 0 1 3447.16 1493)">Module</text><rect x="1157" y="1540" width="1038" height="397" stroke="#07B9D5" stroke-width="10.3125" stroke-miterlimit="8" fill="none"/><text font-family="Calibri,Calibri_MSFontService,sans-serif" font-weight="400" font-size="83" transform="matrix(1 0 0 1 1408.1 1628)">participant AND </text><text font-family="Calibri,Calibri_MSFontService,sans-serif" font-weight="400" font-size="83" transform="matrix(1 0 0 1 1388.27 1727)">State_of</text><text font-family="Calibri,Calibri_MSFontService,sans-serif" font-weight="400" font-size="83" transform="matrix(1 0 0 1 1669.21 1727)">_</text><text font-family="Calibri,Calibri_MSFontService,sans-serif" font-weight="400" font-size="83" transform="matrix(1 0 0 1 1710.46 1727)">person</text><text font-family="Calibri,Calibri_MSFontService,sans-serif" font-weight="400" font-size="83" transform="matrix(1 0 0 1 1941.64 1727)">: </text><text font-family="Calibri,Calibri_MSFontService,sans-serif" font-weight="700" font-size="73" transform="matrix(1 0 0 1 1319.25 1818)">Participant state of Neil </text><text font-family="Calibri,Calibri_MSFontService,sans-serif" font-weight="700" font-size="73" transform="matrix(1 0 0 1 1514.29 1906)">Armstrong</text><path d="M1674.18 1541.94 1056.99 755.962 1062.4 751.717 1679.59 1537.69ZM1060.67 785.86 1055.49 748.487 1090.57 762.378C1092.33 763.077 1093.2 765.075 1092.5 766.84 1091.8 768.605 1089.8 769.469 1088.04 768.77L1058.44 757.049 1063.11 753.381 1067.48 784.917C1067.74 786.798 1066.42 788.533 1064.54 788.794 1062.66 789.054 1060.93 787.741 1060.67 785.86Z" fill="#07B9D5" fill-opacity="0.45098"/><rect x="724" y="454" width="661" height="294" stroke="#7C4CFF" stroke-width="10.3125" stroke-miterlimit="8" fill="none"/><text font-family="Calibri,Calibri_MSFontService,sans-serif" font-weight="400" font-size="83" transform="matrix(1 0 0 1 978.076 585)">role:</text><text font-family="Calibri,Calibri_MSFontService,sans-serif" font-weight="400" font-size="73" transform="matrix(1 0 0 1 803.543 676)">Commander role</text><path d="M7.55997-0.997363 680.006 234.214 677.736 240.704 5.29005 5.4921ZM24.4707 28.6998-0.0150391-0.00526025 37.0243-7.18983C38.888-7.55134 40.692-6.33354 41.0535-4.4698 41.415-2.60606 40.1972-0.802137 38.3335-0.440624L7.07914 5.62181 9.03985 0.0163526 29.7012 24.2381C30.9333 25.6825 30.7612 27.8521 29.3168 29.0842 27.8724 30.3163 25.7027 30.1442 24.4707 28.6998ZM660.825 211.007 685.311 239.712 648.271 246.896C646.408 247.258 644.604 246.04 644.242 244.176 643.881 242.313 645.098 240.509 646.962 240.147L678.217 234.085 676.256 239.69 655.594 215.468C654.362 214.024 654.535 211.854 655.979 210.622 657.423 209.39 659.593 209.562 660.825 211.007Z" fill="#07B9D5" fill-opacity="0.45098" transform="matrix(1 0 0 -1 1055.5 455.207)"/><text font-family="Courier New,Courier New_MSFontService,sans-serif" font-weight="700" font-size="46" transform="matrix(1 0 0 1 812.513 831)">member_of_kind</text><path d="M3.35062-0.767944 108.761 459.147 102.059 460.683-3.35062 0.767944ZM118.184 430.552 106.934 466.565 81.1231 439.046C79.8243 437.661 79.894 435.486 81.2787 434.187 82.6634 432.888 84.8388 432.958 86.1376 434.343L107.917 457.564 102.129 458.891 111.622 428.502C112.188 426.69 114.116 425.68 115.928 426.246 117.74 426.812 118.75 428.74 118.184 430.552Z" fill="#07B9D5" transform="matrix(1 0 0 -1 1676.5 1540.05)"/><text font-family="Courier New,Courier New_MSFontService,sans-serif" font-weight="700" font-size="46" transform="matrix(1 0 0 1 1316.96 919)">participant</text><text font-family="Courier New,Courier New_MSFontService,sans-serif" font-weight="700" font-size="46" transform="matrix(1 0 0 1 1316.96 975)">_in</text><path d="M724.336 1575.56 1207.62 2281.02 1201.95 2284.91 718.664 1579.44ZM1205.91 2250.97 1208.65 2288.6 1174.54 2272.46C1172.83 2271.64 1172.09 2269.6 1172.91 2267.88 1173.72 2266.16 1175.77 2265.43 1177.48 2266.24L1206.26 2279.86 1201.36 2283.22 1199.05 2251.47C1198.92 2249.57 1200.34 2247.93 1202.23 2247.79 1204.13 2247.65 1205.77 2249.07 1205.91 2250.97Z" fill="#07B9D5" fill-opacity="0.45098"/><path d="M3.28522-1.01179 76.3794 236.319 69.8089 238.343-3.28522 1.01179ZM83.6782 207.109 75.1021 243.851 47.3407 218.3C45.9438 217.014 45.8537 214.84 47.1393 213.443 48.425 212.046 50.5996 211.956 51.9965 213.241L75.4219 234.801 69.7465 236.549 76.9832 205.546C77.4147 203.697 79.2633 202.548 81.1121 202.98 82.9608 203.411 84.1097 205.26 83.6782 207.109Z" fill="#07B9D5" fill-opacity="0.45098" transform="matrix(-1 0 0 1 1676.6 1937.5)"/><path d="M1.26263-3.19722 1514.94 594.575 1512.42 600.97-1.26263 3.19722ZM1496.72 570.636 1520.05 600.289 1482.75 606C1480.88 606.288 1479.12 604.999 1478.84 603.123 1478.55 601.246 1479.84 599.492 1481.71 599.204L1513.18 594.385 1511 599.908 1491.32 574.887C1490.14 573.395 1490.4 571.234 1491.89 570.06 1493.38 568.886 1495.55 569.144 1496.72 570.636Z" fill="#07B9D5" fill-opacity="0.45098" transform="matrix(-1 0 0 1 3121.53 1581.5)"/><path d="M3.11281-1.45837 519.249 1100.2 513.023 1103.12-3.11281 1.45837ZM522.418 1070.26 519.03 1107.84 487.988 1086.39C486.426 1085.31 486.034 1083.17 487.114 1081.61 488.193 1080.05 490.334 1079.66 491.896 1080.73L518.089 1098.83 512.712 1101.35 515.571 1069.64C515.741 1067.75 517.412 1066.36 519.303 1066.53 521.194 1066.7 522.589 1068.37 522.418 1070.26Z" fill="#07B9D5" fill-opacity="0.45098" transform="matrix(-1 0 0 1 2120.52 1073.5)"/><text fill="#BFBFBF" font-family="Courier New,Courier New_MSFontService,sans-serif" font-weight="700" font-size="46" transform="matrix(1 0 0 1 1345.16 2132)">beginning</text><path d="M844.002 1574.41 2301.8 2282.51 2298.79 2288.69 840.998 1580.59ZM2285.45 2257.25 2306.46 2288.59 2268.83 2291.45C2266.94 2291.6 2265.29 2290.18 2265.15 2288.29 2265 2286.39 2266.42 2284.74 2268.31 2284.6L2300.06 2282.18 2297.46 2287.53 2279.74 2261.08C2278.68 2259.5 2279.1 2257.37 2280.68 2256.31 2282.25 2255.25 2284.39 2255.68 2285.45 2257.25Z" fill="#07B9D5" fill-opacity="0.45098"/><text fill="#BFBFBF" font-family="Courier New,Courier New_MSFontService,sans-serif" font-weight="700" font-size="46" transform="matrix(1 0 0 1 2277.42 1358)">ending</text><path d="M2.40925-2.45192 612.659 597.177 607.841 602.081-2.40925 2.45192ZM605.186 568 615.108 604.402 578.537 595.121C576.697 594.654 575.584 592.783 576.051 590.943 576.518 589.103 578.388 587.99 580.229 588.457L611.087 596.289 606.925 600.524 598.553 569.808C598.054 567.976 599.134 566.087 600.966 565.588 602.797 565.088 604.687 566.169 605.186 568Z" fill="#07B9D5" fill-opacity="0.45098" transform="matrix(-1 0 0 1 3313.6 1577.5)"/><path d="M2123.55 1071.91 2698.82 2173.73 2692.73 2176.91 2117.45 1075.09ZM2700.69 2143.65 2698.92 2181.34 2666.98 2161.25C2665.38 2160.23 2664.89 2158.11 2665.91 2156.51 2666.92 2154.9 2669.04 2154.42 2670.65 2155.43L2697.59 2172.38 2692.33 2175.13 2693.82 2143.33C2693.91 2141.43 2695.52 2139.96 2697.42 2140.05 2699.31 2140.14 2700.78 2141.75 2700.69 2143.65Z" fill="#07B9D5" fill-opacity="0.45098"/><path d="M2197.77 1735.92 2695.71 2173.98 2691.17 2179.14 2193.23 1741.08ZM2686.65 2145.26 2698.56 2181.06 2661.54 2173.81C2659.67 2173.45 2658.46 2171.64 2658.82 2169.78 2659.19 2167.91 2661 2166.7 2662.86 2167.06L2694.1 2173.18 2690.18 2177.64 2680.13 2147.44C2679.53 2145.63 2680.5 2143.69 2682.3 2143.09 2684.11 2142.49 2686.05 2143.46 2686.65 2145.26Z" fill="#07B9D5" fill-opacity="0.45098"/><text fill="#BFBFBF" font-family="Courier New,Courier New_MSFontService,sans-serif" font-weight="700" font-size="46" transform="matrix(1 0 0 1 2834.5 2109)">ending</text><text fill="#BFBFBF" font-family="Courier New,Courier New_MSFontService,sans-serif" font-weight="700" font-size="46" transform="matrix(1 0 0 1 2395.18 2122)">ending</text><text fill="#BFBFBF" font-family="Courier New,Courier New_MSFontService,sans-serif" font-weight="700" font-size="46" transform="matrix(1 0 0 1 1968.34 1449)">beginning</text><text fill="#BFBFBF" font-family="Courier New,Courier New_MSFontService,sans-serif" font-weight="700" font-size="46" transform="matrix(1 0 0 1 2667.1 1640)">beginning</text></g></svg>