<svg width="4042" height="1918" xmlns="http://www.w3.org/2000/svg" xmlns:xlink="http://www.w3.org/1999/xlink" xml:space="preserve" overflow="hidden"><g transform="translate(-91 -318)"><text fill="#BFBFBF" font-family="Courier New,Courier New_MSFontService,sans-serif" font-weight="400" font-size="46" transform="matrix(1 0 0 1 1114.37 381)">part_of_by_class</text><text fill="#BFBFBF" font-family="Courier New,Courier New_MSFontService,sans-serif" font-weight="400" font-size="46" transform="matrix(1 0 0 1 1554.37 381)">_</text><text fill="#BFBFBF" font-family="Courier New,Courier New_MSFontService,sans-serif" font-weight="400" font-size="46" transform="matrix(1 0 0 1 976.874 436)">(INV) </text><text fill="#BFBFBF" font-family="Courier New,Courier New_MSFontService,sans-serif" font-weight="400" font-size="46" transform="matrix(1 0 0 1 1141.87 436)">consists_of_by_class</text><text fill="#BFBFBF" font-family="Courier New,Courier New_MSFontService,sans-serif" font-weight="400" font-size="46" transform="matrix(1 0 0 1 1691.87 436)">_</text><text fill="#BFBFBF" font-family="Courier New,Courier New_MSFontService,sans-serif" font-weight="400" font-size="46" transform="matrix(1 0 0 1 2635.61 547)">part_of_by_class</text><text fill="#BFBFBF" font-family="Courier New,Courier New_MSFontService,sans-serif" font-weight="400" font-size="46" transform="matrix(1 0 0 1 3075.61 547)">_</text><text fill="#BFBFBF" font-family="Courier New,Courier New_MSFontService,sans-serif" font-weight="400" font-size="46" transform="matrix(1 0 0 1 2494.4 602)">(INV) </text><text fill="#BFBFBF" font-family="Courier New,Courier New_MSFontService,sans-serif" font-weight="400" font-size="46" transform="matrix(1 0 0 1 2659.4 602)">consists_of_by_class</text><text fill="#BFBFBF" font-family="Courier New,Courier New_MSFontService,sans-serif" font-weight="400" font-size="46" transform="matrix(1 0 0 1 3209.4 602)">_</text><rect x="1745" y="334" width="756" height="294" stroke="#7C4CFF" stroke-width="10.3125" stroke-miterlimit="8" fill="none"/><text font-family="Calibri,Calibri_MSFontService,sans-serif" font-weight="400" font-size="83" transform="matrix(1 0 0 1 1843.71 420)">kind_of</text><text font-family="Calibri,Calibri_MSFontService,sans-serif" font-weight="400" font-size="83" transform="matrix(1 0 0 1 2096.94 420)">_</text><text font-family="Calibri,Calibri_MSFontService,sans-serif" font-weight="400" font-size="83" transform="matrix(1 0 0 1 2138.19 420)">activity</text><text font-family="Calibri,Calibri_MSFontService,sans-serif" font-weight="400" font-size="83" transform="matrix(1 0 0 1 2379.97 420)">:</text><text font-family="Calibri,Calibri_MSFontService,sans-serif" font-weight="400" font-size="73" transform="matrix(1 0 0 1 1856.69 511)">Ascent from lunar </text><text font-family="Calibri,Calibri_MSFontService,sans-serif" font-weight="400" font-size="73" transform="matrix(1 0 0 1 1788.58 599)">surface kind of activity</text><rect x="291" y="341" width="661" height="294" stroke="#7C4CFF" stroke-width="10.3125" stroke-miterlimit="8" fill="none"/><text font-family="Calibri,Calibri_MSFontService,sans-serif" font-weight="400" font-size="83" transform="matrix(1 0 0 1 544.609 428)">role:</text><text font-family="Calibri,Calibri_MSFontService,sans-serif" font-weight="400" font-size="73" transform="matrix(1 0 0 1 339.115 519)">Lunar module pilot </text><text font-family="Calibri,Calibri_MSFontService,sans-serif" font-weight="400" font-size="73" transform="matrix(1 0 0 1 562.874 607)">role</text><rect x="3246" y="334" width="873" height="294" stroke="#7C4CFF" stroke-width="10.3125" stroke-miterlimit="8" fill="none"/><text font-family="Calibri,Calibri_MSFontService,sans-serif" font-weight="400" font-size="83" transform="matrix(1 0 0 1 3605.77 464)">role:</text><text font-family="Calibri,Calibri_MSFontService,sans-serif" font-weight="400" font-size="73" transform="matrix(1 0 0 1 3393.22 555)">Ascent module </text><text font-family="Calibri,Calibri_MSFontService,sans-serif" font-weight="400" font-size="73" transform="matrix(1 0 0 1 3854.88 555)">r</text><text font-family="Calibri,Calibri_MSFontService,sans-serif" font-weight="400" font-size="73" transform="matrix(1 0 0 1 3879.47 555)">ole</text><path d="M6.8459-3.37396 786.227 3.87636 786.163 10.7511 6.78194 3.50074ZM32.3959 19.3131-0.0159307-0.000148397 32.7496-18.7071C34.3983-19.6484 36.4979-19.0749 37.4392-17.4262 38.3805-15.7775 37.807-13.6779 36.1584-12.7366L8.51032 3.04854 8.56556-2.88969 35.9151 13.4071C37.546 14.3789 38.0803 16.4888 37.1085 18.1197 36.1367 19.7506 34.0268 20.2849 32.3959 19.3131ZM760.603-11.9361 793.014 7.37715 760.249 26.0841C758.6 27.0254 756.501 26.4519 755.559 24.8032 754.618 23.1545 755.192 21.0549 756.84 20.1136L784.488 4.32847 784.433 10.2667 757.083-6.0301C755.453-7.0019 754.918-9.1118 755.89-10.7427 756.862-12.3736 758.972-12.9079 760.603-11.9361Z" fill="#07B9D5" fill-opacity="0.45098" transform="matrix(1 0 0 -1 952.5 488.877)"/><path d="M6.8067-3.4375 738.15-3.43714 738.15 3.43786 6.8067 3.4375ZM32.5742 19.0109-0.0159307-2.3342e-07 32.5742-19.0109C34.2141-19.9675 36.3189-19.4136 37.2755-17.7737 38.2321-16.1338 37.6782-14.029 36.0383-13.0724L8.53831 2.96924 8.53831-2.96924 36.0383 13.0724C37.6782 14.029 38.2321 16.1339 37.2755 17.7737 36.3189 19.4136 34.214 19.9675 32.5742 19.0109ZM712.382-19.0106 744.973 0.000360184 712.382 19.0113C710.743 19.9678 708.638 19.4139 707.681 17.7741 706.724 16.1342 707.278 14.0294 708.918 13.0728L736.418-2.96888 736.418 2.9696 708.918-13.0721C707.278-14.0287 706.724-16.1335 707.681-17.7734 708.638-19.4132 710.743-19.9672 712.382-19.0106Z" fill="#07B9D5" fill-opacity="0.45098" transform="matrix(-1 0 0 1 3246.46 481.5)"/><rect x="1646" y="1052" width="957" height="287" stroke="#07B9D5" stroke-width="10.3125" stroke-miterlimit="8" fill="none"/><text font-family="Calibri,Calibri_MSFontService,sans-serif" font-weight="400" font-size="83" transform="matrix(1 0 0 1 1992.58 1135)">activity</text><text font-family="Calibri,Calibri_MSFontService,sans-serif" font-weight="400" font-size="83" transform="matrix(1 0 0 1 2234.35 1135)">:</text><text font-family="Calibri,Calibri_MSFontService,sans-serif" font-weight="700" font-size="73" transform="matrix(1 0 0 1 1682.24 1226)">Return from Lunar Surface to </text><text font-family="Calibri,Calibri_MSFontService,sans-serif" font-weight="700" font-size="73" transform="matrix(1 0 0 1 2055.6 1314)">CSM</text><path d="M3.43741-0.0248166 9.23691 803.278 2.36209 803.327-3.43741 0.0248166ZM24.6239 777.396 5.84874 810.122-13.397 777.67C-14.3654 776.037-13.8267 773.928-12.1937 772.96-10.5608 771.992-8.45204 772.53-7.48364 774.163L8.75614 801.547 2.81782 801.59 18.6605 773.975C19.6053 772.328 21.706 771.759 23.3528 772.703 24.9995 773.648 25.5686 775.749 24.6239 777.396Z" fill="#07B9D5" fill-opacity="0.45098" transform="matrix(1 0 0 -1 615.5 1445.61)"/><path d="M1.69242-2.99201 508.907 283.913 505.522 289.897-1.69242 2.99201ZM494.142 257.669 513.149 290.262 475.423 290.763C473.524 290.789 471.965 289.27 471.94 287.372 471.915 285.474 473.433 283.914 475.331 283.889L507.165 283.466 504.242 288.635 488.203 261.132C487.247 259.492 487.801 257.388 489.441 256.431 491.081 255.475 493.186 256.029 494.142 257.669Z" fill="#07B9D5" transform="matrix(1 0 0 -1 1133.5 1486.75)"/><text font-family="Courier New,Courier New_MSFontService,sans-serif" font-weight="700" font-size="46" transform="matrix(1 0 0 1 1784.43 1466)">participant_in</text><path d="M2121.69 1052.43 2120.09 635.319 2126.96 635.292 2128.56 1052.4ZM2104.61 661.147 2123.5 628.484 2142.64 661.001C2143.6 662.637 2143.05 664.744 2141.42 665.707 2139.78 666.67 2137.67 666.124 2136.71 664.488L2120.56 637.05 2126.5 637.027 2110.57 664.588C2109.62 666.232 2107.51 666.794 2105.87 665.843 2104.23 664.893 2103.66 662.79 2104.61 661.147Z" fill="#07B9D5"/><text font-family="Courier New,Courier New_MSFontService,sans-serif" font-weight="700" font-size="46" transform="matrix(1 0 0 1 1945.25 874)">member_of_kind</text><path d="M3020.62 1486.91 2607.17 1203.19 2611.06 1197.52 3024.52 1481.24ZM2619.6 1230.61 2603.49 1196.49 2641.12 1199.26C2643.01 1199.39 2644.43 1201.04 2644.29 1202.94 2644.15 1204.83 2642.5 1206.25 2640.61 1206.11L2608.86 1203.78 2612.22 1198.88 2625.82 1227.67C2626.63 1229.39 2625.9 1231.44 2624.18 1232.25 2622.46 1233.06 2620.41 1232.32 2619.6 1230.61Z" fill="#07B9D5"/><text font-family="Courier New,Courier New_MSFontService,sans-serif" font-weight="700" font-size="46" transform="matrix(1 0 0 1 2834.21 1278)">participant_in</text><path d="M3.40565-0.466848 114.606 810.738 107.795 811.672-3.40565 0.466848ZM126.537 783.107 112.129 817.977 88.8677 788.27C87.6973 786.776 87.9602 784.615 89.455 783.445 90.9497 782.274 93.1103 782.537 94.2807 784.032L113.909 809.098 108.025 809.905 120.183 780.481C120.908 778.726 122.918 777.892 124.673 778.617 126.428 779.342 127.262 781.352 126.537 783.107Z" fill="#07B9D5" fill-opacity="0.45098" transform="matrix(1 0 0 -1 3570.5 1446.46)"/><text font-family="Courier New,Courier New_MSFontService,sans-serif" font-weight="700" font-size="46" transform="matrix(1 0 0 1 376.105 1334)">member_of_kind</text><text font-family="Courier New,Courier New_MSFontService,sans-serif" font-weight="700" font-size="46" transform="matrix(1 0 0 1 3426.53 1023)">member_of_kind</text><rect x="95.9999" y="1445" width="1039" height="398" stroke="#07B9D5" stroke-width="10.3125" stroke-miterlimit="8" fill="none"/><text font-family="Calibri,Calibri_MSFontService,sans-serif" font-weight="400" font-size="83" transform="matrix(1 0 0 1 347.395 1578)">participant AND </text><text font-family="Calibri,Calibri_MSFontService,sans-serif" font-weight="400" font-size="83" transform="matrix(1 0 0 1 327.572 1677)">State_of</text><text font-family="Calibri,Calibri_MSFontService,sans-serif" font-weight="400" font-size="83" transform="matrix(1 0 0 1 608.508 1677)">_</text><text font-family="Calibri,Calibri_MSFontService,sans-serif" font-weight="400" font-size="83" transform="matrix(1 0 0 1 649.758 1677)">person</text><text font-family="Calibri,Calibri_MSFontService,sans-serif" font-weight="400" font-size="83" transform="matrix(1 0 0 1 880.941 1677)">: </text><text font-family="Calibri,Calibri_MSFontService,sans-serif" font-weight="700" font-size="73" transform="matrix(1 0 0 1 147.974 1768)">Participant state of Buzz Aldrin</text><rect x="3022" y="1446" width="1097" height="401" stroke="#07B9D5" stroke-width="10.3125" stroke-miterlimit="8" fill="none"/><text font-family="Calibri,Calibri_MSFontService,sans-serif" font-weight="400" font-size="73" transform="matrix(1 0 0 1 3068.32 1583)">participant AND </text><text font-family="Calibri,Calibri_MSFontService,sans-serif" font-weight="400" font-size="73" transform="matrix(1 0 0 1 3560.35 1583)">State_of_person</text><text font-family="Calibri,Calibri_MSFontService,sans-serif" font-weight="400" font-size="73" transform="matrix(1 0 0 1 4052.87 1583)">: </text><text font-family="Calibri,Calibri_MSFontService,sans-serif" font-weight="700" font-size="73" transform="matrix(1 0 0 1 3096.35 1671)">P</text><text font-family="Calibri,Calibri_MSFontService,sans-serif" font-weight="700" font-size="73" transform="matrix(1 0 0 1 3133.87 1671)">articipant</text><text font-family="Calibri,Calibri_MSFontService,sans-serif" font-weight="700" font-size="73" transform="matrix(1 0 0 1 3444.27 1671)">s</text><text font-family="Calibri,Calibri_MSFontService,sans-serif" font-weight="700" font-size="73" transform="matrix(1 0 0 1 3472.67 1671)">tate</text><text font-family="Calibri,Calibri_MSFontService,sans-serif" font-weight="700" font-size="73" transform="matrix(1 0 0 1 3610.17 1671)">of</text><text font-family="Calibri,Calibri_MSFontService,sans-serif" font-weight="700" font-size="73" transform="matrix(1 0 0 1 3689.8 1671)">L</text><text font-family="Calibri,Calibri_MSFontService,sans-serif" font-weight="700" font-size="73" transform="matrix(1 0 0 1 3720.74 1671)">M5</text><text font-family="Calibri,Calibri_MSFontService,sans-serif" font-weight="700" font-size="73" transform="matrix(1 0 0 1 3838.76 1671)">Ascent </text><text font-family="Calibri,Calibri_MSFontService,sans-serif" font-weight="700" font-size="73" transform="matrix(1 0 0 1 3451.74 1759)">Module</text><rect x="1161" y="1806" width="1039" height="397" stroke="#07B9D5" stroke-width="10.3125" stroke-miterlimit="8" fill="none"/><text font-family="Calibri,Calibri_MSFontService,sans-serif" font-weight="400" font-size="83" transform="matrix(1 0 0 1 1412.68 1895)">participant AND </text><text font-family="Calibri,Calibri_MSFontService,sans-serif" font-weight="400" font-size="83" transform="matrix(1 0 0 1 1392.86 1994)">State_of</text><text font-family="Calibri,Calibri_MSFontService,sans-serif" font-weight="400" font-size="83" transform="matrix(1 0 0 1 1673.79 1994)">_</text><text font-family="Calibri,Calibri_MSFontService,sans-serif" font-weight="400" font-size="83" transform="matrix(1 0 0 1 1715.04 1994)">person</text><text font-family="Calibri,Calibri_MSFontService,sans-serif" font-weight="400" font-size="83" transform="matrix(1 0 0 1 1946.23 1994)">: </text><text font-family="Calibri,Calibri_MSFontService,sans-serif" font-weight="700" font-size="73" transform="matrix(1 0 0 1 1323.83 2085)">Participant state of Neil </text><text font-family="Calibri,Calibri_MSFontService,sans-serif" font-weight="700" font-size="73" transform="matrix(1 0 0 1 1518.88 2173)">Armstrong</text><path d="M1678.18 1808.94 1060.99 1022.96 1066.4 1018.72 1683.59 1804.69ZM1064.67 1052.86 1059.49 1015.49 1094.57 1029.38C1096.33 1030.08 1097.2 1032.07 1096.5 1033.84 1095.8 1035.61 1093.8 1036.47 1092.04 1035.77L1062.44 1024.05 1067.11 1020.38 1071.48 1051.92C1071.74 1053.8 1070.42 1055.53 1068.54 1055.79 1066.66 1056.05 1064.93 1054.74 1064.67 1052.86Z" fill="#07B9D5" fill-opacity="0.45098"/><rect x="729" y="721" width="661" height="294" stroke="#7C4CFF" stroke-width="10.3125" stroke-miterlimit="8" fill="none"/><text font-family="Calibri,Calibri_MSFontService,sans-serif" font-weight="400" font-size="83" transform="matrix(1 0 0 1 982.659 851)">role:</text><text font-family="Calibri,Calibri_MSFontService,sans-serif" font-weight="400" font-size="73" transform="matrix(1 0 0 1 808.126 942)">Commander role</text><path d="M7.55997-0.997363 680.006 234.214 677.736 240.704 5.29005 5.4921ZM24.4707 28.6998-0.0150391-0.00526025 37.0243-7.18983C38.888-7.55134 40.692-6.33354 41.0535-4.4698 41.415-2.60606 40.1972-0.802137 38.3335-0.440624L7.07914 5.62181 9.03985 0.0163526 29.7012 24.2381C30.9333 25.6825 30.7612 27.8521 29.3168 29.0842 27.8724 30.3163 25.7027 30.1442 24.4707 28.6998ZM660.825 211.007 685.311 239.712 648.271 246.896C646.408 247.258 644.604 246.04 644.242 244.176 643.881 242.313 645.098 240.509 646.962 240.147L678.217 234.085 676.256 239.69 655.594 215.468C654.362 214.024 654.535 211.854 655.979 210.622 657.423 209.39 659.593 209.562 660.825 211.007Z" fill="#07B9D5" fill-opacity="0.45098" transform="matrix(1 0 0 -1 1059.5 721.207)"/><text font-family="Courier New,Courier New_MSFontService,sans-serif" font-weight="700" font-size="46" transform="matrix(1 0 0 1 817.096 1097)">member_of_kind</text><path d="M3.35062-0.767944 108.761 459.147 102.059 460.683-3.35062 0.767944ZM118.184 430.552 106.934 466.565 81.1231 439.046C79.8243 437.661 79.894 435.486 81.2787 434.187 82.6634 432.888 84.8388 432.958 86.1376 434.343L107.917 457.564 102.129 458.891 111.622 428.502C112.188 426.69 114.116 425.68 115.928 426.246 117.74 426.812 118.75 428.74 118.184 430.552Z" fill="#07B9D5" transform="matrix(1 0 0 -1 1681.5 1806.05)"/><text font-family="Courier New,Courier New_MSFontService,sans-serif" font-weight="700" font-size="46" transform="matrix(1 0 0 1 1321.55 1185)">participant</text><text font-family="Courier New,Courier New_MSFontService,sans-serif" font-weight="700" font-size="46" transform="matrix(1 0 0 1 1321.55 1241)">_in</text></g></svg>