<svg width="4045" height="1499" xmlns="http://www.w3.org/2000/svg" xmlns:xlink="http://www.w3.org/1999/xlink" xml:space="preserve" overflow="hidden"><g transform="translate(-91 -307)"><text fill="#BFBFBF" font-family="Courier New,Courier New_MSFontService,sans-serif" font-weight="400" font-size="46" transform="matrix(1 0 0 1 1060.59 544)">part_of_by_class</text><text fill="#BFBFBF" font-family="Courier New,Courier New_MSFontService,sans-serif" font-weight="400" font-size="46" transform="matrix(1 0 0 1 1500.59 544)">_</text><text fill="#BFBFBF" font-family="Courier New,Courier New_MSFontService,sans-serif" font-weight="400" font-size="46" transform="matrix(1 0 0 1 923.094 599)">(INV) </text><text fill="#BFBFBF" font-family="Courier New,Courier New_MSFontService,sans-serif" font-weight="400" font-size="46" transform="matrix(1 0 0 1 1088.09 599)">consists_of_by_class</text><text fill="#BFBFBF" font-family="Courier New,Courier New_MSFontService,sans-serif" font-weight="400" font-size="46" transform="matrix(1 0 0 1 1638.09 599)">_</text><text fill="#BFBFBF" font-family="Courier New,Courier New_MSFontService,sans-serif" font-weight="400" font-size="46" transform="matrix(1 0 0 1 2675.61 547)">part_of_by_class</text><text fill="#BFBFBF" font-family="Courier New,Courier New_MSFontService,sans-serif" font-weight="400" font-size="46" transform="matrix(1 0 0 1 3115.61 547)">_</text><text fill="#BFBFBF" font-family="Courier New,Courier New_MSFontService,sans-serif" font-weight="400" font-size="46" transform="matrix(1 0 0 1 2534.4 602)">(INV) </text><text fill="#BFBFBF" font-family="Courier New,Courier New_MSFontService,sans-serif" font-weight="400" font-size="46" transform="matrix(1 0 0 1 2699.4 602)">consists_of_by_class</text><text fill="#BFBFBF" font-family="Courier New,Courier New_MSFontService,sans-serif" font-weight="400" font-size="46" transform="matrix(1 0 0 1 3249.4 602)">_</text><rect x="1745" y="334" width="756" height="294" stroke="#7C4CFF" stroke-width="10.3125" stroke-miterlimit="8" fill="none"/><text font-family="Calibri,Calibri_MSFontService,sans-serif" font-weight="400" font-size="83" transform="matrix(1 0 0 1 1843.71 409)">kind_of_</text><text font-family="Calibri,Calibri_MSFontService,sans-serif" font-weight="400" font-size="83" transform="matrix(1 0 0 1 2138.19 409)">a</text><text font-family="Calibri,Calibri_MSFontService,sans-serif" font-weight="400" font-size="83" transform="matrix(1 0 0 1 2177.73 409)">ctivity</text><text font-family="Calibri,Calibri_MSFontService,sans-serif" font-weight="400" font-size="83" transform="matrix(1 0 0 1 2379.97 409)">:</text><text font-family="Calibri,Calibri_MSFontService,sans-serif" font-weight="400" font-size="83" transform="matrix(1 0 0 1 1918.19 508)">GenericKind</text><text font-family="Calibri,Calibri_MSFontService,sans-serif" font-weight="400" font-size="83" transform="matrix(1 0 0 1 1958.3 607)">Of</text><text font-family="Calibri,Calibri_MSFontService,sans-serif" font-weight="400" font-size="83" transform="matrix(1 0 0 1 2037.93 607)">Activity</text><rect x="312" y="370" width="595" height="228" stroke="#7C4CFF" stroke-width="10.3125" stroke-miterlimit="8" fill="none"/><text font-family="Calibri,Calibri_MSFontService,sans-serif" font-weight="400" font-size="83" transform="matrix(1 0 0 1 532.474 462)">role:</text><text font-family="Calibri,Calibri_MSFontService,sans-serif" font-weight="400" font-size="83" transform="matrix(1 0 0 1 438.699 561)">Role_of_X</text><rect x="3294" y="366" width="596" height="225" stroke="#7C4CFF" stroke-width="10.3125" stroke-miterlimit="8" fill="none"/><text font-family="Calibri,Calibri_MSFontService,sans-serif" font-weight="400" font-size="83" transform="matrix(1 0 0 1 3515.33 457)">role:</text><text font-family="Calibri,Calibri_MSFontService,sans-serif" font-weight="400" font-size="83" transform="matrix(1 0 0 1 3423.85 556)">Role_of</text><text font-family="Calibri,Calibri_MSFontService,sans-serif" font-weight="400" font-size="83" transform="matrix(1 0 0 1 3680.53 556)">_</text><text font-family="Calibri,Calibri_MSFontService,sans-serif" font-weight="400" font-size="83" transform="matrix(1 0 0 1 3721.78 556)">Z</text><path d="M6.80648-3.41331 831.059-0.481467 831.035 6.39349 6.78202 3.46165ZM32.5064 19.1267-0.0159314-5.68795e-05 32.6416-18.8949C34.2849-19.8457 36.3877-19.2843 37.3385-17.641 38.2892-15.9978 37.7278-13.8949 36.0846-12.9442L8.52769 2.99959 8.54881-2.93885 35.9916 13.2005C37.628 14.1629 38.1744 16.2697 37.212 17.9062 36.2496 19.5427 34.1428 20.0891 32.5064 19.1267ZM805.355-16.1464 837.877 2.98031 805.219 21.8752C803.576 22.8259 801.473 22.2645 800.523 20.6213 799.572 18.978 800.133 16.8752 801.777 15.9244L829.333-0.0193409 829.312 5.9191 801.87-10.2203C800.233-11.1827 799.687-13.2895 800.649-14.926 801.612-16.5624 803.718-17.1088 805.355-16.1464Z" fill="#07B9D5" fill-opacity="0.45098" transform="matrix(1 0 0 -1 907.5 484.48)"/><path d="M6.81358-3.41886 786.214-1.28532 786.195 5.58966 6.79476 3.45611ZM32.522 19.1-0.0159321-4.39455e-05 32.6261-18.9217C34.2686-19.8738 36.3719-19.3141 37.324-17.6716 38.2761-16.0291 37.7164-13.9258 36.074-12.9737L8.53015 2.9926 8.5464-2.94586 36.0024 13.171C37.6396 14.1321 38.1878 16.2385 37.2267 17.8757 36.2656 19.5129 34.1593 20.0611 32.522 19.1ZM760.477-16.9292 793.014 2.17081 760.372 21.0924C758.73 22.0445 756.627 21.4849 755.675 19.8424 754.723 18.1999 755.282 16.0966 756.925 15.1445L784.468-0.821833 784.452 5.11662 756.996-11.0003C755.359-11.9613 754.811-14.0677 755.772-15.7049 756.733-17.3422 758.839-17.8903 760.477-16.9292Z" fill="#07B9D5" fill-opacity="0.45098" transform="matrix(-1 0 0 1 3294.5 479.5)"/><rect x="1646" y="1052" width="957" height="287" stroke="#07B9D5" stroke-width="10.3125" stroke-miterlimit="8" fill="none"/><text font-family="Calibri,Calibri_MSFontService,sans-serif" font-weight="400" font-size="83" transform="matrix(1 0 0 1 1992.57 1174)">activity</text><text font-family="Calibri,Calibri_MSFontService,sans-serif" font-weight="400" font-size="83" transform="matrix(1 0 0 1 2234.34 1174)">:</text><text font-family="Calibri,Calibri_MSFontService,sans-serif" font-weight="400" font-size="83" transform="matrix(1 0 0 1 1841.5 1273)">Example</text><text font-family="Calibri,Calibri_MSFontService,sans-serif" font-weight="400" font-size="83" transform="matrix(1 0 0 1 2124.75 1273)">_</text><text font-family="Calibri,Calibri_MSFontService,sans-serif" font-weight="400" font-size="83" transform="matrix(1 0 0 1 2166 1273)">activity</text><path d="M612.337 1445.87 606.113 605.32 612.988 605.269 619.212 1445.82ZM590.731 631.214 609.5 598.484 628.752 630.932C629.72 632.565 629.182 634.674 627.549 635.643 625.916 636.612 623.808 636.073 622.839 634.441L606.594 607.06 612.532 607.016 596.695 634.634C595.75 636.281 593.65 636.851 592.003 635.906 590.356 634.962 589.786 632.861 590.731 631.214Z" fill="#07B9D5" fill-opacity="0.45098"/><path d="M1.69242-2.99201 508.907 283.913 505.522 289.897-1.69242 2.99201ZM494.142 257.669 513.149 290.262 475.423 290.763C473.524 290.789 471.965 289.27 471.94 287.372 471.915 285.474 473.433 283.914 475.331 283.889L507.165 283.466 504.242 288.635 488.203 261.132C487.247 259.492 487.801 257.388 489.441 256.431 491.081 255.475 493.186 256.029 494.142 257.669Z" fill="#07B9D5" transform="matrix(1 0 0 -1 1133.5 1486.75)"/><text font-family="Courier New,Courier New_MSFontService,sans-serif" font-weight="700" font-size="46" transform="matrix(1 0 0 1 984.836 1296)">participant_in</text><path d="M2121.69 1052.43 2120.09 635.319 2126.96 635.292 2128.56 1052.4ZM2104.61 661.147 2123.5 628.484 2142.64 661.001C2143.6 662.637 2143.05 664.744 2141.42 665.707 2139.78 666.67 2137.67 666.124 2136.71 664.488L2120.56 637.05 2126.5 637.027 2110.57 664.588C2109.62 666.232 2107.51 666.794 2105.87 665.843 2104.23 664.893 2103.66 662.79 2104.61 661.147Z" fill="#07B9D5"/><text font-family="Courier New,Courier New_MSFontService,sans-serif" font-weight="700" font-size="46" transform="matrix(1 0 0 1 1945.25 874)">member_of_kind</text><path d="M3082.11 1492.18 2607.53 1202.98 2611.1 1197.11 3085.69 1486.31ZM2621.42 1229.68 2603.49 1196.49 2641.21 1197.22C2643.11 1197.25 2644.62 1198.82 2644.58 1200.72 2644.54 1202.62 2642.98 1204.13 2641.08 1204.09L2609.25 1203.48 2612.34 1198.41 2627.47 1226.42C2628.37 1228.09 2627.75 1230.17 2626.08 1231.07 2624.41 1231.98 2622.33 1231.36 2621.42 1229.68Z" fill="#07B9D5"/><text font-family="Courier New,Courier New_MSFontService,sans-serif" font-weight="700" font-size="46" transform="matrix(1 0 0 1 2834.21 1278)">participant_in</text><path d="M3596.34 1446.22 3589.12 598.328 3596 598.27 3603.21 1446.16ZM3573.77 624.235 3592.5 591.484 3611.79 623.911C3612.76 625.543 3612.22 627.652 3610.59 628.623 3608.96 629.593 3606.85 629.057 3605.88 627.426L3589.6 600.063 3595.54 600.013 3579.73 627.648C3578.79 629.296 3576.69 629.868 3575.04 628.925 3573.4 627.983 3572.82 625.883 3573.77 624.235Z" fill="#07B9D5" fill-opacity="0.45098"/><text font-family="Courier New,Courier New_MSFontService,sans-serif" font-weight="700" font-size="46" transform="matrix(1 0 0 1 405.319 1112)">member_of_kind</text><text font-family="Courier New,Courier New_MSFontService,sans-serif" font-weight="700" font-size="46" transform="matrix(1 0 0 1 3426.53 1023)">member_of_kind</text><rect x="95.9999" y="1445" width="1039" height="324" stroke="#07B9D5" stroke-width="10.3125" stroke-miterlimit="8" fill="none"/><text font-family="Calibri,Calibri_MSFontService,sans-serif" font-weight="400" font-size="83" transform="matrix(1 0 0 1 145.648 1536)">Participant AND </text><text font-family="Calibri,Calibri_MSFontService,sans-serif" font-weight="400" font-size="83" transform="matrix(1 0 0 1 697.711 1536)">State_of_X</text><text font-family="Calibri,Calibri_MSFontService,sans-serif" font-weight="400" font-size="83" transform="matrix(1 0 0 1 1062.86 1536)">: </text><text font-family="Calibri,Calibri_MSFontService,sans-serif" font-weight="400" font-size="83" transform="matrix(1 0 0 1 249.873 1635)">Example_participant</text><text font-family="Calibri,Calibri_MSFontService,sans-serif" font-weight="400" font-size="83" transform="matrix(1 0 0 1 939.711 1635)">_</text><text font-family="Calibri,Calibri_MSFontService,sans-serif" font-weight="400" font-size="83" transform="matrix(1 0 0 1 436.163 1734)">state_of_X</text><rect x="3080" y="1446" width="1039" height="324" stroke="#07B9D5" stroke-width="10.3125" stroke-miterlimit="8" fill="none"/><text font-family="Calibri,Calibri_MSFontService,sans-serif" font-weight="400" font-size="83" transform="matrix(1 0 0 1 3131.79 1536)">Participant AND </text><text font-family="Calibri,Calibri_MSFontService,sans-serif" font-weight="400" font-size="83" transform="matrix(1 0 0 1 3683.86 1536)">State_of</text><text font-family="Calibri,Calibri_MSFontService,sans-serif" font-weight="400" font-size="83" transform="matrix(1 0 0 1 3964.79 1536)">_</text><text font-family="Calibri,Calibri_MSFontService,sans-serif" font-weight="400" font-size="83" transform="matrix(1 0 0 1 4006.04 1536)">Z</text><text font-family="Calibri,Calibri_MSFontService,sans-serif" font-weight="400" font-size="83" transform="matrix(1 0 0 1 4044.43 1536)">: </text><text font-family="Calibri,Calibri_MSFontService,sans-serif" font-weight="400" font-size="83" transform="matrix(1 0 0 1 3233.73 1635)">Example_participant</text><text font-family="Calibri,Calibri_MSFontService,sans-serif" font-weight="400" font-size="83" transform="matrix(1 0 0 1 3923.56 1635)">_</text><text font-family="Calibri,Calibri_MSFontService,sans-serif" font-weight="400" font-size="83" transform="matrix(1 0 0 1 3422.31 1734)">state_of</text><text font-family="Calibri,Calibri_MSFontService,sans-serif" font-weight="400" font-size="83" transform="matrix(1 0 0 1 3696.6 1734)">_</text><text font-family="Calibri,Calibri_MSFontService,sans-serif" font-weight="400" font-size="83" transform="matrix(1 0 0 1 3737.85 1734)">Z</text></g></svg>