<svg xmlns="http://www.w3.org/2000/svg" id="chart-inner" width="1340" height="750"><g transform="translate(30,10)"><defs><style type="text/css">@import url('https://fonts.googleapis.com/css2?family=Roboto:wght@300;400;500&amp;display=swap');</style></defs><g transform="translate(0,710)" fill="none" font-size="10" font-family="sans-serif" text-anchor="middle" style="stroke-width: 8; fill: none; opacity: 0.9; stroke: rgb(23, 55, 94); color: rgb(23, 55, 94);"><path class="domain" stroke="currentColor" d="M0,6V0H1270V6"/></g><text transform="translate(635 ,740)" style="text-anchor: middle; font-weight: bold; font-size: 18px;">Time</text><g fill="none" font-size="10" font-family="sans-serif" text-anchor="end" style="stroke-width: 8; fill: none; opacity: 0.9; stroke: rgb(23, 55, 94); color: rgb(23, 55, 94);"><path class="domain" stroke="currentColor" d="M-6,710H0V0H-6"/></g><text transform="rotate(-90)" y="-30" x="-355" dy="1em" style="text-anchor: middle; font-weight: bold; font-size: 18px;">Space</text><defs><marker id="arrow" viewBox="0 0 20 20" refX="10" refY="10" markerWidth="10" markerHeight="10" orient="auto-start-reverse"><path stroke="purple" fill="purple" d="M0,0L0,20L20,10"/></marker></defs><path d="M292.1,485.167C406.4,485.167,406.4,260.333,520.7,260.333" stroke="#7C4CFF" stroke-width="3" fill="none" style="stroke-opacity: 0.8; fill-opacity: 0.5;"/><path d="M292.1,603.5C406.4,603.5,406.4,378.667,520.7,378.667" stroke="#7C4CFF" stroke-width="3" fill="none" style="stroke-opacity: 0.8; fill-opacity: 0.5;"/><path d="M749.3,260.333C863.6,260.333,863.6,485.167,977.9,485.167" stroke="#7C4CFF" stroke-width="3" fill="none" style="stroke-opacity: 0.8; fill-opacity: 0.5;"/><path d="M749.3,378.667C863.6,378.667,863.6,603.5,977.9,603.5" stroke="#7C4CFF" stroke-width="3" fill="none" style="stroke-opacity: 0.8; fill-opacity: 0.5;"/><rect rx="0" ry="0" x="292.1" y="35.50000000000003" width="685.8000000000001" height="343.16666666666663" style="stroke-dasharray: 10, 0; fill: rgb(99, 221, 22); stroke-opacity: 0.8; fill-opacity: 0.5; stroke: rgb(99, 221, 22); stroke-width: 12;"/><rect rx="0" ry="0" x="63.5" y="485.1666666666667" width="228.6" height="118.33333333333334" style="stroke-dasharray: 10, 0; fill: rgb(124, 76, 255); stroke-opacity: 0.8; fill-opacity: 0.5; stroke: rgb(124, 76, 255); stroke-width: 5;"/><rect rx="0" ry="0" x="977.9" y="485.1666666666667" width="228.6" height="118.33333333333334" style="stroke-dasharray: 10, 0; fill: rgb(124, 76, 255); stroke-opacity: 0.8; fill-opacity: 0.5; stroke: rgb(124, 76, 255); stroke-width: 5;"/><rect rx="0" ry="0" x="292.1" y="260.33333333333337" width="685.8000000000001" height="118.33333333333334" style="stroke-dasharray: 10, 0; fill: rgb(124, 76, 255); stroke-opacity: 0.8; fill-opacity: 0.5; stroke: rgb(124, 76, 255); stroke-width: 5;"/><rect rx="0" ry="0" x="520.6999999999999" y="260.33333333333337" width="228.6" height="118.33333333333334" style="stroke-dasharray: 10, 3; fill: rgb(124, 76, 255); stroke-opacity: 0.8; fill-opacity: 0.5; stroke: rgb(124, 76, 255); stroke-width: 3;"/><text y="479.8416666666667" x="63.5" text-anchor="start" style="fill: rgb(33, 33, 33); font-size: 18px; font-family: Roboto;">An_actual_generic_ordinary_functional_object</text><text y="255.00833333333338" x="292.1" text-anchor="start" style="fill: rgb(33, 33, 33); font-size: 18px; font-family: Roboto;">An_Actual_Generic_System_Component</text><text y="319.50000000000006" x="634.9999999999999" text-anchor="start" style="fill: white; font-size: 18px; font-family: Roboto;"/><text y="207.08333333333334" x="635" text-anchor="middle" style="fill: rgb(33, 33, 33); font-size: 18px; font-family: Roboto;">An_Actual_System</text></g></svg>