<svg width="2771" height="1524" xmlns="http://www.w3.org/2000/svg" xmlns:xlink="http://www.w3.org/1999/xlink" xml:space="preserve" overflow="hidden"><g transform="translate(-637 -459)"><rect x="1116" y="773" width="1995" height="134" stroke="#7C4CFF" stroke-width="10.3125" stroke-miterlimit="8" fill="#7C4CFF" fill-opacity="0.341176"/><rect x="1686" y="773" width="891" height="134" fill="#FFFFFF"/><rect x="1116" y="1306" width="2178" height="134" stroke="#7C4CFF" stroke-width="10.3125" stroke-miterlimit="8" fill="#7C4CFF" fill-opacity="0.341176"/><rect x="1690" y="1305" width="890" height="134" stroke="#7C4CFF" stroke-width="10.3125" stroke-miterlimit="8" stroke-dasharray="41.25 30.9375" fill="#FFFFFF"/><rect x="1686" y="772" width="891" height="667" stroke="#7C4CFF" stroke-width="10.3125" stroke-miterlimit="8" fill="#7C4CFF" fill-opacity="0.341176"/><path d="M753.5 551.501 788.501 516.5 823.5 551.501 806 551.501 806 1833.5 771 1833.5 771 551.501Z" stroke="#7C4CFF" stroke-width="4.58333" stroke-miterlimit="8" fill="#7C4CFF" fill-rule="evenodd"/><path d="M3368.5 1782.5 3403.5 1817.5 3368.5 1852.5 3368.5 1835 779.5 1835 779.5 1800 3368.5 1800Z" stroke="#7C4CFF" stroke-width="4.58333" stroke-miterlimit="8" fill="#7C4CFF" fill-rule="evenodd"/><text fill="#7C4CFF" font-family="Calibri,Calibri_MSFontService,sans-serif" font-weight="400" font-size="83" transform="matrix(-1.83697e-16 -1 1 -1.83697e-16 738.926 798)">Space</text><text fill="#7C4CFF" font-family="Calibri,Calibri_MSFontService,sans-serif" font-weight="400" font-size="83" transform="matrix(1 0 0 1 3188.65 1911)">Time</text><rect x="1686" y="774" width="891" height="134" stroke="#7C4CFF" stroke-width="10.3125" stroke-miterlimit="8" stroke-dasharray="41.25 30.9375" fill="#7C4CFF" fill-opacity="0.341176"/><path d="M1693.5 673.5C1693.5 654.17 1696.11 638.5 1699.33 638.5L2129.67 638.5C2132.89 638.5 2135.5 622.83 2135.5 603.5 2135.5 622.83 2138.11 638.5 2141.33 638.5L2571.67 638.5C2574.89 638.5 2577.5 654.171 2577.5 673.501" stroke="#7C4CFF" stroke-width="4.58333" stroke-miterlimit="8" fill="none" fill-rule="evenodd"/><text font-family="Calibri,Calibri_MSFontService,sans-serif" font-weight="400" font-size="83" transform="matrix(1 0 0 1 1710.23 561)">period of this association</text><text font-family="Calibri,Calibri_MSFontService,sans-serif" font-weight="400" font-size="83" transform="matrix(1 0 0 1 1993.07 867)">state of X</text><rect x="1686" y="1307" width="891" height="134" stroke="#7C4CFF" stroke-width="10.3125" stroke-miterlimit="8" stroke-dasharray="41.25 30.9375" fill="#7C4CFF" fill-opacity="0.341176"/><text font-family="Calibri,Calibri_MSFontService,sans-serif" font-weight="400" font-size="83" transform="matrix(1 0 0 1 1103.64 1576)">t</text><text font-family="Calibri,Calibri_MSFontService,sans-serif" font-weight="400" font-size="55" transform="matrix(1 0 0 1 1131.14 1596)">0</text><text font-family="Calibri,Calibri_MSFontService,sans-serif" font-weight="400" font-size="83" transform="matrix(1 0 0 1 1657.71 1576)">t</text><text font-family="Calibri,Calibri_MSFontService,sans-serif" font-weight="400" font-size="55" transform="matrix(1 0 0 1 1685.21 1596)">1</text><text font-family="Calibri,Calibri_MSFontService,sans-serif" font-weight="400" font-size="83" transform="matrix(1 0 0 1 1993.07 1400)">state of Y</text><text font-family="Calibri,Calibri_MSFontService,sans-serif" font-weight="400" font-size="83" transform="matrix(1 0 0 1 2563.99 1576)">t</text><text font-family="Calibri,Calibri_MSFontService,sans-serif" font-weight="400" font-size="55" transform="matrix(1 0 0 1 2591.49 1596)">2</text><text font-family="Calibri,Calibri_MSFontService,sans-serif" font-weight="400" font-size="83" transform="matrix(1 0 0 1 3082.65 1576)">t</text><text font-family="Calibri,Calibri_MSFontService,sans-serif" font-weight="400" font-size="55" transform="matrix(1 0 0 1 3110.15 1596)">3</text><text font-family="Calibri,Calibri_MSFontService,sans-serif" font-weight="400" font-size="83" transform="matrix(1 0 0 1 2641.98 1091)">Example association </text><text font-family="Calibri,Calibri_MSFontService,sans-serif" font-weight="400" font-size="83" transform="matrix(1 0 0 1 2641.98 1190)">between X &amp; Y</text><text font-family="Calibri,Calibri_MSFontService,sans-serif" font-weight="400" font-size="83" transform="matrix(1 0 0 1 3265.62 1576)">t</text><text font-family="Calibri,Calibri_MSFontService,sans-serif" font-weight="400" font-size="55" transform="matrix(1 0 0 1 3293.12 1596)">4</text></g></svg>