<svg width="4047" height="1993" xmlns="http://www.w3.org/2000/svg" xmlns:xlink="http://www.w3.org/1999/xlink" xml:space="preserve" overflow="hidden"><g transform="translate(-91 -238)"><text fill="#BFBFBF" font-family="Courier New,Courier New_MSFontService,sans-serif" font-weight="700" font-size="46" transform="matrix(1 0 0 1 2675.93 1615)">beginning</text><rect x="223" y="1984" width="772" height="196" stroke="#07B9D5" stroke-width="10.3125" stroke-miterlimit="8" stroke-opacity="0.45098" fill="none"/><text fill="#BFBFBF" font-family="Calibri,Calibri_MSFontService,sans-serif" font-weight="400" font-size="83" transform="matrix(1 0 0 1 302.643 2060)">functional_object</text><text fill="#BFBFBF" font-family="Calibri,Calibri_MSFontService,sans-serif" font-weight="400" font-size="83" transform="matrix(1 0 0 1 893.32 2060)">:</text><text fill="#BFBFBF" font-family="Calibri,Calibri_MSFontService,sans-serif" font-weight="400" font-size="83" transform="matrix(1 0 0 1 520.466 2159)">Eagle</text><rect x="1276" y="1967" width="785" height="213" stroke="#07B9D5" stroke-width="10.3125" stroke-miterlimit="8" stroke-opacity="0.45098" fill="none"/><text fill="#BFBFBF" font-family="Calibri,Calibri_MSFontService,sans-serif" font-weight="400" font-size="83" transform="matrix(1 0 0 1 1360.96 2052)">event: </text><text fill="#BFBFBF" font-family="Calibri,Calibri_MSFontService,sans-serif" font-weight="400" font-size="83" transform="matrix(1 0 0 1 1591.02 2052)">1969</text><text fill="#BFBFBF" font-family="Calibri,Calibri_MSFontService,sans-serif" font-weight="400" font-size="83" transform="matrix(1 0 0 1 1758.31 2052)">-</text><text fill="#BFBFBF" font-family="Calibri,Calibri_MSFontService,sans-serif" font-weight="400" font-size="83" transform="matrix(1 0 0 1 1783.52 2052)">07</text><text fill="#BFBFBF" font-family="Calibri,Calibri_MSFontService,sans-serif" font-weight="400" font-size="83" transform="matrix(1 0 0 1 1867.17 2052)">-</text><text fill="#BFBFBF" font-family="Calibri,Calibri_MSFontService,sans-serif" font-weight="400" font-size="83" transform="matrix(1 0 0 1 1892.38 2052)">20</text><text fill="#BFBFBF" font-family="Calibri,Calibri_MSFontService,sans-serif" font-weight="400" font-size="83" transform="matrix(1 0 0 1 1500.62 2151)">T20:12:52</text><path d="M3.38565-0.594822 125.493 694.423 118.721 695.612-3.38565 0.594822ZM136.372 666.344 123.287 701.732 98.9233 672.923C97.6974 671.474 97.8787 669.305 99.3283 668.079 100.778 666.853 102.947 667.034 104.173 668.484L124.731 692.793 118.882 693.821 129.923 663.96C130.582 662.179 132.559 661.269 134.34 661.928 136.12 662.586 137.03 664.564 136.372 666.344Z" fill="#07B9D5" fill-opacity="0.45098" transform="matrix(-1 0 0 1 1791.78 1265.5)"/><text fill="#BFBFBF" font-family="Courier New,Courier New_MSFontService,sans-serif" font-weight="700" font-size="46" transform="matrix(1 0 0 1 1166.11 1865)">beginning</text><path d="M2444.91 1265.05 2536.77 1960.02 2529.96 1960.92 2438.09 1265.95ZM2548.84 1932.43 2534.26 1967.23 2511.14 1937.41C2509.98 1935.91 2510.25 1933.75 2511.75 1932.59 2513.25 1931.43 2515.41 1931.7 2516.57 1933.2L2536.08 1958.36 2530.19 1959.14 2542.49 1929.78C2543.23 1928.02 2545.24 1927.2 2546.99 1927.93 2548.74 1928.67 2549.57 1930.68 2548.84 1932.43Z" fill="#07B9D5" fill-opacity="0.45098"/><text fill="#BFBFBF" font-family="Courier New,Courier New_MSFontService,sans-serif" font-weight="700" font-size="46" transform="matrix(1 0 0 1 2386.25 1508)">ending</text><path d="M3.43603-0.100655 9.51155 207.298 2.6395 207.499-3.43603 0.100655ZM24.3238 181.086 6.2753 214.219-13.6817 182.199C-14.6859 180.588-14.1939 178.468-12.5827 177.464-10.9716 176.459-8.85143 176.951-7.84724 178.563L8.99279 205.581 3.05686 205.755 18.2864 177.797C19.1946 176.13 21.2823 175.515 22.9495 176.423 24.6166 177.331 25.2319 179.419 24.3238 181.086Z" fill="#07B9D5" fill-opacity="0.45098" transform="matrix(-1 0 0 1 615.775 1769.5)"/><text fill="#BFBFBF" font-family="Courier New,Courier New_MSFontService,sans-serif" font-weight="700" font-size="46" transform="matrix(1 0 0 1 386.682 1882)">temporal_part_of</text><path d="M1137.42 1604.65 1665.55 1960.35 1661.71 1966.06 1133.58 1610.35ZM1652.88 1933.05 1669.29 1967.02 1631.64 1964.58C1629.75 1964.46 1628.31 1962.82 1628.43 1960.93 1628.55 1959.04 1630.19 1957.6 1632.08 1957.72L1663.85 1959.78 1660.54 1964.7 1646.69 1936.04C1645.86 1934.33 1646.58 1932.27 1648.29 1931.45 1650 1930.62 1652.05 1931.34 1652.88 1933.05Z" fill="#07B9D5" fill-opacity="0.45098"/><rect x="3207" y="1984" width="772" height="197" stroke="#07B9D5" stroke-width="10.3125" stroke-miterlimit="8" stroke-opacity="0.45098" fill="none"/><text fill="#BFBFBF" font-family="Calibri,Calibri_MSFontService,sans-serif" font-weight="400" font-size="83" transform="matrix(1 0 0 1 3418.54 2060)">individual: </text><text fill="#BFBFBF" font-family="Calibri,Calibri_MSFontService,sans-serif" font-weight="400" font-size="83" transform="matrix(1 0 0 1 3406.24 2159)">Buzz Aldrin</text><path d="M3.43603-0.100655 9.51155 207.298 2.6395 207.499-3.43603 0.100655ZM24.3238 181.086 6.2753 214.219-13.6817 182.199C-14.6859 180.588-14.1939 178.468-12.5827 177.464-10.9716 176.459-8.85143 176.951-7.84724 178.563L8.99279 205.581 3.05686 205.755 18.2864 177.797C19.1946 176.13 21.2823 175.515 22.9495 176.423 24.6166 177.331 25.2319 179.419 24.3238 181.086Z" fill="#07B9D5" fill-opacity="0.45098" transform="matrix(-1 0 0 1 3599.77 1770.5)"/><text fill="#BFBFBF" font-family="Courier New,Courier New_MSFontService,sans-serif" font-weight="700" font-size="46" transform="matrix(1 0 0 1 3370.54 1882)">temporal_part_of</text><rect x="2141" y="1967" width="785" height="213" stroke="#07B9D5" stroke-width="10.3125" stroke-miterlimit="8" stroke-opacity="0.45098" fill="none"/><text fill="#BFBFBF" font-family="Calibri,Calibri_MSFontService,sans-serif" font-weight="400" font-size="83" transform="matrix(1 0 0 1 2226.14 2052)">event: 1969</text><text fill="#BFBFBF" font-family="Calibri,Calibri_MSFontService,sans-serif" font-weight="400" font-size="83" transform="matrix(1 0 0 1 2623.49 2052)">-</text><text fill="#BFBFBF" font-family="Calibri,Calibri_MSFontService,sans-serif" font-weight="400" font-size="83" transform="matrix(1 0 0 1 2648.7 2052)">07</text><text fill="#BFBFBF" font-family="Calibri,Calibri_MSFontService,sans-serif" font-weight="400" font-size="83" transform="matrix(1 0 0 1 2732.34 2052)">-</text><text fill="#BFBFBF" font-family="Calibri,Calibri_MSFontService,sans-serif" font-weight="400" font-size="83" transform="matrix(1 0 0 1 2757.55 2052)">21</text><text fill="#BFBFBF" font-family="Calibri,Calibri_MSFontService,sans-serif" font-weight="400" font-size="83" transform="matrix(1 0 0 1 2365.79 2151)">T02:51:16</text><path d="M0.851795-3.33029 1352.23 342.315 1350.53 348.976-0.851795 3.33029ZM1331.11 320.837 1357.97 347.33 1321.69 357.673C1319.86 358.193 1317.96 357.135 1317.44 355.309 1316.92 353.484 1317.97 351.582 1319.8 351.061L1350.42 342.334 1348.95 348.087 1326.28 325.732C1324.93 324.399 1324.91 322.222 1326.25 320.87 1327.58 319.519 1329.76 319.504 1331.11 320.837Z" fill="#07B9D5" fill-opacity="0.45098" transform="matrix(-1 0 0 1 3026.45 1620.5)"/><path d="M1136.36 1604.17 2528.71 1961.99 2527 1968.64 1134.64 1610.83ZM2507.64 1940.49 2534.47 1967.02 2498.17 1977.32C2496.35 1977.83 2494.45 1976.77 2493.93 1974.95 2493.41 1973.12 2494.47 1971.22 2496.3 1970.7L2526.92 1962.01 2525.44 1967.76 2502.8 1945.38C2501.45 1944.05 2501.44 1941.87 2502.77 1940.52 2504.11 1939.17 2506.29 1939.16 2507.64 1940.49Z" fill="#07B9D5" fill-opacity="0.45098"/><path d="M1.98129-2.80908 489.194 340.83 485.232 346.448-1.98129 2.80908ZM477.118 313.255 492.792 347.575 455.203 344.326C453.311 344.162 451.911 342.497 452.074 340.605 452.238 338.714 453.903 337.313 455.795 337.476L487.513 340.218 484.091 345.071 470.864 316.111C470.075 314.384 470.836 312.345 472.563 311.556 474.29 310.768 476.329 311.528 477.118 313.255Z" fill="#07B9D5" fill-opacity="0.45098" transform="matrix(-1 0 0 1 3027.28 1619.5)"/><text fill="#BFBFBF" font-family="Courier New,Courier New_MSFontService,sans-serif" font-weight="700" font-size="46" transform="matrix(1 0 0 1 1628.74 1508)">beginning</text><text fill="#BFBFBF" font-family="Courier New,Courier New_MSFontService,sans-serif" font-weight="700" font-size="46" transform="matrix(1 0 0 1 1322.92 1613)">ending</text><text fill="#BFBFBF" font-family="Courier New,Courier New_MSFontService,sans-serif" font-weight="700" font-size="46" transform="matrix(1 0 0 1 2799.3 1876)">ending</text><text fill="#BFBFBF" font-family="Courier New,Courier New_MSFontService,sans-serif" font-weight="400" font-size="46" transform="matrix(1 0 0 1 1118.72 466)">part_of_by_class</text><text fill="#BFBFBF" font-family="Courier New,Courier New_MSFontService,sans-serif" font-weight="400" font-size="46" transform="matrix(1 0 0 1 1558.72 466)">_</text><text fill="#BFBFBF" font-family="Courier New,Courier New_MSFontService,sans-serif" font-weight="400" font-size="46" transform="matrix(1 0 0 1 981.215 521)">(INV) </text><text fill="#BFBFBF" font-family="Courier New,Courier New_MSFontService,sans-serif" font-weight="400" font-size="46" transform="matrix(1 0 0 1 1146.22 521)">consists_of_by_class</text><text fill="#BFBFBF" font-family="Courier New,Courier New_MSFontService,sans-serif" font-weight="400" font-size="46" transform="matrix(1 0 0 1 1696.22 521)">_</text><text fill="#BFBFBF" font-family="Courier New,Courier New_MSFontService,sans-serif" font-weight="400" font-size="46" transform="matrix(1 0 0 1 2639.95 473)">part_of_by_class</text><text fill="#BFBFBF" font-family="Courier New,Courier New_MSFontService,sans-serif" font-weight="400" font-size="46" transform="matrix(1 0 0 1 3079.95 473)">_</text><text fill="#BFBFBF" font-family="Courier New,Courier New_MSFontService,sans-serif" font-weight="400" font-size="46" transform="matrix(1 0 0 1 2498.74 528)">(INV) </text><text fill="#BFBFBF" font-family="Courier New,Courier New_MSFontService,sans-serif" font-weight="400" font-size="46" transform="matrix(1 0 0 1 2663.74 528)">consists_of_by_class</text><text fill="#BFBFBF" font-family="Courier New,Courier New_MSFontService,sans-serif" font-weight="400" font-size="46" transform="matrix(1 0 0 1 3213.74 528)">_</text><rect x="1749" y="260" width="757" height="294" stroke="#7C4CFF" stroke-width="10.3125" stroke-miterlimit="8" fill="none"/><text font-family="Calibri,Calibri_MSFontService,sans-serif" font-weight="400" font-size="83" transform="matrix(1 0 0 1 1782.26 341)">kind_of_association</text><text font-family="Calibri,Calibri_MSFontService,sans-serif" font-weight="400" font-size="83" transform="matrix(1 0 0 1 2450.1 341)">:</text><text font-family="Calibri,Calibri_MSFontService,sans-serif" font-weight="700" font-size="73" transform="matrix(1 0 0 1 1829.45 432)">CrewInLunarLander</text><text font-family="Calibri,Calibri_MSFontService,sans-serif" font-weight="400" font-size="73" transform="matrix(1 0 0 1 1853.83 528)">KindOfAssociatio</text><text font-family="Calibri,Calibri_MSFontService,sans-serif" font-weight="400" font-size="83" transform="matrix(1 0 0 1 2357.31 528)">n</text><rect x="295" y="267" width="661" height="294" stroke="#7C4CFF" stroke-width="10.3125" stroke-miterlimit="8" fill="none"/><text font-family="Calibri,Calibri_MSFontService,sans-serif" font-weight="400" font-size="83" transform="matrix(1 0 0 1 548.951 354)">role:</text><text font-family="Calibri,Calibri_MSFontService,sans-serif" font-weight="400" font-size="73" transform="matrix(1 0 0 1 337.912 445)">RoleOfLunarLander</text><text font-family="Calibri,Calibri_MSFontService,sans-serif" font-weight="400" font-size="73" transform="matrix(1 0 0 1 335.024 533)">As</text><text font-family="Calibri,Calibri_MSFontService,sans-serif" font-weight="700" font-size="73" transform="matrix(1 0 0 1 406.066 533)">Occupied</text><text font-family="Calibri,Calibri_MSFontService,sans-serif" font-weight="400" font-size="73" transform="matrix(1 0 0 1 690.806 533)">ByCrew</text><rect x="3251" y="260" width="872" height="294" stroke="#7C4CFF" stroke-width="10.3125" stroke-miterlimit="8" fill="none"/><text font-family="Calibri,Calibri_MSFontService,sans-serif" font-weight="400" font-size="83" transform="matrix(1 0 0 1 3610.13 346)">role:</text><text font-family="Calibri,Calibri_MSFontService,sans-serif" font-weight="400" font-size="73" transform="matrix(1 0 0 1 3448.59 437)">RoleOfPersonAs</text><text font-family="Calibri,Calibri_MSFontService,sans-serif" font-weight="700" font-size="73" transform="matrix(1 0 0 1 3328.73 525)">Occupier</text><text font-family="Calibri,Calibri_MSFontService,sans-serif" font-weight="400" font-size="73" transform="matrix(1 0 0 1 3600.3 525)">OfLunarLander</text><path d="M6.8459-3.37396 786.227 3.87636 786.163 10.7511 6.78194 3.50074ZM32.3959 19.3131-0.0159307-0.000148397 32.7496-18.7071C34.3983-19.6484 36.4979-19.0749 37.4392-17.4262 38.3805-15.7775 37.807-13.6779 36.1584-12.7366L8.51032 3.04854 8.56556-2.88969 35.9151 13.4071C37.546 14.3789 38.0803 16.4888 37.1085 18.1197 36.1367 19.7506 34.0268 20.2849 32.3959 19.3131ZM760.603-11.9361 793.014 7.37715 760.249 26.0841C758.6 27.0254 756.501 26.4519 755.559 24.8032 754.618 23.1545 755.192 21.0549 756.84 20.1136L784.488 4.32847 784.433 10.2667 757.083-6.0301C755.453-7.0019 754.918-9.1118 755.89-10.7427 756.862-12.3736 758.972-12.9079 760.603-11.9361Z" fill="#07B9D5" fill-opacity="0.45098" transform="matrix(1 0 0 -1 956.5 414.877)"/><path d="M6.8067-3.4375 738.15-3.43714 738.15 3.43786 6.8067 3.4375ZM32.5742 19.0109-0.0159307-2.3342e-07 32.5742-19.0109C34.2141-19.9675 36.3189-19.4136 37.2755-17.7737 38.2321-16.1338 37.6782-14.029 36.0383-13.0724L8.53831 2.96924 8.53831-2.96924 36.0383 13.0724C37.6782 14.029 38.2321 16.1339 37.2755 17.7737 36.3189 19.4136 34.214 19.9675 32.5742 19.0109ZM712.382-19.0106 744.973 0.000360184 712.382 19.0113C710.743 19.9678 708.638 19.4139 707.681 17.7741 706.724 16.1342 707.278 14.0294 708.918 13.0728L736.418-2.96888 736.418 2.9696 708.918-13.0721C707.278-14.0287 706.724-16.1335 707.681-17.7734 708.638-19.4132 710.743-19.9672 712.382-19.0106Z" fill="#07B9D5" fill-opacity="0.45098" transform="matrix(-1 0 0 1 3251.46 407.5)"/><rect x="1651" y="978" width="956" height="287" stroke="#07B9D5" stroke-width="10.3125" stroke-miterlimit="8" fill="none"/><text font-family="Calibri,Calibri_MSFontService,sans-serif" font-weight="400" font-size="83" transform="matrix(1 0 0 1 1931.13 1061)">association:</text><text font-family="Calibri,Calibri_MSFontService,sans-serif" font-weight="400" font-size="73" transform="matrix(1 0 0 1 1694.19 1152)">Association_of_Buzz_in_LM5</text><text font-family="Calibri,Calibri_MSFontService,sans-serif" font-weight="400" font-size="73" transform="matrix(1 0 0 1 1879.54 1240)">_during_descent</text><path d="M3.43741-0.0248166 9.23691 803.278 2.36209 803.327-3.43741 0.0248166ZM24.6239 777.396 5.84874 810.122-13.397 777.67C-14.3654 776.037-13.8267 773.928-12.1937 772.96-10.5608 771.992-8.45204 772.53-7.48364 774.163L8.75614 801.547 2.81782 801.59 18.6605 773.975C19.6053 772.328 21.706 771.759 23.3528 772.703 24.9995 773.648 25.5686 775.749 24.6239 777.396Z" fill="#07B9D5" fill-opacity="0.45098" transform="matrix(1 0 0 -1 620.5 1371.61)"/><path d="M1.69242-2.99201 508.907 283.913 505.522 289.897-1.69242 2.99201ZM494.142 257.669 513.149 290.262 475.423 290.763C473.524 290.789 471.965 289.27 471.94 287.372 471.915 285.474 473.433 283.914 475.331 283.889L507.165 283.466 504.242 288.635 488.203 261.132C487.247 259.492 487.801 257.388 489.441 256.431 491.081 255.475 493.186 256.029 494.142 257.669Z" fill="#07B9D5" transform="matrix(1 0 0 -1 1137.5 1411.75)"/><text font-family="Courier New,Courier New_MSFontService,sans-serif" font-weight="700" font-size="46" transform="matrix(1 0 0 1 989.178 1222)">participant_in</text><path d="M2125.69 978.431 2124.09 561.319 2130.96 561.292 2132.56 978.404ZM2108.61 587.147 2127.5 554.484 2146.64 587.001C2147.6 588.637 2147.05 590.744 2145.42 591.707 2143.78 592.67 2141.67 592.124 2140.71 590.488L2124.56 563.05 2130.5 563.027 2114.57 590.588C2113.62 592.232 2111.51 592.794 2109.87 591.843 2108.23 590.893 2107.66 588.79 2108.61 587.147Z" fill="#07B9D5"/><text font-family="Courier New,Courier New_MSFontService,sans-serif" font-weight="700" font-size="46" transform="matrix(1 0 0 1 1949.59 800)">member_of_kind</text><path d="M3024.62 1411.91 2611.17 1128.19 2615.06 1122.52 3028.51 1406.24ZM2623.6 1155.61 2607.49 1121.49 2645.11 1124.26C2647.01 1124.39 2648.43 1126.04 2648.29 1127.94 2648.15 1129.83 2646.5 1131.25 2644.61 1131.11L2612.86 1128.78 2616.22 1123.88 2629.82 1152.67C2630.63 1154.39 2629.89 1156.44 2628.18 1157.25 2626.46 1158.06 2624.41 1157.32 2623.6 1155.61Z" fill="#07B9D5"/><text font-family="Courier New,Courier New_MSFontService,sans-serif" font-weight="700" font-size="46" transform="matrix(1 0 0 1 2838.55 1204)">participant_in</text><path d="M3698.46 1372.04 3684.18 561.369 3691.06 561.248 3705.34 1371.92ZM3669.07 587.404 3687.5 554.484 3707.08 586.734C3708.07 588.357 3707.55 590.471 3705.93 591.457 3704.3 592.442 3702.19 591.925 3701.21 590.302L3684.68 563.089 3690.62 562.985 3675.06 590.763C3674.14 592.419 3672.04 593.01 3670.39 592.083 3668.73 591.155 3668.14 589.06 3669.07 587.404Z" fill="#07B9D5" fill-opacity="0.45098"/><text font-family="Courier New,Courier New_MSFontService,sans-serif" font-weight="700" font-size="46" transform="matrix(1 0 0 1 409.662 1038)">member_of_kind</text><text font-family="Courier New,Courier New_MSFontService,sans-serif" font-weight="700" font-size="46" transform="matrix(1 0 0 1 3492.1 1029)">member_of_kind</text><rect x="100" y="1371" width="1039" height="398" stroke="#07B9D5" stroke-width="10.3125" stroke-miterlimit="8" fill="none"/><text font-family="Calibri,Calibri_MSFontService,sans-serif" font-weight="400" font-size="83" transform="matrix(1 0 0 1 351.737 1460)">p</text><text font-family="Calibri,Calibri_MSFontService,sans-serif" font-weight="400" font-size="83" transform="matrix(1 0 0 1 395.279 1460)">articipant </text><text font-family="Calibri,Calibri_MSFontService,sans-serif" font-weight="400" font-size="83" transform="matrix(1 0 0 1 735.981 1460)">AND </text><text font-family="Calibri,Calibri_MSFontService,sans-serif" font-weight="400" font-size="83" transform="matrix(1 0 0 1 152.179 1559)">State_of</text><text font-family="Calibri,Calibri_MSFontService,sans-serif" font-weight="400" font-size="83" transform="matrix(1 0 0 1 433.114 1559)">_</text><text font-family="Calibri,Calibri_MSFontService,sans-serif" font-weight="400" font-size="83" transform="matrix(1 0 0 1 474.364 1559)">functional_object</text><text font-family="Calibri,Calibri_MSFontService,sans-serif" font-weight="400" font-size="83" transform="matrix(1 0 0 1 1065.04 1559)">: </text><text font-family="Calibri,Calibri_MSFontService,sans-serif" font-weight="400" font-size="73" transform="matrix(1 0 0 1 147.962 1650)">Example_</text><text font-family="Calibri,Calibri_MSFontService,sans-serif" font-weight="700" font-size="73" transform="matrix(1 0 0 1 435.956 1650)">participant_state_of</text><text font-family="Calibri,Calibri_MSFontService,sans-serif" font-weight="700" font-size="73" transform="matrix(1 0 0 1 1054.91 1650)">_</text><text font-family="Calibri,Calibri_MSFontService,sans-serif" font-weight="700" font-size="73" transform="matrix(1 0 0 1 135.335 1738)">Eagle</text><text font-family="Calibri,Calibri_MSFontService,sans-serif" font-weight="400" font-size="73" transform="matrix(1 0 0 1 295.362 1738)">_Lunar_Lander_in_descent</text><rect x="3026" y="1372" width="1097" height="401" stroke="#07B9D5" stroke-width="10.3125" stroke-miterlimit="8" fill="none"/><text font-family="Calibri,Calibri_MSFontService,sans-serif" font-weight="400" font-size="73" transform="matrix(1 0 0 1 3072.67 1509)">p</text><text font-family="Calibri,Calibri_MSFontService,sans-serif" font-weight="400" font-size="73" transform="matrix(1 0 0 1 3111.05 1509)">articipant AND</text><text font-family="Calibri,Calibri_MSFontService,sans-serif" font-weight="400" font-size="73" transform="matrix(1 0 0 1 3564.69 1509)">State</text><text font-family="Calibri,Calibri_MSFontService,sans-serif" font-weight="400" font-size="73" transform="matrix(1 0 0 1 3717.01 1509)">_of</text><text font-family="Calibri,Calibri_MSFontService,sans-serif" font-weight="400" font-size="73" transform="matrix(1 0 0 1 3814.98 1509)">_</text><text font-family="Calibri,Calibri_MSFontService,sans-serif" font-weight="400" font-size="73" transform="matrix(1 0 0 1 3851.65 1509)">person</text><text font-family="Calibri,Calibri_MSFontService,sans-serif" font-weight="400" font-size="73" transform="matrix(1 0 0 1 4057.21 1509)">: </text><text font-family="Calibri,Calibri_MSFontService,sans-serif" font-weight="400" font-size="73" transform="matrix(1 0 0 1 3107.73 1597)">Example_participant_</text><text font-family="Calibri,Calibri_MSFontService,sans-serif" font-weight="700" font-size="73" transform="matrix(1 0 0 1 3755.97 1597)">state_of</text><text font-family="Calibri,Calibri_MSFontService,sans-serif" font-weight="700" font-size="73" transform="matrix(1 0 0 1 4004.94 1597)">_</text><text font-family="Calibri,Calibri_MSFontService,sans-serif" font-weight="700" font-size="73" transform="matrix(1 0 0 1 3264.43 1685)">Buzz_Aldrin</text><text font-family="Calibri,Calibri_MSFontService,sans-serif" font-weight="400" font-size="73" transform="matrix(1 0 0 1 3625.94 1685)">_in_LM5</text></g></svg>