<svg width="4042" height="1916" xmlns="http://www.w3.org/2000/svg" xmlns:xlink="http://www.w3.org/1999/xlink" xml:space="preserve" overflow="hidden"><g transform="translate(-91 -307)"><text fill="#BFBFBF" font-family="Courier New,Courier New_MSFontService,sans-serif" font-weight="700" font-size="46" transform="matrix(1 0 0 1 2675.93 1615)">beginning</text><text fill="#BFBFBF" font-family="Courier New,Courier New_MSFontService,sans-serif" font-weight="400" font-size="46" transform="matrix(1 0 0 1 1060.59 544)">part_of_by_class</text><text fill="#BFBFBF" font-family="Courier New,Courier New_MSFontService,sans-serif" font-weight="400" font-size="46" transform="matrix(1 0 0 1 1500.59 544)">_</text><text fill="#BFBFBF" font-family="Courier New,Courier New_MSFontService,sans-serif" font-weight="400" font-size="46" transform="matrix(1 0 0 1 923.094 599)">(INV) </text><text fill="#BFBFBF" font-family="Courier New,Courier New_MSFontService,sans-serif" font-weight="400" font-size="46" transform="matrix(1 0 0 1 1088.09 599)">consists_of_by_class</text><text fill="#BFBFBF" font-family="Courier New,Courier New_MSFontService,sans-serif" font-weight="400" font-size="46" transform="matrix(1 0 0 1 1638.09 599)">_</text><text fill="#BFBFBF" font-family="Courier New,Courier New_MSFontService,sans-serif" font-weight="400" font-size="46" transform="matrix(1 0 0 1 2675.61 547)">part_of_by_class</text><text fill="#BFBFBF" font-family="Courier New,Courier New_MSFontService,sans-serif" font-weight="400" font-size="46" transform="matrix(1 0 0 1 3115.61 547)">_</text><text fill="#BFBFBF" font-family="Courier New,Courier New_MSFontService,sans-serif" font-weight="400" font-size="46" transform="matrix(1 0 0 1 2534.4 602)">(INV) </text><text fill="#BFBFBF" font-family="Courier New,Courier New_MSFontService,sans-serif" font-weight="400" font-size="46" transform="matrix(1 0 0 1 2699.4 602)">consists_of_by_class</text><text fill="#BFBFBF" font-family="Courier New,Courier New_MSFontService,sans-serif" font-weight="400" font-size="46" transform="matrix(1 0 0 1 3249.4 602)">_</text><rect x="1745" y="334" width="756" height="294" stroke="#7C4CFF" stroke-width="10.3125" stroke-miterlimit="8" fill="none"/><text font-family="Calibri,Calibri_MSFontService,sans-serif" font-weight="400" font-size="83" transform="matrix(1 0 0 1 1777.92 409)">kind_of_association</text><text font-family="Calibri,Calibri_MSFontService,sans-serif" font-weight="400" font-size="83" transform="matrix(1 0 0 1 2445.76 409)">:</text><text font-family="Calibri,Calibri_MSFontService,sans-serif" font-weight="400" font-size="83" transform="matrix(1 0 0 1 1918.19 508)">GenericKind</text><text font-family="Calibri,Calibri_MSFontService,sans-serif" font-weight="400" font-size="83" transform="matrix(1 0 0 1 1892.5 607)">OfAssociation</text><rect x="312" y="370" width="595" height="228" stroke="#7C4CFF" stroke-width="10.3125" stroke-miterlimit="8" fill="none"/><text font-family="Calibri,Calibri_MSFontService,sans-serif" font-weight="400" font-size="83" transform="matrix(1 0 0 1 532.474 462)">role:</text><text font-family="Calibri,Calibri_MSFontService,sans-serif" font-weight="400" font-size="83" transform="matrix(1 0 0 1 438.699 561)">Role_of_X</text><rect x="3294" y="366" width="596" height="225" stroke="#7C4CFF" stroke-width="10.3125" stroke-miterlimit="8" fill="none"/><text font-family="Calibri,Calibri_MSFontService,sans-serif" font-weight="400" font-size="83" transform="matrix(1 0 0 1 3515.32 457)">role:</text><text font-family="Calibri,Calibri_MSFontService,sans-serif" font-weight="400" font-size="83" transform="matrix(1 0 0 1 3422.99 556)">Role_of_Y</text><path d="M6.80648-3.41331 831.059-0.481467 831.035 6.39349 6.78202 3.46165ZM32.5064 19.1267-0.0159314-5.68795e-05 32.6416-18.8949C34.2849-19.8457 36.3877-19.2843 37.3385-17.641 38.2892-15.9978 37.7278-13.8949 36.0846-12.9442L8.52769 2.99959 8.54881-2.93885 35.9916 13.2005C37.628 14.1629 38.1744 16.2697 37.212 17.9062 36.2496 19.5427 34.1428 20.0891 32.5064 19.1267ZM805.355-16.1464 837.877 2.98031 805.219 21.8752C803.576 22.8259 801.473 22.2645 800.523 20.6213 799.572 18.978 800.133 16.8752 801.777 15.9244L829.333-0.0193409 829.312 5.9191 801.87-10.2203C800.233-11.1827 799.687-13.2895 800.649-14.926 801.612-16.5624 803.718-17.1088 805.355-16.1464Z" fill="#07B9D5" fill-opacity="0.45098" transform="matrix(1 0 0 -1 907.5 484.48)"/><path d="M6.81358-3.41886 786.214-1.28532 786.195 5.58966 6.79476 3.45611ZM32.522 19.1-0.0159321-4.39455e-05 32.6261-18.9217C34.2686-19.8738 36.3719-19.3141 37.324-17.6716 38.2761-16.0291 37.7164-13.9258 36.074-12.9737L8.53015 2.9926 8.5464-2.94586 36.0024 13.171C37.6396 14.1321 38.1878 16.2385 37.2267 17.8757 36.2656 19.5129 34.1593 20.0611 32.522 19.1ZM760.477-16.9292 793.014 2.17081 760.372 21.0924C758.73 22.0445 756.627 21.4849 755.675 19.8424 754.723 18.1999 755.282 16.0966 756.925 15.1445L784.468-0.821833 784.452 5.11662 756.996-11.0003C755.359-11.9613 754.811-14.0677 755.772-15.7049 756.733-17.3422 758.839-17.8903 760.477-16.9292Z" fill="#07B9D5" fill-opacity="0.45098" transform="matrix(-1 0 0 1 3294.5 479.5)"/><rect x="223" y="1984" width="772" height="196" stroke="#07B9D5" stroke-width="10.3125" stroke-miterlimit="8" stroke-opacity="0.45098" fill="none"/><text fill="#BFBFBF" font-family="Calibri,Calibri_MSFontService,sans-serif" font-weight="400" font-size="83" transform="matrix(1 0 0 1 403.763 2109)">individual: X</text><rect x="1646" y="1052" width="957" height="287" stroke="#07B9D5" stroke-width="10.3125" stroke-miterlimit="8" fill="none"/><text font-family="Calibri,Calibri_MSFontService,sans-serif" font-weight="400" font-size="83" transform="matrix(1 0 0 1 1926.78 1174)">association:</text><text font-family="Calibri,Calibri_MSFontService,sans-serif" font-weight="400" font-size="83" transform="matrix(1 0 0 1 1775.71 1273)">Example_association</text><path d="M612.337 1445.87 606.113 605.32 612.988 605.269 619.212 1445.82ZM590.731 631.214 609.5 598.484 628.752 630.932C629.72 632.565 629.182 634.674 627.549 635.643 625.916 636.612 623.808 636.073 622.839 634.441L606.594 607.06 612.532 607.016 596.695 634.634C595.75 636.281 593.65 636.851 592.003 635.906 590.356 634.962 589.786 632.861 590.731 631.214Z" fill="#07B9D5" fill-opacity="0.45098"/><path d="M1.69242-2.99201 508.907 283.913 505.522 289.897-1.69242 2.99201ZM494.142 257.669 513.149 290.262 475.423 290.763C473.524 290.789 471.965 289.27 471.94 287.372 471.915 285.474 473.433 283.914 475.331 283.889L507.165 283.466 504.242 288.635 488.203 261.132C487.247 259.492 487.801 257.388 489.441 256.431 491.081 255.475 493.186 256.029 494.142 257.669Z" fill="#07B9D5" transform="matrix(1 0 0 -1 1133.5 1486.75)"/><text font-family="Courier New,Courier New_MSFontService,sans-serif" font-weight="700" font-size="46" transform="matrix(1 0 0 1 984.836 1296)">participant_in</text><rect x="1414" y="1967" width="466" height="213" stroke="#07B9D5" stroke-width="10.3125" stroke-miterlimit="8" stroke-opacity="0.45098" fill="none"/><text fill="#BFBFBF" font-family="Calibri,Calibri_MSFontService,sans-serif" font-weight="400" font-size="83" transform="matrix(1 0 0 1 1541.45 2052)">event: </text><text fill="#BFBFBF" font-family="Calibri,Calibri_MSFontService,sans-serif" font-weight="400" font-size="83" transform="matrix(1 0 0 1 1612.38 2151)">t1</text><path d="M2121.69 1052.43 2120.09 635.319 2126.96 635.292 2128.56 1052.4ZM2104.61 661.147 2123.5 628.484 2142.64 661.001C2143.6 662.637 2143.05 664.744 2141.42 665.707 2139.78 666.67 2137.67 666.124 2136.71 664.488L2120.56 637.05 2126.5 637.027 2110.57 664.588C2109.62 666.232 2107.51 666.794 2105.87 665.843 2104.23 664.893 2103.66 662.79 2104.61 661.147Z" fill="#07B9D5"/><text font-family="Courier New,Courier New_MSFontService,sans-serif" font-weight="700" font-size="46" transform="matrix(1 0 0 1 1945.25 874)">member_of_kind</text><path d="M3082.11 1492.18 2607.53 1202.98 2611.1 1197.11 3085.69 1486.31ZM2621.42 1229.68 2603.49 1196.49 2641.21 1197.22C2643.11 1197.25 2644.62 1198.82 2644.58 1200.72 2644.54 1202.62 2642.98 1204.13 2641.08 1204.09L2609.25 1203.48 2612.34 1198.41 2627.47 1226.42C2628.37 1228.09 2627.75 1230.17 2626.08 1231.07 2624.41 1231.98 2622.33 1231.36 2621.42 1229.68Z" fill="#07B9D5"/><text font-family="Courier New,Courier New_MSFontService,sans-serif" font-weight="700" font-size="46" transform="matrix(1 0 0 1 2834.21 1278)">participant_in</text><path d="M3596.34 1446.22 3589.12 598.328 3596 598.27 3603.21 1446.16ZM3573.77 624.235 3592.5 591.484 3611.79 623.911C3612.76 625.543 3612.22 627.652 3610.59 628.623 3608.96 629.593 3606.85 629.057 3605.88 627.426L3589.6 600.063 3595.54 600.013 3579.73 627.648C3578.79 629.296 3576.69 629.868 3575.04 628.925 3573.4 627.983 3572.82 625.883 3573.77 624.235Z" fill="#07B9D5" fill-opacity="0.45098"/><path d="M3.3653-0.700845 134.188 627.479 127.457 628.881-3.3653 0.700845ZM144.182 599.085 132.215 634.866 106.959 606.837C105.688 605.426 105.801 603.253 107.212 601.982 108.622 600.711 110.796 600.824 112.066 602.235L133.378 625.887 127.564 627.097 137.662 596.904C138.264 595.104 140.212 594.132 142.012 594.735 143.813 595.337 144.784 597.284 144.182 599.085Z" fill="#07B9D5" fill-opacity="0.45098" transform="matrix(-1 0 0 1 1779.71 1332.5)"/><text fill="#BFBFBF" font-family="Courier New,Courier New_MSFontService,sans-serif" font-weight="700" font-size="46" transform="matrix(1 0 0 1 1166.11 1865)">beginning</text><path d="M2429.83 1331.63 2593.53 1959.9 2586.88 1961.63 2423.17 1333.37ZM2602.1 1931.04 2591.92 1967.37 2565.31 1940.62C2563.97 1939.28 2563.97 1937.1 2565.32 1935.76 2566.67 1934.42 2568.84 1934.43 2570.18 1935.77L2592.64 1958.34 2586.89 1959.84 2595.48 1929.18C2595.99 1927.35 2597.89 1926.29 2599.72 1926.8 2601.55 1927.31 2602.61 1929.21 2602.1 1931.04Z" fill="#07B9D5" fill-opacity="0.45098"/><text fill="#BFBFBF" font-family="Courier New,Courier New_MSFontService,sans-serif" font-weight="700" font-size="46" transform="matrix(1 0 0 1 2386.25 1508)">ending</text><text font-family="Courier New,Courier New_MSFontService,sans-serif" font-weight="700" font-size="46" transform="matrix(1 0 0 1 405.319 1112)">member_of_kind</text><text font-family="Courier New,Courier New_MSFontService,sans-serif" font-weight="700" font-size="46" transform="matrix(1 0 0 1 3426.53 1023)">member_of_kind</text><rect x="95.9999" y="1445" width="1039" height="324" stroke="#07B9D5" stroke-width="10.3125" stroke-miterlimit="8" fill="none"/><text font-family="Calibri,Calibri_MSFontService,sans-serif" font-weight="400" font-size="83" transform="matrix(1 0 0 1 145.648 1536)">Participant AND </text><text font-family="Calibri,Calibri_MSFontService,sans-serif" font-weight="400" font-size="83" transform="matrix(1 0 0 1 697.711 1536)">State_of_X</text><text font-family="Calibri,Calibri_MSFontService,sans-serif" font-weight="400" font-size="83" transform="matrix(1 0 0 1 1062.86 1536)">: </text><text font-family="Calibri,Calibri_MSFontService,sans-serif" font-weight="400" font-size="83" transform="matrix(1 0 0 1 249.873 1635)">Example_participant</text><text font-family="Calibri,Calibri_MSFontService,sans-serif" font-weight="400" font-size="83" transform="matrix(1 0 0 1 939.711 1635)">_</text><text font-family="Calibri,Calibri_MSFontService,sans-serif" font-weight="400" font-size="83" transform="matrix(1 0 0 1 436.163 1734)">state_of_X</text><path d="M3.43603-0.100655 9.51155 207.298 2.6395 207.499-3.43603 0.100655ZM24.3238 181.086 6.2753 214.219-13.6817 182.199C-14.6859 180.588-14.1939 178.468-12.5827 177.464-10.9716 176.459-8.85143 176.951-7.84724 178.563L8.99279 205.581 3.05686 205.755 18.2864 177.797C19.1946 176.13 21.2823 175.515 22.9495 176.423 24.6166 177.331 25.2319 179.419 24.3238 181.086Z" fill="#07B9D5" fill-opacity="0.45098" transform="matrix(-1 0 0 1 615.775 1769.5)"/><text fill="#BFBFBF" font-family="Courier New,Courier New_MSFontService,sans-serif" font-weight="700" font-size="46" transform="matrix(1 0 0 1 386.682 1882)">temporal_part_of</text><path d="M1137.47 1604.69 1644.21 1960.29 1640.27 1965.92 1133.53 1610.31ZM1632.07 1932.74 1647.82 1967.02 1610.23 1963.86C1608.34 1963.7 1606.93 1962.04 1607.09 1960.15 1607.25 1958.26 1608.91 1956.85 1610.8 1957.01L1642.53 1959.68 1639.12 1964.54 1625.82 1935.61C1625.03 1933.88 1625.78 1931.84 1627.51 1931.05 1629.23 1930.26 1631.28 1931.01 1632.07 1932.74Z" fill="#07B9D5" fill-opacity="0.45098"/><rect x="3207" y="1984" width="772" height="197" stroke="#07B9D5" stroke-width="10.3125" stroke-miterlimit="8" stroke-opacity="0.45098" fill="none"/><text fill="#BFBFBF" font-family="Calibri,Calibri_MSFontService,sans-serif" font-weight="400" font-size="83" transform="matrix(1 0 0 1 3389.05 2110)">individual: Y</text><rect x="3080" y="1446" width="1039" height="324" stroke="#07B9D5" stroke-width="10.3125" stroke-miterlimit="8" fill="none"/><text font-family="Calibri,Calibri_MSFontService,sans-serif" font-weight="400" font-size="83" transform="matrix(1 0 0 1 3134.04 1536)">Participant AND </text><text font-family="Calibri,Calibri_MSFontService,sans-serif" font-weight="400" font-size="83" transform="matrix(1 0 0 1 3686.1 1536)">State_of_Y</text><text font-family="Calibri,Calibri_MSFontService,sans-serif" font-weight="400" font-size="83" transform="matrix(1 0 0 1 4042.18 1536)">: </text><text font-family="Calibri,Calibri_MSFontService,sans-serif" font-weight="400" font-size="83" transform="matrix(1 0 0 1 3233.73 1635)">Example_participant</text><text font-family="Calibri,Calibri_MSFontService,sans-serif" font-weight="400" font-size="83" transform="matrix(1 0 0 1 3923.56 1635)">_</text><text font-family="Calibri,Calibri_MSFontService,sans-serif" font-weight="400" font-size="83" transform="matrix(1 0 0 1 3421.46 1734)">state_of_Y</text><path d="M3.43603-0.100655 9.51155 207.298 2.6395 207.499-3.43603 0.100655ZM24.3238 181.086 6.2753 214.219-13.6817 182.199C-14.6859 180.588-14.1939 178.468-12.5827 177.464-10.9716 176.459-8.85143 176.951-7.84724 178.563L8.99279 205.581 3.05686 205.755 18.2864 177.797C19.1946 176.13 21.2823 175.515 22.9495 176.423 24.6166 177.331 25.2319 179.419 24.3238 181.086Z" fill="#07B9D5" fill-opacity="0.45098" transform="matrix(-1 0 0 1 3599.77 1770.5)"/><text fill="#BFBFBF" font-family="Courier New,Courier New_MSFontService,sans-serif" font-weight="700" font-size="46" transform="matrix(1 0 0 1 3370.54 1882)">temporal_part_of</text><rect x="2359" y="1967" width="465" height="213" stroke="#07B9D5" stroke-width="10.3125" stroke-miterlimit="8" stroke-opacity="0.45098" fill="none"/><text fill="#BFBFBF" font-family="Calibri,Calibri_MSFontService,sans-serif" font-weight="400" font-size="83" transform="matrix(1 0 0 1 2486.07 2052)">event: </text><text fill="#BFBFBF" font-family="Calibri,Calibri_MSFontService,sans-serif" font-weight="400" font-size="83" transform="matrix(1 0 0 1 2556.99 2151)">t1</text><path d="M0.835449-3.33443 1427.19 354.043 1425.52 360.712-0.835449 3.33443ZM1405.99 332.676 1432.98 359.038 1396.75 369.558C1394.93 370.087 1393.02 369.038 1392.49 367.215 1391.96 365.392 1393.01 363.485 1394.83 362.956L1425.41 354.078 1423.97 359.839 1401.19 337.595C1399.83 336.268 1399.8 334.092 1401.13 332.734 1402.46 331.375 1404.63 331.35 1405.99 332.676Z" fill="#07B9D5" fill-opacity="0.45098" transform="matrix(-1 0 0 1 3080.47 1608.5)"/><path d="M1136.32 1604.16 2586.66 1962.05 2585.01 1968.72 1134.68 1610.84ZM2565.36 1940.75 2592.44 1967.01 2556.25 1977.66C2554.43 1978.2 2552.52 1977.16 2551.98 1975.34 2551.44 1973.52 2552.49 1971.6 2554.31 1971.07L2584.85 1962.08 2583.43 1967.85 2560.57 1945.69C2559.21 1944.36 2559.17 1942.19 2560.5 1940.82 2561.82 1939.46 2563.99 1939.43 2565.36 1940.75Z" fill="#07B9D5" fill-opacity="0.45098"/><path d="M2.03616-2.76956 484.912 352.237 480.839 357.776-2.03616 2.76956ZM473.37 324.422 488.366 359.043 450.848 355.056C448.96 354.855 447.592 353.162 447.793 351.274 447.994 349.386 449.687 348.019 451.574 348.219L483.233 351.584 479.715 356.368 467.061 327.155C466.307 325.413 467.107 323.389 468.849 322.634 470.591 321.879 472.615 322.68 473.37 324.422Z" fill="#07B9D5" fill-opacity="0.45098" transform="matrix(-1 0 0 1 3080.85 1608.5)"/><text fill="#BFBFBF" font-family="Courier New,Courier New_MSFontService,sans-serif" font-weight="700" font-size="46" transform="matrix(1 0 0 1 1628.74 1508)">beginning</text><text fill="#BFBFBF" font-family="Courier New,Courier New_MSFontService,sans-serif" font-weight="700" font-size="46" transform="matrix(1 0 0 1 1322.92 1613)">ending</text><text fill="#BFBFBF" font-family="Courier New,Courier New_MSFontService,sans-serif" font-weight="700" font-size="46" transform="matrix(1 0 0 1 2799.3 1876)">ending</text></g></svg>