<svg xmlns="http://www.w3.org/2000/svg" id="chart-inner" width="1560" height="600"><g transform="translate(30,10)"><defs><style type="text/css">@import url('https://fonts.googleapis.com/css2?family=Roboto:wght@300;400;500&amp;display=swap');</style></defs><g transform="translate(0,560)" fill="none" font-size="10" font-family="sans-serif" text-anchor="middle" style="stroke-width: 8; fill: none; opacity: 0.9; stroke: rgb(23, 55, 94); color: rgb(23, 55, 94);"><path class="domain" stroke="currentColor" d="M0.5,6V0.5H1490.5V6"/></g><text transform="translate(745 ,590)" style="text-anchor: middle; font-weight: bold; font-size: 18px;">Time</text><g fill="none" font-size="10" font-family="sans-serif" text-anchor="end" style="stroke-width: 8; fill: none; opacity: 0.9; stroke: rgb(23, 55, 94); color: rgb(23, 55, 94);"><path class="domain" stroke="currentColor" d="M-6,560.5H0.5V0.5H-6"/></g><text transform="rotate(-90)" y="-30" x="-280" dy="1em" style="text-anchor: middle; font-weight: bold; font-size: 18px;">Space</text><defs><marker id="arrow" viewBox="0 0 20 20" refX="10" refY="10" markerWidth="10" markerHeight="10" orient="auto-start-reverse"><path stroke="purple" fill="purple" d="M0,0L0,20L20,10"/></marker></defs><path d="M342.7,453.6C476.8,453.6,476.8,347.2,610.9,347.2" stroke="#7C4CFF" stroke-width="3" fill="none" style="stroke-opacity: 0.8; fill-opacity: 0.5;"/><path d="M342.7,509.6C476.8,509.6,476.8,403.2,610.9,403.2" stroke="#7C4CFF" stroke-width="3" fill="none" style="stroke-opacity: 0.8; fill-opacity: 0.5;"/><path d="M1147.3,347.2C1214.35,347.2,1214.35,453.6,1281.4,453.6" stroke="#7C4CFF" stroke-width="3" fill="none" style="stroke-opacity: 0.8; fill-opacity: 0.5;"/><path d="M1147.3,403.2C1214.35,403.2,1214.35,509.6,1281.4,509.6" stroke="#7C4CFF" stroke-width="3" fill="none" style="stroke-opacity: 0.8; fill-opacity: 0.5;"/><path d="M476.8,28C677.95,28,677.95,134.4,879.1,134.4" stroke="#7C4CFF" stroke-width="3" fill="none" style="stroke-opacity: 0.8; fill-opacity: 0.5;"/><path d="M476.8,84C677.95,84,677.95,190.4,879.1,190.4" stroke="#7C4CFF" stroke-width="3" fill="none" style="stroke-opacity: 0.8; fill-opacity: 0.5;"/><path d="M1147.3,134.4C1214.35,134.4,1214.35,28,1281.4,28" stroke="#7C4CFF" stroke-width="3" fill="none" style="stroke-opacity: 0.8; fill-opacity: 0.5;"/><path d="M1147.3,190.4C1214.35,190.4,1214.35,84,1281.4,84" stroke="#7C4CFF" stroke-width="3" fill="none" style="stroke-opacity: 0.8; fill-opacity: 0.5;"/><rect rx="0" ry="0" x="342.7" y="134.4" width="804.6" height="268.8" style="stroke-dasharray: 10, 0; fill: rgb(99, 221, 22); stroke-opacity: 0.8; fill-opacity: 0.5; stroke: rgb(99, 221, 22); stroke-width: 12;"/><rect rx="0" ry="0" x="74.5" y="453.6" width="268.2" height="56" style="stroke-dasharray: 10, 0; fill: rgb(124, 76, 255); stroke-opacity: 0.8; fill-opacity: 0.5; stroke: rgb(124, 76, 255); stroke-width: 12;"/><rect rx="0" ry="0" x="1281.4" y="453.6" width="134.1" height="56" style="stroke-dasharray: 10, 0; fill: rgb(124, 76, 255); stroke-opacity: 0.8; fill-opacity: 0.5; stroke: rgb(124, 76, 255); stroke-width: 12;"/><rect rx="0" ry="0" x="342.7" y="347.2" width="804.6" height="56" style="stroke-dasharray: 10, 0; fill: rgb(124, 76, 255); stroke-opacity: 0.8; fill-opacity: 0.5; stroke: rgb(124, 76, 255); stroke-width: 5;"/><rect rx="0" ry="0" x="610.9" y="347.2" width="536.4" height="56" style="stroke-dasharray: 10, 3; fill: rgb(124, 76, 255); stroke-opacity: 0.8; fill-opacity: 0.5; stroke: rgb(124, 76, 255); stroke-width: 3;"/><rect rx="0" ry="0" x="342.7" y="134.4" width="804.6" height="56" style="stroke-dasharray: 10, 0; fill: rgb(124, 76, 255); stroke-opacity: 0.8; fill-opacity: 0.5; stroke: rgb(124, 76, 255); stroke-width: 5;"/><rect rx="0" ry="0" x="879.0999999999999" y="134.4" width="268.2" height="56" style="stroke-dasharray: 10, 3; fill: rgb(124, 76, 255); stroke-opacity: 0.8; fill-opacity: 0.5; stroke: rgb(124, 76, 255); stroke-width: 3;"/><rect rx="0" ry="0" x="74.5" y="28.000000000000025" width="402.3" height="56" style="stroke-dasharray: 10, 0; fill: rgb(124, 76, 255); stroke-opacity: 0.8; fill-opacity: 0.5; stroke: rgb(124, 76, 255); stroke-width: 12;"/><rect rx="0" ry="0" x="1281.4" y="28.000000000000025" width="134.1" height="56" style="stroke-dasharray: 10, 0; fill: rgb(124, 76, 255); stroke-opacity: 0.8; fill-opacity: 0.5; stroke: rgb(124, 76, 255); stroke-width: 12;"/><text y="481.6" x="745" text-anchor="middle" style="fill: rgb(33, 33, 33); font-size: 18px; font-family: Roboto;">Descent_Module_Functional_System_1969-059D</text><text y="343" x="342.7" text-anchor="start" style="fill: rgb(33, 33, 33); font-size: 18px; font-family: Roboto;">Descent_Module_System_Component_1969-059D</text><text y="375.2" x="879.0999999999999" text-anchor="start" style="fill: white; font-size: 18px; font-family: Roboto;"/><text y="268.79999999999995" x="745" text-anchor="middle" style="fill: rgb(33, 33, 33); font-size: 18px; font-family: Roboto;">Example_individual_that_is_Lunar_Module_Eagle_LM-5</text><text y="130.20000000000002" x="342.7" text-anchor="start" style="fill: rgb(33, 33, 33); font-size: 18px; font-family: Roboto;">Ascent_Module_System_Component_1969-059C</text><text y="162.4" x="1013.1999999999999" text-anchor="start" style="fill: white; font-size: 18px; font-family: Roboto;"/><text y="56.00000000000003" x="745" text-anchor="middle" style="fill: rgb(33, 33, 33); font-size: 18px; font-family: Roboto;">Ascent_Module_Functional_System_1969-059C</text></g></svg>