<svg xmlns="http://www.w3.org/2000/svg" id="chart-inner" width="3240" height="600"><g transform="translate(30,10)"><defs><style type="text/css">@import url('https://fonts.googleapis.com/css2?family=Roboto:wght@300;400;500&amp;display=swap');</style></defs><g transform="translate(0,560)" fill="none" font-size="10" font-family="sans-serif" text-anchor="middle" style="stroke-width: 8; fill: none; opacity: 0.9; stroke: rgb(23, 55, 94); color: rgb(23, 55, 94);"><path class="domain" stroke="currentColor" d="M0.5,6V0.5H3170.5V6"/></g><text transform="translate(1585 ,590)" style="text-anchor: middle; font-weight: bold; font-size: 18px;">Time</text><g fill="none" font-size="10" font-family="sans-serif" text-anchor="end" style="stroke-width: 8; fill: none; opacity: 0.9; stroke: rgb(23, 55, 94); color: rgb(23, 55, 94);"><path class="domain" stroke="currentColor" d="M-6,560.5H0.5V0.5H-6"/></g><text transform="rotate(-90)" y="-30" x="-280" dy="1em" style="text-anchor: middle; font-weight: bold; font-size: 18px;">Space</text><defs><marker id="arrow" viewBox="0 0 20 20" refX="10" refY="10" markerWidth="10" markerHeight="10" orient="auto-start-reverse"><path stroke="purple" fill="purple" d="M0,0L0,20L20,10"/></marker></defs><path d="M729.1,453.6C1014.4,453.6,1014.4,347.2,1299.7,347.2" stroke="#7C4CFF" stroke-width="3" fill="none" style="stroke-opacity: 0.8; fill-opacity: 0.5;"/><path d="M729.1,509.6C1014.4,509.6,1014.4,403.2,1299.7,403.2" stroke="#7C4CFF" stroke-width="3" fill="none" style="stroke-opacity: 0.8; fill-opacity: 0.5;"/><path d="M2440.9,347.2C2583.55,347.2,2583.55,453.6,2726.2,453.6" stroke="#7C4CFF" stroke-width="3" fill="none" style="stroke-opacity: 0.8; fill-opacity: 0.5;"/><path d="M2440.9,403.2C2583.55,403.2,2583.55,509.6,2726.2,509.6" stroke="#7C4CFF" stroke-width="3" fill="none" style="stroke-opacity: 0.8; fill-opacity: 0.5;"/><path d="M1014.4,28C1442.35,28,1442.35,134.4,1870.3,134.4" stroke="#7C4CFF" stroke-width="3" fill="none" style="stroke-opacity: 0.8; fill-opacity: 0.5;"/><path d="M1014.4,84C1442.35,84,1442.35,190.4,1870.3,190.4" stroke="#7C4CFF" stroke-width="3" fill="none" style="stroke-opacity: 0.8; fill-opacity: 0.5;"/><path d="M2440.9,134.4C2583.55,134.4,2583.55,28,2726.2,28" stroke="#7C4CFF" stroke-width="3" fill="none" style="stroke-opacity: 0.8; fill-opacity: 0.5;"/><path d="M2440.9,190.4C2583.55,190.4,2583.55,84,2726.2,84" stroke="#7C4CFF" stroke-width="3" fill="none" style="stroke-opacity: 0.8; fill-opacity: 0.5;"/><rect rx="0" ry="0" x="729.1" y="134.4" width="1711.8000000000002" height="268.8" style="stroke-dasharray: 10, 0; fill: rgb(99, 221, 22); stroke-opacity: 0.8; fill-opacity: 0.5; stroke: rgb(99, 221, 22); stroke-width: 12;"/><rect rx="0" ry="0" x="158.5" y="453.6" width="570.6" height="56" style="stroke-dasharray: 10, 0; fill: rgb(124, 76, 255); stroke-opacity: 0.8; fill-opacity: 0.5; stroke: rgb(124, 76, 255); stroke-width: 12;"/><rect rx="0" ry="0" x="2726.2" y="453.6" width="285.3" height="56" style="stroke-dasharray: 10, 0; fill: rgb(124, 76, 255); stroke-opacity: 0.8; fill-opacity: 0.5; stroke: rgb(124, 76, 255); stroke-width: 12;"/><rect rx="0" ry="0" x="729.1" y="347.2" width="2282.4" height="56" style="stroke-dasharray: 10, 0; fill: rgb(124, 76, 255); stroke-opacity: 0.8; fill-opacity: 0.5; stroke: rgb(124, 76, 255); stroke-width: 5;"/><rect rx="0" ry="0" x="1299.6999999999998" y="347.2" width="1141.2" height="56" style="stroke-dasharray: 10, 3; fill: rgb(124, 76, 255); stroke-opacity: 0.8; fill-opacity: 0.5; stroke: rgb(124, 76, 255); stroke-width: 3;"/><rect rx="0" ry="0" x="729.1" y="134.4" width="2282.4" height="56" style="stroke-dasharray: 10, 0; fill: rgb(124, 76, 255); stroke-opacity: 0.8; fill-opacity: 0.5; stroke: rgb(124, 76, 255); stroke-width: 5;"/><rect rx="0" ry="0" x="1870.3" y="134.4" width="570.6" height="56" style="stroke-dasharray: 10, 3; fill: rgb(124, 76, 255); stroke-opacity: 0.8; fill-opacity: 0.5; stroke: rgb(124, 76, 255); stroke-width: 3;"/><rect rx="0" ry="0" x="158.5" y="28.000000000000025" width="855.9000000000001" height="56" style="stroke-dasharray: 10, 0; fill: rgb(124, 76, 255); stroke-opacity: 0.8; fill-opacity: 0.5; stroke: rgb(124, 76, 255); stroke-width: 12;"/><rect rx="0" ry="0" x="2726.2" y="28.000000000000025" width="285.3" height="56" style="stroke-dasharray: 10, 0; fill: rgb(124, 76, 255); stroke-opacity: 0.8; fill-opacity: 0.5; stroke: rgb(124, 76, 255); stroke-width: 12;"/><text y="481.6" x="1585" text-anchor="middle" style="fill: rgb(33, 33, 33); font-size: 18px; font-family: Roboto;">Descent_Module_Functional_System_1969-059D</text><text y="343" x="729.1" text-anchor="start" style="fill: rgb(33, 33, 33); font-size: 18px; font-family: Roboto;">Descent_Module_System_Component_1969-059D</text><text y="375.2" x="1870.2999999999997" text-anchor="start" style="fill: white; font-size: 18px; font-family: Roboto;"/><text y="268.79999999999995" x="1585" text-anchor="middle" style="fill: rgb(33, 33, 33); font-size: 18px; font-family: Roboto;">Example_individual_that_is_Lunar_Module_Eagle_LM-5</text><text y="130.20000000000002" x="729.1" text-anchor="start" style="fill: rgb(33, 33, 33); font-size: 18px; font-family: Roboto;">Ascent_Module_System_Component_1969-059C</text><text y="162.4" x="2155.6" text-anchor="start" style="fill: white; font-size: 18px; font-family: Roboto;"/><text y="56.00000000000003" x="1585" text-anchor="middle" style="fill: rgb(33, 33, 33); font-size: 18px; font-family: Roboto;">Ascent_Module_Functional_System_1969-059C</text></g></svg>