<svg width="3839" height="2172" xmlns="http://www.w3.org/2000/svg" xmlns:xlink="http://www.w3.org/1999/xlink" xml:space="preserve" overflow="hidden"><g transform="translate(-400 -51)"><rect x="1141" y="1014" width="1869" height="134" fill="#7C4CFF" fill-opacity="0.341176"/><rect x="1117" y="1272" width="1771" height="134" fill="#7C4CFF" fill-opacity="0.341176"/><rect x="1165" y="1727" width="1695" height="134" stroke="#7C4CFF" stroke-width="10.3125" stroke-miterlimit="8" fill="#7C4CFF" fill-opacity="0.341176"/><path d="M516.5 793 552.001 757.5 587.5 793 569.75 793 569.75 2074.5 534.25 2074.5 534.25 793Z" stroke="#7C4CFF" stroke-width="4.58333" stroke-miterlimit="8" fill="#7C4CFF" fill-rule="evenodd"/><path d="M3131.49 2023.5 3166.5 2058.51 3131.49 2093.51 3131.49 2076.01 542.5 2076.01 542.5 2041.01 3131.49 2041.01Z" stroke="#7C4CFF" stroke-width="4.58333" stroke-miterlimit="8" fill="#7C4CFF" fill-rule="evenodd"/><text fill="#7C4CFF" font-family="Calibri,Calibri_MSFontService,sans-serif" font-weight="400" font-size="83" transform="matrix(-1.83697e-16 -1 1 -1.83697e-16 502.041 1038)">Space</text><text fill="#7C4CFF" font-family="Calibri,Calibri_MSFontService,sans-serif" font-weight="400" font-size="83" transform="matrix(1 0 0 1 2951.77 2151)">Time</text><path d="M1449 1409 1449 2045.61" stroke="#A6A6A6" stroke-width="2.29167" stroke-miterlimit="8" stroke-dasharray="18.3333 6.875" fill="none" fill-rule="evenodd"/><text fill="#36464E" font-family="Roboto Mono,Roboto Mono_MSFontService,sans-serif" font-weight="400" font-size="50" transform="matrix(1 0 0 1 1407.63 2157)">t0</text><text font-family="Calibri,Calibri_MSFontService,sans-serif" font-weight="400" font-size="64" transform="matrix(1 0 0 1 815.045 1065)">L</text><text font-family="Calibri,Calibri_MSFontService,sans-serif" font-weight="400" font-size="64" transform="matrix(1 0 0 1 841.972 1065)">anguage </text><text font-family="Calibri,Calibri_MSFontService,sans-serif" font-weight="400" font-size="64" transform="matrix(1 0 0 1 768.066 1142)">community</text><text font-family="Calibri,Calibri_MSFontService,sans-serif" font-style="italic" font-weight="400" font-size="64" transform="matrix(1 0 0 1 608.998 1776)">Actual thing being </text><text font-family="Calibri,Calibri_MSFontService,sans-serif" font-style="italic" font-weight="400" font-size="64" transform="matrix(1 0 0 1 775.877 1853)">represented</text><text fill="#36464E" font-family="Roboto Mono,Roboto Mono_MSFontService,sans-serif" font-weight="400" font-size="50" transform="matrix(1 0 0 1 2587.44 2157)">t1</text><text font-family="Calibri,Calibri_MSFontService,sans-serif" font-style="italic" font-weight="400" font-size="64" transform="matrix(1 0 0 1 653.664 1313)">Instance of </text><text font-family="Calibri,Calibri_MSFontService,sans-serif" font-weight="400" font-size="64" transform="matrix(1 0 0 1 952.452 1313)">sign, </text><text font-family="Calibri,Calibri_MSFontService,sans-serif" font-weight="400" font-size="64" transform="matrix(1 0 0 1 715.837 1390)">an actual sign</text><path d="M1.91744-1.25505 197.382 297.371 193.547 299.881-1.91744 1.25505ZM204.459 287.261 208.015 317.801 181.45 302.322Z" fill="#7C4CFF" transform="matrix(-1 0 0 1 2032.52 1409.5)"/><text fill="#7C4CFF" font-family="Courier New,Courier New_MSFontService,sans-serif" font-weight="400" font-size="55" transform="matrix(1 0 0 1 1996.11 1594)">represents</text><path d="M2618 1406 2618 2042.61" stroke="#A6A6A6" stroke-width="2.29167" stroke-miterlimit="8" stroke-dasharray="18.3333 6.875" fill="none" fill-rule="evenodd"/><path d="M1477 302C1477 166.138 1654.97 56 1874.5 56 2094.03 56 2272 166.138 2272 302 2272 437.862 2094.03 548 1874.5 548 1654.97 548 1477 437.862 1477 302Z" stroke="#7C4CFF" stroke-width="10.3125" stroke-miterlimit="8" fill="#7C4CFF" fill-rule="evenodd" fill-opacity="0.341176"/><text fill="#595959" font-family="Courier New,Courier New_MSFontService,sans-serif" font-weight="700" font-size="55" transform="matrix(1 0 0 1 1634.95 182)">IDENTIFICATION</text><path d="M1555 334.377 1588.61 334.377 1599 300 1609.39 334.377 1643 334.377 1615.81 355.623 1626.19 390 1599 368.754 1571.81 390 1582.19 355.623Z" stroke="#7C4CFF" stroke-width="10.3125" stroke-miterlimit="8" fill="#7C4CFF" fill-rule="evenodd" fill-opacity="0.341176"/><path d="M3219 340C3219 204.138 3396.97 93.9998 3616.5 93.9998 3836.03 93.9998 4014 204.138 4014 340 4014 475.862 3836.03 586 3616.5 586 3396.97 586 3219 475.862 3219 340Z" stroke="#7C4CFF" stroke-width="10.3125" stroke-miterlimit="8" fill="#7C4CFF" fill-rule="evenodd" fill-opacity="0.341176"/><text fill="#595959" font-family="Courier New,Courier New_MSFontService,sans-serif" font-weight="700" font-size="55" transform="matrix(1 0 0 1 3500.12 213)">PATTERN</text><path d="M3572 406.995 3605.61 406.995 3616 373 3626.39 406.995 3660 406.995 3632.81 428.005 3643.19 462 3616 440.99 3588.81 462 3599.19 428.005Z" stroke="#7C4CFF" stroke-width="10.3125" stroke-miterlimit="8" fill="#7C4CFF" fill-rule="evenodd" fill-opacity="0.341176"/><path d="M1.78962-1.43143 24.6925 27.2025 21.1132 30.0654-1.78962 1.43143ZM33.281 37.9403 56.1839 66.5742 52.6046 69.4371 29.7018 40.8031ZM64.7725 77.312 87.6753 105.946 84.0961 108.809 61.1932 80.1748ZM96.2639 116.684 119.167 145.318 115.587 148.18 92.6846 119.547ZM127.755 156.055 150.658 184.689 147.079 187.552 124.176 158.918ZM159.247 195.427 182.15 224.061 178.57 226.924 155.667 198.29ZM190.738 234.799 213.641 263.433 210.062 266.296 187.159 237.662ZM222.23 274.171 245.132 302.804 241.553 305.667 218.65 277.033ZM253.721 313.542 276.624 342.176 273.045 345.039 250.142 316.405ZM285.212 352.914 308.115 381.548 304.536 384.411 281.633 355.777ZM316.704 392.286 339.607 420.92 336.027 423.782 313.125 395.148ZM348.195 431.657 371.098 460.291 367.519 463.154 344.616 434.52ZM379.687 471.029 402.589 499.663 399.01 502.526 376.107 473.892ZM411.178 510.401 434.081 539.035 430.502 541.898 407.599 513.264ZM442.669 549.772 465.572 578.406 461.993 581.269 439.09 552.635ZM474.161 589.144 497.064 617.778 493.485 620.641 470.582 592.007ZM505.652 628.516 528.555 657.15 524.976 660.013 502.073 631.379ZM537.144 667.887 560.047 696.521 556.467 699.384 533.565 670.75ZM568.635 707.259 591.538 735.893 587.959 738.756 565.056 710.122ZM600.127 746.631 623.029 775.265 619.45 778.128 596.547 749.494ZM631.618 786.003 654.521 814.637 650.942 817.499 628.039 788.865ZM663.109 825.374 686.012 854.008 682.433 856.871 659.53 828.237ZM694.581 846.376 701.02 876.44 673.105 863.554Z" fill="#7C4CFF" transform="matrix(1 0 0 -1 2888.5 1338.94)"/><path d="M2030.42 1014.3 2010.39 983.586 2014.23 981.082 2034.26 1011.79ZM2002.88 972.069 1982.85 941.357 1986.69 938.853 2006.72 969.565ZM1975.34 929.839 1955.31 899.127 1959.15 896.623 1979.18 927.336ZM1947.8 887.61 1927.77 856.898 1931.61 854.394 1951.64 885.106ZM1920.26 845.381 1900.23 814.669 1904.07 812.165 1924.1 842.877ZM1892.72 803.151 1872.69 772.439 1876.52 769.935 1896.55 800.648ZM1865.17 760.922 1845.14 730.21 1848.98 727.706 1869.01 758.418ZM1837.63 718.693 1817.6 687.981 1821.44 685.477 1841.47 716.189ZM1810.09 676.464 1790.06 645.751 1793.9 643.247 1813.93 673.96ZM1782.55 634.234 1762.52 603.522 1766.36 601.018 1786.39 631.73ZM1755.01 592.005 1734.98 561.293 1738.82 558.789 1758.85 589.501ZM1727.47 549.776 1707.44 519.063 1711.28 516.56 1731.31 547.272ZM1699.93 507.546 1679.9 476.834 1683.73 474.33 1703.76 505.043ZM1672.38 465.317 1652.35 434.605 1656.19 432.101 1676.22 462.813ZM1644.84 423.088 1644.1 421.947 1647.94 419.443 1648.68 420.584ZM1637.01 432.045 1633.5 401.5 1660.04 417.023Z" fill="#7C4CFF"/><text fill="#7C4CFF" font-family="Courier New,Courier New_MSFontService,sans-serif" font-weight="400" font-size="55" transform="matrix(1 0 0 1 3440.49 728)">member_of</text><text fill="#7C4CFF" font-family="Courier New,Courier New_MSFontService,sans-serif" font-weight="400" font-size="55" transform="matrix(1 0 0 1 3739.55 728)">_</text><text fill="#7C4CFF" font-family="Courier New,Courier New_MSFontService,sans-serif" font-weight="400" font-size="55" transform="matrix(0.999042 0.0437696 -0.0437696 0.999042 2404.37 317)">consists_of_by_class</text><text fill="#7C4CFF" font-family="Courier New,Courier New_MSFontService,sans-serif" font-weight="400" font-size="55" transform="matrix(1 0 0 1 1876.13 678)">member_of</text><text fill="#7C4CFF" font-family="Courier New,Courier New_MSFontService,sans-serif" font-weight="400" font-size="55" transform="matrix(1 0 0 1 2175.19 678)">_</text><path d="M1599.62 298.212 1617.93 299.201 1617.68 303.778 1599.38 302.788ZM1631.66 299.944 1649.97 300.933 1649.72 305.51 1631.41 304.52ZM1663.7 301.676 1682 302.666 1681.76 307.242 1663.45 306.252ZM1695.73 303.408 1714.04 304.398 1713.79 308.974 1695.49 307.984ZM1727.77 305.14 1746.08 306.13 1745.83 310.706 1727.52 309.717ZM1759.81 306.872 1778.11 307.862 1777.87 312.438 1759.56 311.449ZM1791.84 308.604 1810.15 309.594 1809.9 314.17 1791.6 313.181ZM1823.88 310.336 1842.19 311.326 1841.94 315.903 1823.63 314.913ZM1855.92 312.068 1874.22 313.058 1873.98 317.635 1855.67 316.645ZM1887.95 313.8 1906.26 314.79 1906.01 319.367 1887.71 318.377ZM1919.99 315.532 1938.3 316.522 1938.05 321.099 1919.74 320.109ZM1952.03 317.264 1970.33 318.254 1970.08 322.831 1951.78 321.841ZM1984.06 318.997 2002.37 319.986 2002.12 324.563 1983.81 323.573ZM2016.1 320.729 2034.41 321.718 2034.16 326.295 2015.85 325.305ZM2048.14 322.461 2066.44 323.45 2066.19 328.027 2047.89 327.037ZM2080.17 324.193 2098.48 325.182 2098.23 329.759 2079.92 328.769ZM2112.21 325.925 2130.51 326.915 2130.27 331.491 2111.96 330.501ZM2144.24 327.657 2162.55 328.647 2162.3 333.223 2144 332.234ZM2176.28 329.389 2194.59 330.379 2194.34 334.955 2176.03 333.966ZM2208.32 331.121 2226.62 332.111 2226.38 336.687 2208.07 335.698ZM2240.35 332.853 2258.66 333.843 2258.41 338.42 2240.11 337.43ZM2272.39 334.585 2290.7 335.575 2290.45 340.152 2272.14 339.162ZM2304.43 336.317 2322.73 337.307 2322.49 341.884 2304.18 340.894ZM2336.46 338.049 2354.77 339.039 2354.52 343.616 2336.22 342.626ZM2368.5 339.781 2386.81 340.771 2386.56 345.348 2368.25 344.358ZM2400.54 341.513 2418.84 342.503 2418.6 347.08 2400.29 346.09ZM2432.57 343.246 2450.88 344.235 2450.63 348.812 2432.33 347.822ZM2464.61 344.978 2482.92 345.967 2482.67 350.544 2464.36 349.554ZM2496.65 346.71 2514.95 347.699 2514.71 352.276 2496.4 351.286ZM2528.68 348.442 2546.99 349.432 2546.74 354.008 2528.44 353.018ZM2560.72 350.174 2579.03 351.164 2578.78 355.74 2560.47 354.751ZM2592.76 351.906 2611.06 352.896 2610.82 357.472 2592.51 356.483ZM2624.79 353.638 2643.1 354.628 2642.85 359.204 2624.55 358.215ZM2656.83 355.37 2675.14 356.36 2674.89 360.936 2656.58 359.947ZM2688.87 357.102 2707.17 358.092 2706.93 362.669 2688.62 361.679ZM2720.9 358.834 2739.21 359.824 2738.96 364.401 2720.66 363.411ZM2752.94 360.566 2771.25 361.556 2771 366.133 2752.69 365.143ZM2784.98 362.298 2803.28 363.288 2803.04 367.865 2784.73 366.875ZM2817.01 364.03 2835.32 365.02 2835.07 369.597 2816.77 368.607ZM2849.05 365.763 2867.36 366.752 2867.11 371.329 2848.8 370.339ZM2881.09 367.495 2899.39 368.484 2899.15 373.061 2880.84 372.071ZM2913.12 369.227 2931.43 370.216 2931.18 374.793 2912.88 373.803ZM2945.16 370.959 2963.47 371.949 2963.22 376.525 2944.91 375.535ZM2977.2 372.691 2995.5 373.681 2995.25 378.257 2976.95 377.267ZM3009.23 374.423 3027.54 375.413 3027.29 379.989 3008.98 379ZM3041.27 376.155 3059.58 377.145 3059.33 381.721 3041.02 380.732ZM3073.31 377.887 3091.61 378.877 3091.36 383.453 3073.06 382.464ZM3105.34 379.619 3123.65 380.609 3123.4 385.186 3105.09 384.196ZM3137.38 381.351 3155.69 382.341 3155.44 386.918 3137.13 385.928ZM3169.42 383.083 3187.72 384.073 3187.47 388.65 3169.17 387.66ZM3201.45 384.815 3219.76 385.805 3219.51 390.382 3201.2 389.392ZM3233.49 386.547 3251.79 387.537 3251.55 392.114 3233.24 391.124ZM3265.52 388.28 3283.83 389.269 3283.58 393.846 3265.28 392.856ZM3297.56 390.012 3315.87 391.001 3315.62 395.578 3297.31 394.588ZM3329.6 391.744 3347.9 392.733 3347.66 397.31 3329.35 396.32ZM3361.63 393.476 3379.94 394.465 3379.69 399.042 3361.39 398.052ZM3393.67 395.208 3411.98 396.198 3411.73 400.774 3393.42 399.784ZM3425.71 396.94 3444.01 397.93 3443.77 402.506 3425.46 401.517ZM3457.74 398.672 3476.05 399.662 3475.8 404.238 3457.5 403.249ZM3489.78 400.404 3508.09 401.394 3507.84 405.97 3489.53 404.981ZM3521.82 402.136 3540.12 403.126 3539.88 407.703 3521.57 406.713ZM3545.54 391.944 3572.26 407.158 3544.06 419.404Z" fill="#7C4CFF"/><path d="M3439 1338.5C3439 1202.91 3616.97 1093 3836.5 1093 4056.03 1093 4234 1202.91 4234 1338.5 4234 1474.09 4056.03 1584 3836.5 1584 3616.97 1584 3439 1474.09 3439 1338.5Z" stroke="#7C4CFF" stroke-width="10.3125" stroke-miterlimit="8" fill="#7C4CFF" fill-rule="evenodd" fill-opacity="0.341176"/><text fill="#595959" font-family="Courier New,Courier New_MSFontService,sans-serif" font-weight="700" font-size="55" transform="matrix(1 0 0 1 3715.03 1415)">KIND_OF_</text><text fill="#595959" font-family="Courier New,Courier New_MSFontService,sans-serif" font-weight="700" font-size="55" transform="matrix(1 0 0 1 3598.73 1482)">PHYSICAL_OBJECT</text><path d="M3624 1216.38 3657.61 1216.38 3668 1182 3678.39 1216.38 3712 1216.38 3684.81 1237.62 3695.19 1272 3668 1250.75 3640.81 1272 3651.19 1237.62Z" stroke="#7C4CFF" stroke-width="10.3125" stroke-miterlimit="8" fill="#7C4CFF" fill-rule="evenodd" fill-opacity="0.341176"/><path d="M1.27463-1.90448 31.7463 18.4897 29.197 22.2986-1.27463 1.90448ZM43.1732 26.1375 73.6449 46.5316 71.0956 50.3406 40.6239 29.9464ZM85.0717 54.1794 115.543 74.5736 112.994 78.3826 82.5225 57.9884ZM126.97 82.2214 157.442 102.616 154.893 106.425 124.421 86.0304ZM168.869 110.263 199.341 130.658 196.791 134.466 166.32 114.072ZM210.767 138.305 241.239 158.699 238.69 162.508 208.218 142.114ZM252.666 166.347 283.138 186.741 280.588 190.55 250.117 170.156ZM294.564 194.389 325.036 214.783 322.487 218.592 292.015 198.198ZM336.463 222.431 366.935 242.825 364.385 246.634 333.914 226.24ZM378.362 250.473 408.833 270.867 406.284 274.676 375.812 254.282ZM420.26 278.515 450.732 298.909 448.183 302.718 417.711 282.324ZM462.159 306.557 492.63 326.951 490.081 330.76 459.609 310.366ZM504.057 334.599 534.529 354.993 531.98 358.802 501.508 338.408ZM545.956 362.641 576.427 383.035 573.878 386.844 543.407 366.45ZM587.854 390.683 618.326 411.077 615.777 414.886 585.305 394.492ZM629.753 418.725 660.225 439.119 657.675 442.928 627.204 422.534ZM671.652 446.767 702.123 467.161 699.574 470.97 669.102 450.576ZM713.55 474.809 744.022 495.203 741.472 499.012 711.001 478.618ZM755.449 502.851 762.983 507.894 760.434 511.703 752.899 506.66ZM765.547 495.822 780.753 522.544 750.252 518.676Z" fill="#7C4CFF" transform="matrix(1 0 0 -1 2860.5 1795.04)"/><text fill="#7C4CFF" font-family="Courier New,Courier New_MSFontService,sans-serif" font-weight="400" font-size="55" transform="matrix(1 0 0 1 3135.5 1677)">member_of_kind</text><path d="M1574.79 390.396 1575.62 408.71 1571.04 408.919 1570.21 390.604ZM1576.25 422.446 1577.08 440.76 1572.5 440.969 1571.67 422.654ZM1577.71 454.496 1578.54 472.811 1573.96 473.019 1573.13 454.705ZM1579.16 486.546 1580 504.861 1575.42 505.069 1574.58 486.755ZM1580.62 518.597 1581.45 536.911 1576.88 537.119 1576.04 518.805ZM1582.08 550.647 1582.91 568.961 1578.33 569.169 1577.5 550.855ZM1583.54 582.697 1584.37 601.011 1579.79 601.22 1578.96 582.905ZM1584.99 614.747 1585.83 633.062 1581.25 633.27 1580.42 614.956ZM1586.45 646.797 1587.29 665.112 1582.71 665.32 1581.87 647.006ZM1587.91 678.848 1588.74 697.162 1584.16 697.37 1583.33 679.056ZM1589.37 710.898 1590.2 729.212 1585.62 729.42 1584.79 711.106ZM1590.83 742.948 1591.66 761.262 1587.08 761.471 1586.25 743.156ZM1592.28 774.998 1593.12 793.312 1588.54 793.521 1587.71 775.206ZM1593.74 807.048 1594.58 825.363 1590 825.571 1589.16 807.257ZM1595.2 839.099 1596.03 857.413 1591.45 857.621 1590.62 839.307ZM1596.66 871.149 1597.49 889.463 1592.91 889.671 1592.08 871.357ZM1598.12 903.199 1598.95 921.513 1594.37 921.721 1593.54 903.407ZM1599.57 935.249 1600.41 953.563 1595.83 953.772 1594.99 935.457ZM1601.03 967.299 1601.86 985.614 1597.29 985.822 1596.45 967.507ZM1602.49 999.349 1603.32 1017.66 1598.74 1017.87 1597.91 999.558ZM1603.95 1031.4 1604.78 1049.71 1600.2 1049.92 1599.37 1031.61ZM1605.41 1063.45 1606.24 1081.76 1601.66 1081.97 1600.83 1063.66ZM1606.86 1095.5 1607.7 1113.81 1603.12 1114.02 1602.28 1095.71ZM1608.32 1127.55 1609.15 1145.86 1604.58 1146.07 1603.74 1127.76ZM1609.78 1159.6 1610.61 1177.91 1606.03 1178.12 1605.2 1159.81ZM1611.24 1191.65 1612.07 1209.96 1607.49 1210.17 1606.66 1191.86ZM1612.69 1223.7 1613.53 1242.02 1608.95 1242.22 1608.12 1223.91ZM1614.15 1255.75 1614.99 1274.07 1610.41 1274.27 1609.57 1255.96ZM1615.61 1287.8 1616.44 1306.12 1611.86 1306.32 1611.03 1288.01ZM1617.07 1319.85 1617.9 1338.17 1613.32 1338.37 1612.49 1320.06ZM1618.53 1351.9 1619.36 1370.22 1614.78 1370.42 1613.95 1352.11ZM1619.98 1383.95 1620.82 1402.27 1616.24 1402.47 1615.41 1384.16ZM1621.44 1416 1622.28 1434.32 1617.7 1434.52 1616.86 1416.21ZM1622.9 1448.05 1623.73 1466.37 1619.15 1466.57 1618.32 1448.26ZM1624.36 1480.1 1625.19 1498.42 1620.61 1498.63 1619.78 1480.31ZM1625.82 1512.15 1626.65 1530.47 1622.07 1530.68 1621.24 1512.36ZM1627.27 1544.2 1628.11 1562.52 1623.53 1562.73 1622.69 1544.41ZM1628.73 1576.25 1629.56 1594.57 1624.99 1594.78 1624.15 1576.46ZM1630.19 1608.3 1631.02 1626.62 1626.44 1626.83 1625.61 1608.51ZM1631.65 1640.35 1632.48 1658.67 1627.9 1658.88 1627.07 1640.56ZM1633.11 1672.4 1633.94 1690.72 1629.36 1690.93 1628.53 1672.61ZM1634.56 1704.45 1634.58 1704.93 1630.01 1705.14 1629.98 1704.66ZM1645.82 1699.83 1633.34 1727.93 1618.35 1701.08Z" fill="#7C4CFF"/><text fill="#7C4CFF" font-family="Courier New,Courier New_MSFontService,sans-serif" font-weight="400" font-size="55" transform="matrix(1 0 0 1 1198.06 762)">represented</text><text font-family="Calibri,Calibri_MSFontService,sans-serif" font-weight="400" font-size="83" transform="matrix(1 0 0 1 1773.36 1355)">state of </text><text font-family="Calibri,Calibri_MSFontService,sans-serif" font-weight="400" font-size="83" transform="matrix(1 0 0 1 2044.21 1355)">this sign</text><text font-family="Calibri,Calibri_MSFontService,sans-serif" font-weight="400" font-size="73" transform="matrix(1 0 0 1 1532.87 1108)">r</text><text font-family="Calibri,Calibri_MSFontService,sans-serif" font-weight="400" font-size="73" transform="matrix(1 0 0 1 1557.69 1108)">ecognizing_language_community</text><rect x="1452" y="1267" width="1166" height="135" stroke="#7C4CFF" stroke-width="10.3125" stroke-miterlimit="8" stroke-dasharray="41.25 30.9375" fill="#7C4CFF" fill-opacity="0.341176"/><rect x="1453" y="1010" width="1165" height="134" stroke="#7C4CFF" stroke-width="10.3125" stroke-miterlimit="8" stroke-dasharray="41.25 30.9375" fill="#7C4CFF" fill-opacity="0.341176"/><rect x="1453" y="1008" width="1165" height="397" stroke="#7C4CFF" stroke-width="10.3125" stroke-miterlimit="8" fill="#7C4CFF" fill-opacity="0.341176"/></g></svg>