<svg width="3839" height="2172" xmlns="http://www.w3.org/2000/svg" xmlns:xlink="http://www.w3.org/1999/xlink" xml:space="preserve" overflow="hidden"><g transform="translate(-400 -51)"><rect x="1141" y="1014" width="1869" height="134" fill="#7C4CFF" fill-opacity="0.341176"/><rect x="1117" y="1272" width="1771" height="134" fill="#7C4CFF" fill-opacity="0.341176"/><rect x="1165" y="1727" width="1695" height="134" stroke="#7C4CFF" stroke-width="10.3125" stroke-miterlimit="8" fill="#7C4CFF" fill-opacity="0.341176"/><path d="M516.5 793 552.001 757.5 587.5 793 569.75 793 569.75 2074.5 534.25 2074.5 534.25 793Z" stroke="#7C4CFF" stroke-width="4.58333" stroke-miterlimit="8" fill="#7C4CFF" fill-rule="evenodd"/><path d="M3131.5 2023.5 3166.5 2058.5 3131.5 2093.5 3131.5 2076 542.5 2076 542.5 2041 3131.5 2041Z" stroke="#7C4CFF" stroke-width="4.58333" stroke-miterlimit="8" fill="#7C4CFF" fill-rule="evenodd"/><text fill="#7C4CFF" font-family="Calibri,Calibri_MSFontService,sans-serif" font-weight="400" font-size="83" transform="matrix(-1.83697e-16 -1 1 -1.83697e-16 502.041 1038)">Space</text><text fill="#7C4CFF" font-family="Calibri,Calibri_MSFontService,sans-serif" font-weight="400" font-size="83" transform="matrix(1 0 0 1 2951.77 2151)">Time</text><path d="M1449 1409 1449 2045.61" stroke="#A6A6A6" stroke-width="2.29167" stroke-miterlimit="8" stroke-dasharray="18.3333 6.875" fill="none" fill-rule="evenodd"/><text fill="#36464E" font-family="Roboto Mono,Roboto Mono_MSFontService,sans-serif" font-weight="400" font-size="50" transform="matrix(1 0 0 1 1407.63 2157)">t0</text><text font-family="Calibri,Calibri_MSFontService,sans-serif" font-weight="400" font-size="64" transform="matrix(1 0 0 1 833.803 1057)">L</text><text font-family="Calibri,Calibri_MSFontService,sans-serif" font-weight="400" font-size="64" transform="matrix(1 0 0 1 860.73 1057)">anguage </text><text font-family="Calibri,Calibri_MSFontService,sans-serif" font-weight="400" font-size="64" transform="matrix(1 0 0 1 786.824 1134)">community</text><text font-family="Calibri,Calibri_MSFontService,sans-serif" font-style="italic" font-weight="400" font-size="64" transform="matrix(1 0 0 1 608.998 1776)">Actual thing being </text><text font-family="Calibri,Calibri_MSFontService,sans-serif" font-style="italic" font-weight="400" font-size="64" transform="matrix(1 0 0 1 775.877 1853)">represented</text><text fill="#36464E" font-family="Roboto Mono,Roboto Mono_MSFontService,sans-serif" font-weight="400" font-size="50" transform="matrix(1 0 0 1 2587.44 2157)">t1</text><text font-family="Calibri,Calibri_MSFontService,sans-serif" font-style="italic" font-weight="400" font-size="64" transform="matrix(1 0 0 1 653.664 1313)">Instance of </text><text font-family="Calibri,Calibri_MSFontService,sans-serif" font-weight="400" font-size="64" transform="matrix(1 0 0 1 952.452 1313)">sign, </text><text font-family="Calibri,Calibri_MSFontService,sans-serif" font-weight="400" font-size="64" transform="matrix(1 0 0 1 715.837 1390)">an actual sign</text><path d="M1.91744-1.25505 197.382 297.371 193.547 299.881-1.91744 1.25505ZM204.459 287.261 208.015 317.801 181.45 302.322Z" fill="#7C4CFF" transform="matrix(-1 0 0 1 2032.52 1409.5)"/><text fill="#7C4CFF" font-family="Courier New,Courier New_MSFontService,sans-serif" font-weight="400" font-size="55" transform="matrix(1 0 0 1 1996.11 1594)">represents</text><path d="M2618 1406 2618 2042.61" stroke="#A6A6A6" stroke-width="2.29167" stroke-miterlimit="8" stroke-dasharray="18.3333 6.875" fill="none" fill-rule="evenodd"/><path d="M1477 302C1477 166.138 1654.97 56 1874.5 56 2094.03 56 2272 166.138 2272 302 2272 437.862 2094.03 548 1874.5 548 1654.97 548 1477 437.862 1477 302Z" stroke="#7C4CFF" stroke-width="10.3125" stroke-miterlimit="8" fill="#7C4CFF" fill-rule="evenodd" fill-opacity="0.341176"/><text fill="#595959" font-family="Courier New,Courier New_MSFontService,sans-serif" font-weight="700" font-size="55" transform="matrix(1 0 0 1 1634.95 181)">REPRESENTATION</text><text fill="#595959" font-family="Courier New,Courier New_MSFontService,sans-serif" font-weight="700" font-size="55" transform="matrix(1 0 0 1 1684.8 248)">_BY_PATTERN</text><path d="M1555 334.377 1588.61 334.377 1599 300 1609.39 334.377 1643 334.377 1615.81 355.623 1626.19 390 1599 368.754 1571.81 390 1582.19 355.623Z" stroke="#7C4CFF" stroke-width="10.3125" stroke-miterlimit="8" fill="#7C4CFF" fill-rule="evenodd" fill-opacity="0.341176"/><path d="M3219 340C3219 204.138 3396.97 93.9998 3616.5 93.9998 3836.03 93.9998 4014 204.138 4014 340 4014 475.862 3836.03 586 3616.5 586 3396.97 586 3219 475.862 3219 340Z" stroke="#7C4CFF" stroke-width="10.3125" stroke-miterlimit="8" fill="#7C4CFF" fill-rule="evenodd" fill-opacity="0.341176"/><text fill="#595959" font-family="Courier New,Courier New_MSFontService,sans-serif" font-weight="700" font-size="55" transform="matrix(1 0 0 1 3500.12 213)">PATTERN</text><path d="M3572 406.995 3605.61 406.995 3616 373 3626.39 406.995 3660 406.995 3632.81 428.005 3643.19 462 3616 440.99 3588.81 462 3599.19 428.005Z" stroke="#7C4CFF" stroke-width="10.3125" stroke-miterlimit="8" fill="#7C4CFF" fill-rule="evenodd" fill-opacity="0.341176"/><path d="M1.78962-1.43143 24.6925 27.2025 21.1132 30.0654-1.78962 1.43143ZM33.281 37.9403 56.1839 66.5742 52.6046 69.4371 29.7018 40.8031ZM64.7725 77.312 87.6753 105.946 84.0961 108.809 61.1932 80.1748ZM96.2639 116.684 119.167 145.318 115.587 148.18 92.6846 119.547ZM127.755 156.055 150.658 184.689 147.079 187.552 124.176 158.918ZM159.247 195.427 182.15 224.061 178.57 226.924 155.667 198.29ZM190.738 234.799 213.641 263.433 210.062 266.296 187.159 237.662ZM222.23 274.171 245.132 302.804 241.553 305.667 218.65 277.033ZM253.721 313.542 276.624 342.176 273.045 345.039 250.142 316.405ZM285.212 352.914 308.115 381.548 304.536 384.411 281.633 355.777ZM316.704 392.286 339.607 420.92 336.027 423.782 313.125 395.148ZM348.195 431.657 371.098 460.291 367.519 463.154 344.616 434.52ZM379.687 471.029 402.589 499.663 399.01 502.526 376.107 473.892ZM411.178 510.401 434.081 539.035 430.502 541.898 407.599 513.264ZM442.669 549.772 465.572 578.406 461.993 581.269 439.09 552.635ZM474.161 589.144 497.064 617.778 493.485 620.641 470.582 592.007ZM505.652 628.516 528.555 657.15 524.976 660.013 502.073 631.379ZM537.144 667.887 560.047 696.521 556.467 699.384 533.565 670.75ZM568.635 707.259 591.538 735.893 587.959 738.756 565.056 710.122ZM600.127 746.631 623.029 775.265 619.45 778.128 596.547 749.494ZM631.618 786.003 654.521 814.637 650.942 817.499 628.039 788.865ZM663.109 825.374 686.012 854.008 682.433 856.871 659.53 828.237ZM694.581 846.376 701.02 876.44 673.105 863.554Z" fill="#7C4CFF" transform="matrix(1 0 0 -1 2888.5 1338.94)"/><path d="M2030.42 1014.3 2010.39 983.586 2014.23 981.082 2034.26 1011.79ZM2002.88 972.069 1982.85 941.357 1986.69 938.853 2006.72 969.565ZM1975.34 929.839 1955.31 899.127 1959.15 896.623 1979.18 927.336ZM1947.8 887.61 1927.77 856.898 1931.61 854.394 1951.64 885.106ZM1920.26 845.381 1900.23 814.669 1904.07 812.165 1924.1 842.877ZM1892.72 803.151 1872.69 772.439 1876.52 769.935 1896.55 800.648ZM1865.17 760.922 1845.14 730.21 1848.98 727.706 1869.01 758.418ZM1837.63 718.693 1817.6 687.981 1821.44 685.477 1841.47 716.189ZM1810.09 676.464 1790.06 645.751 1793.9 643.247 1813.93 673.96ZM1782.55 634.234 1762.52 603.522 1766.36 601.018 1786.39 631.73ZM1755.01 592.005 1734.98 561.293 1738.82 558.789 1758.85 589.501ZM1727.47 549.776 1707.44 519.063 1711.28 516.56 1731.31 547.272ZM1699.93 507.546 1679.9 476.834 1683.73 474.33 1703.76 505.043ZM1672.38 465.317 1652.35 434.605 1656.19 432.101 1676.22 462.813ZM1644.84 423.088 1644.1 421.947 1647.94 419.443 1648.68 420.584ZM1637.01 432.045 1633.5 401.5 1660.04 417.023Z" fill="#7C4CFF"/><text fill="#7C4CFF" font-family="Courier New,Courier New_MSFontService,sans-serif" font-weight="400" font-size="55" transform="matrix(1 0 0 1 3440.49 728)">member_of</text><text fill="#7C4CFF" font-family="Courier New,Courier New_MSFontService,sans-serif" font-weight="400" font-size="55" transform="matrix(1 0 0 1 3739.55 728)">_</text><text fill="#7C4CFF" font-family="Courier New,Courier New_MSFontService,sans-serif" font-weight="400" font-size="55" transform="matrix(0.999042 0.0437696 -0.0437696 0.999042 2404.37 317)">consists_of_by_class</text><text fill="#7C4CFF" font-family="Courier New,Courier New_MSFontService,sans-serif" font-weight="400" font-size="55" transform="matrix(1 0 0 1 1876.13 678)">member_of</text><text fill="#7C4CFF" font-family="Courier New,Courier New_MSFontService,sans-serif" font-weight="400" font-size="55" transform="matrix(1 0 0 1 2175.19 678)">_</text><path d="M1599.62 298.212 1617.93 299.201 1617.68 303.778 1599.38 302.788ZM1631.66 299.944 1649.97 300.933 1649.72 305.51 1631.41 304.52ZM1663.7 301.676 1682 302.666 1681.76 307.242 1663.45 306.252ZM1695.73 303.408 1714.04 304.398 1713.79 308.974 1695.49 307.984ZM1727.77 305.14 1746.08 306.13 1745.83 310.706 1727.52 309.717ZM1759.81 306.872 1778.11 307.862 1777.87 312.438 1759.56 311.449ZM1791.84 308.604 1810.15 309.594 1809.9 314.17 1791.6 313.181ZM1823.88 310.336 1842.19 311.326 1841.94 315.903 1823.63 314.913ZM1855.92 312.068 1874.22 313.058 1873.98 317.635 1855.67 316.645ZM1887.95 313.8 1906.26 314.79 1906.01 319.367 1887.71 318.377ZM1919.99 315.532 1938.3 316.522 1938.05 321.099 1919.74 320.109ZM1952.03 317.264 1970.33 318.254 1970.08 322.831 1951.78 321.841ZM1984.06 318.997 2002.37 319.986 2002.12 324.563 1983.81 323.573ZM2016.1 320.729 2034.41 321.718 2034.16 326.295 2015.85 325.305ZM2048.14 322.461 2066.44 323.45 2066.19 328.027 2047.89 327.037ZM2080.17 324.193 2098.48 325.182 2098.23 329.759 2079.92 328.769ZM2112.21 325.925 2130.51 326.915 2130.27 331.491 2111.96 330.501ZM2144.24 327.657 2162.55 328.647 2162.3 333.223 2144 332.234ZM2176.28 329.389 2194.59 330.379 2194.34 334.955 2176.03 333.966ZM2208.32 331.121 2226.62 332.111 2226.38 336.687 2208.07 335.698ZM2240.35 332.853 2258.66 333.843 2258.41 338.42 2240.11 337.43ZM2272.39 334.585 2290.7 335.575 2290.45 340.152 2272.14 339.162ZM2304.43 336.317 2322.73 337.307 2322.49 341.884 2304.18 340.894ZM2336.46 338.049 2354.77 339.039 2354.52 343.616 2336.22 342.626ZM2368.5 339.781 2386.81 340.771 2386.56 345.348 2368.25 344.358ZM2400.54 341.513 2418.84 342.503 2418.6 347.08 2400.29 346.09ZM2432.57 343.246 2450.88 344.235 2450.63 348.812 2432.33 347.822ZM2464.61 344.978 2482.92 345.967 2482.67 350.544 2464.36 349.554ZM2496.65 346.71 2514.95 347.699 2514.71 352.276 2496.4 351.286ZM2528.68 348.442 2546.99 349.432 2546.74 354.008 2528.44 353.018ZM2560.72 350.174 2579.03 351.164 2578.78 355.74 2560.47 354.751ZM2592.76 351.906 2611.06 352.896 2610.82 357.472 2592.51 356.483ZM2624.79 353.638 2643.1 354.628 2642.85 359.204 2624.55 358.215ZM2656.83 355.37 2675.14 356.36 2674.89 360.936 2656.58 359.947ZM2688.87 357.102 2707.17 358.092 2706.93 362.669 2688.62 361.679ZM2720.9 358.834 2739.21 359.824 2738.96 364.401 2720.66 363.411ZM2752.94 360.566 2771.25 361.556 2771 366.133 2752.69 365.143ZM2784.98 362.298 2803.28 363.288 2803.04 367.865 2784.73 366.875ZM2817.01 364.03 2835.32 365.02 2835.07 369.597 2816.77 368.607ZM2849.05 365.763 2867.36 366.752 2867.11 371.329 2848.8 370.339ZM2881.09 367.495 2899.39 368.484 2899.15 373.061 2880.84 372.071ZM2913.12 369.227 2931.43 370.216 2931.18 374.793 2912.88 373.803ZM2945.16 370.959 2963.47 371.949 2963.22 376.525 2944.91 375.535ZM2977.2 372.691 2995.5 373.681 2995.25 378.257 2976.95 377.267ZM3009.23 374.423 3027.54 375.413 3027.29 379.989 3008.98 379ZM3041.27 376.155 3059.58 377.145 3059.33 381.721 3041.02 380.732ZM3073.31 377.887 3091.61 378.877 3091.36 383.453 3073.06 382.464ZM3105.34 379.619 3123.65 380.609 3123.4 385.186 3105.09 384.196ZM3137.38 381.351 3155.69 382.341 3155.44 386.918 3137.13 385.928ZM3169.42 383.083 3187.72 384.073 3187.47 388.65 3169.17 387.66ZM3201.45 384.815 3219.76 385.805 3219.51 390.382 3201.2 389.392ZM3233.49 386.547 3251.79 387.537 3251.55 392.114 3233.24 391.124ZM3265.52 388.28 3283.83 389.269 3283.58 393.846 3265.28 392.856ZM3297.56 390.012 3315.87 391.001 3315.62 395.578 3297.31 394.588ZM3329.6 391.744 3347.9 392.733 3347.66 397.31 3329.35 396.32ZM3361.63 393.476 3379.94 394.465 3379.69 399.042 3361.39 398.052ZM3393.67 395.208 3411.98 396.198 3411.73 400.774 3393.42 399.784ZM3425.71 396.94 3444.01 397.93 3443.77 402.506 3425.46 401.517ZM3457.74 398.672 3476.05 399.662 3475.8 404.238 3457.5 403.249ZM3489.78 400.404 3508.09 401.394 3507.84 405.97 3489.53 404.981ZM3521.82 402.136 3540.12 403.126 3539.88 407.703 3521.57 406.713ZM3545.54 391.944 3572.26 407.158 3544.06 419.404Z" fill="#7C4CFF"/><path d="M3439 1338.5C3439 1202.91 3616.97 1093 3836.5 1093 4056.03 1093 4234 1202.91 4234 1338.5 4234 1474.09 4056.03 1584 3836.5 1584 3616.97 1584 3439 1474.09 3439 1338.5Z" stroke="#7C4CFF" stroke-width="10.3125" stroke-miterlimit="8" fill="#7C4CFF" fill-rule="evenodd" fill-opacity="0.341176"/><text fill="#595959" font-family="Courier New,Courier New_MSFontService,sans-serif" font-weight="700" font-size="55" transform="matrix(1 0 0 1 3715.03 1415)">KIND_OF_</text><text fill="#595959" font-family="Courier New,Courier New_MSFontService,sans-serif" font-weight="700" font-size="55" transform="matrix(1 0 0 1 3598.73 1482)">PHYSICAL_OBJECT</text><path d="M3700 1225.99 3733.61 1226 3744 1192 3754.39 1226 3788 1225.99 3760.81 1247.01 3771.19 1281 3744 1259.99 3716.81 1281 3727.19 1247.01Z" stroke="#7C4CFF" stroke-width="10.3125" stroke-miterlimit="8" fill="#7C4CFF" fill-rule="evenodd" fill-opacity="0.341176"/><path d="M1.17802-1.96571 32.6294 16.8825 30.2733 20.814-1.17802 1.96571ZM44.4236 23.9506 75.875 42.7989 73.519 46.7303 42.0676 27.882ZM87.6693 49.867 119.121 68.7152 116.765 72.6466 85.3132 53.7984ZM130.915 75.7833 162.366 94.6315 160.01 98.563 128.559 79.7147ZM174.161 101.7 205.612 120.548 203.256 124.479 171.804 105.631ZM217.406 127.616 248.857 146.464 246.501 150.396 215.05 131.547ZM260.652 153.532 292.103 172.381 289.747 176.312 258.296 157.464ZM303.897 179.449 335.349 198.297 332.993 202.228 301.541 183.38ZM347.143 205.365 378.594 224.213 376.238 228.145 344.787 209.296ZM390.389 231.281 421.84 250.13 419.484 254.061 388.033 235.213ZM433.634 257.198 465.086 276.046 462.73 279.977 431.278 261.129ZM476.88 283.114 508.331 301.962 505.975 305.894 474.524 287.045ZM520.126 309.03 551.577 327.879 549.221 331.81 517.77 312.962ZM563.371 334.947 594.823 353.795 592.467 357.726 561.015 338.878ZM606.617 360.863 638.068 379.711 635.712 383.643 604.261 364.794ZM649.862 386.779 681.314 405.628 678.958 409.559 647.506 390.711ZM693.108 412.696 724.559 431.544 722.203 435.475 690.752 416.627ZM736.354 438.612 767.805 457.46 765.449 461.392 733.998 442.543ZM779.599 464.528 811.051 483.377 808.695 487.308 777.243 468.46ZM822.845 490.445 837.823 499.421 835.467 503.352 820.489 494.376ZM839.783 487.237 856.304 513.168 825.647 510.826Z" fill="#7C4CFF" transform="matrix(1 0 0 -1 2860.5 1794.67)"/><text fill="#7C4CFF" font-family="Courier New,Courier New_MSFontService,sans-serif" font-weight="400" font-size="55" transform="matrix(1 0 0 1 3135.5 1677)">member_of_kind</text><path d="M1644.46 332.42 1661.1 340.115 1659.18 344.275 1642.54 336.58ZM1673.58 345.887 1690.22 353.582 1688.3 357.742 1671.66 350.047ZM1702.7 359.353 1719.34 367.049 1717.42 371.209 1700.78 363.513ZM1731.82 372.82 1748.46 380.515 1746.54 384.675 1729.9 376.98ZM1760.94 386.287 1777.58 393.982 1775.66 398.142 1759.02 390.447ZM1790.06 399.754 1806.7 407.449 1804.78 411.609 1788.14 403.914ZM1819.18 413.22 1835.82 420.916 1833.9 425.076 1817.26 417.38ZM1848.3 426.687 1864.94 434.382 1863.02 438.542 1846.38 430.847ZM1877.42 440.154 1894.06 447.849 1892.14 452.009 1875.5 444.314ZM1906.54 453.621 1923.18 461.316 1921.26 465.476 1904.62 457.781ZM1935.66 467.087 1952.3 474.783 1950.38 478.943 1933.74 471.247ZM1964.78 480.554 1981.42 488.249 1979.5 492.409 1962.86 484.714ZM1993.9 494.021 2010.54 501.716 2008.62 505.876 1991.98 498.181ZM2023.02 507.488 2039.66 515.183 2037.74 519.343 2021.1 511.648ZM2052.15 520.954 2068.78 528.65 2066.86 532.81 2050.22 525.114ZM2081.27 534.421 2097.91 542.116 2095.98 546.276 2079.34 538.581ZM2110.39 547.888 2127.03 555.583 2125.1 559.743 2108.46 552.048ZM2139.51 561.354 2156.15 569.05 2154.22 573.21 2137.58 565.515ZM2168.63 574.821 2185.27 582.517 2183.34 586.677 2166.7 578.981ZM2197.75 588.288 2214.39 595.983 2212.46 600.143 2195.82 592.448ZM2226.87 601.755 2243.51 609.45 2241.58 613.61 2224.94 605.915ZM2255.99 615.221 2272.63 622.917 2270.7 627.077 2254.06 619.382ZM2285.11 628.688 2301.75 636.383 2299.82 640.544 2283.18 632.848ZM2314.23 642.155 2330.87 649.85 2328.94 654.01 2312.3 646.315ZM2343.35 655.622 2359.99 663.317 2358.06 667.477 2341.42 659.782ZM2372.47 669.088 2389.11 676.784 2387.18 680.944 2370.54 673.249ZM2401.59 682.555 2418.23 690.25 2416.3 694.411 2399.66 686.715ZM2430.71 696.022 2447.35 703.717 2445.42 707.877 2428.78 700.182ZM2459.83 709.489 2476.47 717.184 2474.54 721.344 2457.9 713.649ZM2488.95 722.955 2505.59 730.651 2503.66 734.811 2487.02 727.115ZM2518.07 736.422 2534.71 744.117 2532.78 748.277 2516.14 740.582ZM2547.19 749.889 2563.83 757.584 2561.91 761.744 2545.26 754.049ZM2576.31 763.356 2592.95 771.051 2591.03 775.211 2574.39 767.516ZM2605.43 776.822 2622.07 784.518 2620.15 788.678 2603.51 780.982ZM2634.55 790.289 2651.19 797.984 2649.27 802.144 2632.63 794.449ZM2663.67 803.756 2680.31 811.451 2678.39 815.611 2661.75 807.916ZM2692.79 817.223 2709.43 824.918 2707.51 829.078 2690.87 821.383ZM2721.91 830.689 2738.55 838.385 2736.63 842.545 2719.99 834.849ZM2751.03 844.156 2767.67 851.851 2765.75 856.011 2749.11 848.316ZM2780.15 857.623 2796.79 865.318 2794.87 869.478 2778.23 861.783ZM2809.27 871.09 2825.91 878.785 2823.99 882.945 2807.35 875.25ZM2838.39 884.556 2855.03 892.252 2853.11 896.412 2836.47 888.716ZM2867.51 898.023 2884.15 905.718 2882.23 909.878 2865.59 902.183ZM2896.63 911.49 2913.27 919.185 2911.35 923.345 2894.71 915.65ZM2925.75 924.957 2942.39 932.652 2940.47 936.812 2923.83 929.117ZM2954.87 938.423 2971.51 946.119 2969.59 950.279 2952.95 942.583ZM2983.99 951.89 3000.63 959.585 2998.71 963.745 2982.07 956.05ZM3013.11 965.357 3029.75 973.052 3027.83 977.212 3011.19 969.517ZM3042.23 978.823 3058.87 986.519 3056.95 990.679 3040.31 982.984ZM3071.35 992.29 3087.99 999.985 3086.07 1004.15 3069.43 996.45ZM3100.47 1005.76 3117.11 1013.45 3115.19 1017.61 3098.55 1009.92ZM3129.59 1019.22 3146.23 1026.92 3144.31 1031.08 3127.67 1023.38ZM3158.71 1032.69 3175.35 1040.39 3173.43 1044.55 3156.79 1036.85ZM3187.83 1046.16 3204.47 1053.85 3202.55 1058.01 3185.91 1050.32ZM3216.95 1059.62 3233.59 1067.32 3231.67 1071.48 3215.03 1063.78ZM3246.07 1073.09 3262.71 1080.79 3260.79 1084.95 3244.15 1077.25ZM3275.19 1086.56 3291.83 1094.25 3289.91 1098.41 3273.27 1090.72ZM3304.31 1100.02 3320.95 1107.72 3319.03 1111.88 3302.39 1104.18ZM3333.43 1113.49 3350.07 1121.19 3348.15 1125.35 3331.51 1117.65ZM3362.55 1126.96 3379.2 1134.65 3377.27 1138.81 3360.63 1131.12ZM3391.68 1140.42 3408.32 1148.12 3406.39 1152.28 3389.75 1144.58ZM3420.8 1153.89 3437.44 1161.59 3435.51 1165.75 3418.87 1158.05ZM3449.92 1167.36 3466.56 1175.05 3464.63 1179.21 3447.99 1171.52ZM3479.04 1180.82 3495.68 1188.52 3493.75 1192.68 3477.11 1184.98ZM3508.16 1194.29 3524.8 1201.99 3522.87 1206.15 3506.23 1198.45ZM3537.28 1207.76 3553.92 1215.45 3551.99 1219.61 3535.35 1211.92ZM3566.4 1221.22 3568.84 1222.35 3566.91 1226.51 3564.47 1225.38ZM3569.48 1210.03 3588.67 1234.05 3557.93 1234.99Z" fill="#7C4CFF"/><text fill="#7C4CFF" font-family="Courier New,Courier New_MSFontService,sans-serif" font-weight="400" font-size="55" transform="matrix(1 0 0 1 2449.71 663)">represented</text><path d="M3588 1234C3588 1169.93 3689.41 1118 3814.5 1118 3939.59 1118 4041 1169.93 4041 1234 4041 1298.06 3939.59 1350 3814.5 1350 3689.41 1350 3588 1298.06 3588 1234Z" stroke="#7C4CFF" stroke-width="10.3125" stroke-miterlimit="8" fill="#7C4CFF" fill-rule="evenodd" fill-opacity="0.341176"/><text font-family="Calibri,Calibri_MSFontService,sans-serif" font-weight="400" font-size="83" transform="matrix(1 0 0 1 1769.92 1355)">state of </text><text font-family="Calibri,Calibri_MSFontService,sans-serif" font-weight="400" font-size="83" transform="matrix(1 0 0 1 2040.78 1355)">this sign</text><text font-family="Calibri,Calibri_MSFontService,sans-serif" font-weight="400" font-size="73" transform="matrix(1 0 0 1 1529.43 1108)">r</text><text font-family="Calibri,Calibri_MSFontService,sans-serif" font-weight="400" font-size="73" transform="matrix(1 0 0 1 1554.25 1108)">ecognizing_language_community</text><rect x="1449" y="1267" width="1165" height="135" stroke="#7C4CFF" stroke-width="10.3125" stroke-miterlimit="8" stroke-dasharray="41.25 30.9375" fill="#7C4CFF" fill-opacity="0.341176"/><rect x="1449" y="1010" width="1165" height="134" stroke="#7C4CFF" stroke-width="10.3125" stroke-miterlimit="8" stroke-dasharray="41.25 30.9375" fill="#7C4CFF" fill-opacity="0.341176"/><rect x="1449" y="1008" width="1166" height="397" stroke="#7C4CFF" stroke-width="10.3125" stroke-miterlimit="8" fill="#7C4CFF" fill-opacity="0.341176"/></g></svg>