<svg width="2771" height="1519" xmlns="http://www.w3.org/2000/svg" xmlns:xlink="http://www.w3.org/1999/xlink" xml:space="preserve" overflow="hidden"><g transform="translate(-637 -466)"><rect x="1209" y="1031" width="1947" height="225" fill="#7C4CFF" fill-opacity="0.341176"/><rect x="1274" y="659" width="1578" height="248" fill="#7C4CFF" fill-opacity="0.341176"/><rect x="1439" y="658" width="1137" height="598" stroke="#63DD16" stroke-width="10.3125" stroke-miterlimit="8" stroke-dasharray="82.5 30.9375 10.3125 30.9375" fill="#63DD16" fill-opacity="0.341176"/><path d="M753.5 551.501 788.501 516.5 823.5 551.501 806 551.501 806 1833.5 771 1833.5 771 551.501Z" stroke="#7C4CFF" stroke-width="4.58333" stroke-miterlimit="8" fill="#7C4CFF" fill-rule="evenodd"/><path d="M3368.5 1782.5 3403.5 1817.5 3368.5 1852.5 3368.5 1835 779.5 1835 779.5 1800 3368.5 1800Z" stroke="#7C4CFF" stroke-width="4.58333" stroke-miterlimit="8" fill="#7C4CFF" fill-rule="evenodd"/><text fill="#7C4CFF" font-family="Calibri,Calibri_MSFontService,sans-serif" font-weight="400" font-size="83" transform="matrix(-1.83697e-16 -1 1 -1.83697e-16 738.926 798)">Space</text><text fill="#7C4CFF" font-family="Calibri,Calibri_MSFontService,sans-serif" font-weight="400" font-size="83" transform="matrix(1 0 0 1 3188.65 1911)">Time</text><path d="M1439.5 645.5C1439.5 626.17 1442.11 610.5 1445.33 610.5L2002.17 610.501C2005.39 610.501 2008 594.83 2008 575.5 2008 594.83 2010.61 610.501 2013.83 610.501L2570.67 610.501C2573.89 610.501 2576.5 626.171 2576.5 645.501" stroke="#63DD16" stroke-width="4.58333" stroke-miterlimit="8" fill="none" fill-rule="evenodd"/><text fill="#63DD16" font-family="Calibri,Calibri_MSFontService,sans-serif" font-weight="400" font-size="73" transform="matrix(1 0 0 1 1812.49 557)">LM</text><text fill="#63DD16" font-family="Calibri,Calibri_MSFontService,sans-serif" font-weight="400" font-size="73" transform="matrix(1 0 0 1 1905.88 557)">-</text><text fill="#63DD16" font-family="Calibri,Calibri_MSFontService,sans-serif" font-weight="400" font-size="73" transform="matrix(1 0 0 1 1928.22 557)">5 System</text><path d="M2041 1702 2041 1801.2" stroke="#A6A6A6" stroke-width="2.29167" stroke-miterlimit="8" stroke-dasharray="18.3333 6.875" fill="none" fill-rule="evenodd"/><text fill="#36464E" font-family="Roboto Mono,Roboto Mono_MSFontService,sans-serif" font-weight="400" font-size="50" transform="matrix(0.851211 -0.524824 0.524824 0.851211 1811.96 1790)">1969</text><text fill="#36464E" font-family="Roboto Mono,Roboto Mono_MSFontService,sans-serif" font-weight="400" font-size="50" transform="matrix(0.851211 -0.524824 0.524824 0.851211 1915.34 1726)">-</text><text fill="#36464E" font-family="Roboto Mono,Roboto Mono_MSFontService,sans-serif" font-weight="400" font-size="50" transform="matrix(0.851211 -0.524824 0.524824 0.851211 1941.19 1710)">07</text><text fill="#36464E" font-family="Roboto Mono,Roboto Mono_MSFontService,sans-serif" font-weight="400" font-size="50" transform="matrix(0.851211 -0.524824 0.524824 0.851211 1992.88 1678)">-</text><text fill="#36464E" font-family="Roboto Mono,Roboto Mono_MSFontService,sans-serif" font-weight="400" font-size="50" transform="matrix(0.851211 -0.524824 0.524824 0.851211 2018.73 1662)">21T17:54:00</text><text font-family="Calibri,Calibri_MSFontService,sans-serif" font-style="italic" font-weight="400" font-size="73" transform="matrix(1 0 0 1 1525.91 805)">installed state of Ascent Module</text><path d="M2576 1256 2576.26 1803.85" stroke="#A6A6A6" stroke-width="2.29167" stroke-miterlimit="8" stroke-dasharray="18.3333 6.875" fill="none" fill-rule="evenodd"/><text font-family="Calibri,Calibri_MSFontService,sans-serif" font-style="italic" font-weight="400" font-size="73" transform="matrix(1 0 0 1 1506.82 1166)">installed state of Descent Module</text><text fill="#07B9D5" font-family="Calibri,Calibri_MSFontService,sans-serif" font-style="italic" font-weight="400" font-size="73" transform="matrix(1 0 0 1 926.638 808)">1969</text><text fill="#07B9D5" font-family="Calibri,Calibri_MSFontService,sans-serif" font-style="italic" font-weight="400" font-size="73" transform="matrix(1 0 0 1 1075.6 808)">-</text><text fill="#07B9D5" font-family="Calibri,Calibri_MSFontService,sans-serif" font-style="italic" font-weight="400" font-size="73" transform="matrix(1 0 0 1 1097.94 808)">059C</text><text fill="#07B9D5" font-family="Calibri,Calibri_MSFontService,sans-serif" font-style="italic" font-weight="400" font-size="73" transform="matrix(1 0 0 1 861.095 1177)">1969</text><text fill="#07B9D5" font-family="Calibri,Calibri_MSFontService,sans-serif" font-style="italic" font-weight="400" font-size="73" transform="matrix(1 0 0 1 1010.05 1177)">-</text><text fill="#07B9D5" font-family="Calibri,Calibri_MSFontService,sans-serif" font-style="italic" font-weight="400" font-size="73" transform="matrix(1 0 0 1 1032.4 1177)">059D</text><path d="M2005.5 1809.24 2033.38 1809.24 2042 1782.5 2050.62 1809.24 2078.5 1809.24 2055.94 1825.76 2064.56 1852.5 2042 1835.97 2019.44 1852.5 2028.06 1825.76Z" stroke="#07B9D5" stroke-width="4.58333" stroke-miterlimit="8" fill="#07B9D5" fill-rule="evenodd"/><text font-family="Courier New,Courier New_MSFontService,sans-serif" font-weight="400" font-size="37" transform="matrix(1 0 0 1 1944.19 1907)">Apollo</text><text font-family="Courier New,Courier New_MSFontService,sans-serif" font-weight="400" font-size="37" transform="matrix(1 0 0 1 2074.81 1907)">-</text><text font-family="Courier New,Courier New_MSFontService,sans-serif" font-weight="400" font-size="37" transform="matrix(1 0 0 1 2096.58 1907)">11 </text><text font-family="Courier New,Courier New_MSFontService,sans-serif" font-weight="400" font-size="37" transform="matrix(1 0 0 1 1976.84 1951)">Launch</text><text fill="#36464E" font-family="Roboto Mono,Roboto Mono_MSFontService,sans-serif" font-weight="400" font-size="50" transform="matrix(0.851211 -0.524824 0.524824 0.851211 2347.05 1792)">1969</text><text fill="#36464E" font-family="Roboto Mono,Roboto Mono_MSFontService,sans-serif" font-weight="400" font-size="50" transform="matrix(0.851211 -0.524824 0.524824 0.851211 2450.44 1729)">-</text><text fill="#36464E" font-family="Roboto Mono,Roboto Mono_MSFontService,sans-serif" font-weight="400" font-size="50" transform="matrix(0.851211 -0.524824 0.524824 0.851211 2476.29 1713)">07</text><text fill="#36464E" font-family="Roboto Mono,Roboto Mono_MSFontService,sans-serif" font-weight="400" font-size="50" transform="matrix(0.851211 -0.524824 0.524824 0.851211 2527.98 1681)">-</text><text fill="#36464E" font-family="Roboto Mono,Roboto Mono_MSFontService,sans-serif" font-weight="400" font-size="50" transform="matrix(0.851211 -0.524824 0.524824 0.851211 2553.83 1665)">21T</text><text fill="#36464E" font-family="Roboto Mono,Roboto Mono_MSFontService,sans-serif" font-weight="400" font-size="50" transform="matrix(0.851211 -0.524824 0.524824 0.851211 2631.37 1617)">17:54</text><text fill="#36464E" font-family="Roboto Mono,Roboto Mono_MSFontService,sans-serif" font-weight="400" font-size="50" transform="matrix(0.851211 -0.524824 0.524824 0.851211 2760.6 1537)">:00</text><rect x="1439" y="1032" width="1137" height="224" stroke="#63DD16" stroke-width="10.3125" stroke-miterlimit="8" stroke-dasharray="41.25 30.9375" fill="#63DD16" fill-opacity="0.341176"/><rect x="1439" y="659" width="1138" height="249" stroke="#63DD16" stroke-width="10.3125" stroke-miterlimit="8" stroke-dasharray="41.25 30.9375" fill="#63DD16" fill-opacity="0.341176"/></g></svg>