<svg width="3003" height="1475" xmlns="http://www.w3.org/2000/svg" xmlns:xlink="http://www.w3.org/1999/xlink" xml:space="preserve" overflow="hidden"><g transform="translate(-637 -508)"><text font-family="Calibri,Calibri_MSFontService,sans-serif" font-weight="400" font-size="83" transform="matrix(1 0 0 1 2006.81 1119)">state of this sign</text><text font-family="Calibri,Calibri_MSFontService,sans-serif" font-weight="400" font-size="73" transform="matrix(1 0 0 1 1766.31 872)">recognizing_language_community</text><rect x="1686" y="1032" width="1165" height="134" stroke="#7C4CFF" stroke-width="10.3125" stroke-miterlimit="8" stroke-dasharray="41.25 30.9375" fill="#7C4CFF" fill-opacity="0.341176"/><rect x="1686" y="774" width="1165" height="134" stroke="#7C4CFF" stroke-width="10.3125" stroke-miterlimit="8" stroke-dasharray="41.25 30.9375" fill="#7C4CFF" fill-opacity="0.341176"/><rect x="1686" y="772" width="1165" height="397" stroke="#7C4CFF" stroke-width="10.3125" stroke-miterlimit="8" fill="#7C4CFF" fill-opacity="0.341176"/><rect x="1354" y="1031" width="1771" height="134" fill="#7C4CFF" fill-opacity="0.341176"/><rect x="1402" y="1487" width="1695" height="134" stroke="#7C4CFF" stroke-width="10.3125" stroke-miterlimit="8" fill="#7C4CFF" fill-opacity="0.341176"/><path d="M753.5 551.501 788.501 516.5 823.5 551.501 806 551.501 806 1833.5 771 1833.5 771 551.501Z" stroke="#7C4CFF" stroke-width="4.58333" stroke-miterlimit="8" fill="#7C4CFF" fill-rule="evenodd"/><path d="M3368.5 1782.5 3403.5 1817.5 3368.5 1852.5 3368.5 1835 779.5 1835 779.5 1800 3368.5 1800Z" stroke="#7C4CFF" stroke-width="4.58333" stroke-miterlimit="8" fill="#7C4CFF" fill-rule="evenodd"/><text fill="#7C4CFF" font-family="Calibri,Calibri_MSFontService,sans-serif" font-weight="400" font-size="83" transform="matrix(-1.83697e-16 -1 1 -1.83697e-16 738.926 798)">Space</text><text fill="#7C4CFF" font-family="Calibri,Calibri_MSFontService,sans-serif" font-weight="400" font-size="83" transform="matrix(1 0 0 1 3188.65 1911)">Time</text><path d="M1682.5 704.5C1682.5 685.17 1685.11 669.5 1688.33 669.5L2261.17 669.5C2264.39 669.5 2267 653.83 2267 634.5 2267 653.83 2269.61 669.5 2272.83 669.5L2845.67 669.5C2848.89 669.5 2851.5 685.17 2851.5 704.5" stroke="#7C4CFF" stroke-width="4.58333" stroke-miterlimit="8" fill="none" fill-rule="evenodd"/><text font-family="Calibri,Calibri_MSFontService,sans-serif" font-weight="400" font-size="73" transform="matrix(1 0 0 1 929.467 600)">Period during which a particular community use a particular sign to represent </text><text font-family="Calibri,Calibri_MSFontService,sans-serif" font-weight="400" font-size="73" transform="matrix(1 0 0 1 3245.52 600)">some thing</text><text font-family="Calibri,Calibri_MSFontService,sans-serif" font-weight="400" font-size="73" transform="matrix(1 0 0 1 3577.24 600)">.</text><path d="M1686 1168 1686 1804.61" stroke="#A6A6A6" stroke-width="2.29167" stroke-miterlimit="8" stroke-dasharray="18.3333 6.875" fill="none" fill-rule="evenodd"/><text fill="#36464E" font-family="Roboto Mono,Roboto Mono_MSFontService,sans-serif" font-weight="400" font-size="50" transform="matrix(1 0 0 1 1644.51 1917)">t0</text><text font-family="Calibri,Calibri_MSFontService,sans-serif" font-style="italic" font-weight="400" font-size="64" transform="matrix(1 0 0 1 845.883 1536)">Actual thing being </text><text font-family="Calibri,Calibri_MSFontService,sans-serif" font-style="italic" font-weight="400" font-size="64" transform="matrix(1 0 0 1 1012.76 1613)">represented</text><text fill="#36464E" font-family="Roboto Mono,Roboto Mono_MSFontService,sans-serif" font-weight="400" font-size="50" transform="matrix(1 0 0 1 2824.32 1917)">t1</text><text font-family="Calibri,Calibri_MSFontService,sans-serif" font-style="italic" font-weight="400" font-size="64" transform="matrix(1 0 0 1 890.549 1072)">Instance of </text><text font-family="Calibri,Calibri_MSFontService,sans-serif" font-weight="400" font-size="64" transform="matrix(1 0 0 1 1189.34 1072)">sign, </text><text font-family="Calibri,Calibri_MSFontService,sans-serif" font-weight="400" font-size="64" transform="matrix(1 0 0 1 952.722 1149)">an actual sign</text><path d="M1.91744-1.25505 197.382 297.371 193.547 299.881-1.91744 1.25505ZM204.459 287.261 208.015 317.801 181.45 302.322Z" fill="#7C4CFF" transform="matrix(-1 0 0 1 2269.52 1169.5)"/><text fill="#7C4CFF" font-family="Courier New,Courier New_MSFontService,sans-serif" font-weight="400" font-size="55" transform="matrix(1 0 0 1 2233 1354)">represents</text><path d="M2855 1166 2855 1802.61" stroke="#A6A6A6" stroke-width="2.29167" stroke-miterlimit="8" stroke-dasharray="18.3333 6.875" fill="none" fill-rule="evenodd"/></g></svg>