<svg width="4136" height="1977" xmlns="http://www.w3.org/2000/svg" xmlns:xlink="http://www.w3.org/1999/xlink" xml:space="preserve" overflow="hidden"><g transform="translate(-91 -326)"><path d="M3.39886-0.513964 7.51057 26.6769 0.712852 27.7048-3.39886 0.513964ZM10.5944 47.0701 14.7061 74.261 7.90835 75.2889 3.79664 48.098ZM17.7898 94.6541 21.9016 121.845 15.1038 122.873 10.9921 95.682ZM24.9853 142.238 29.0971 169.429 22.2993 170.457 18.1876 143.266ZM32.1808 189.822 36.2925 217.013 29.4948 218.041 25.3831 190.85ZM39.3763 237.406 43.488 264.597 36.6903 265.625 32.5786 238.434ZM46.5718 284.99 50.6835 312.181 43.8858 313.209 39.7741 286.018ZM53.7673 332.574 57.879 359.765 51.0813 360.793 46.9696 333.602ZM60.9628 380.158 65.0745 407.349 58.2768 408.377 54.1651 381.186ZM68.1583 427.742 72.27 454.933 65.4723 455.961 61.3606 428.77ZM75.3538 475.326 79.4655 502.517 72.6678 503.545 68.5561 476.354ZM82.5493 522.911 86.661 550.101 79.8633 551.129 75.7516 523.938ZM89.7448 570.495 93.8565 597.685 87.0588 598.713 82.9471 571.523ZM96.9403 618.079 101.052 645.269 94.2543 646.297 90.1426 619.107ZM104.136 665.663 108.248 692.854 101.45 693.881 97.3381 666.691ZM111.331 713.247 115.443 740.438 108.645 741.465 104.534 714.275ZM118.527 760.831 122.638 788.022 115.841 789.049 111.729 761.859ZM125.722 808.415 129.834 835.606 123.036 836.634 118.925 809.443ZM132.918 855.999 137.029 883.19 130.232 884.218 126.12 857.027ZM140.113 903.583 144.225 930.774 137.427 931.802 133.316 904.611ZM147.309 951.167 151.42 978.358 144.623 979.386 140.511 952.195ZM154.504 998.751 158.616 1025.94 151.818 1026.97 147.707 999.779ZM161.7 1046.33 165.811 1073.53 159.014 1074.55 154.902 1047.36ZM168.895 1093.92 173.007 1121.11 166.209 1122.14 162.098 1094.95ZM176.091 1141.5 180.202 1168.69 173.405 1169.72 169.293 1142.53ZM183.286 1189.09 187.398 1216.28 180.6 1217.31 176.489 1190.11ZM190.482 1236.67 194.593 1263.86 187.796 1264.89 183.684 1237.7ZM197.677 1284.26 201.789 1311.45 194.991 1312.47 190.88 1285.28ZM204.873 1331.84 208.984 1359.03 202.187 1360.06 198.075 1332.87ZM222.927 1347.07 209.002 1382.14 185.332 1352.76C184.141 1351.28 184.374 1349.12 185.853 1347.92 187.331 1346.73 189.495 1346.97 190.686 1348.44L210.659 1373.24 204.788 1374.13 216.537 1344.54C217.238 1342.77 219.236 1341.91 221.001 1342.61 222.765 1343.31 223.628 1345.31 222.927 1347.07Z" fill="#7C4CFF" transform="matrix(-1 0 0 1 1601.5 628.5)"/><rect x="1554" y="334" width="1136" height="294" stroke="#7C4CFF" stroke-width="10.3125" stroke-miterlimit="8" fill="none"/><text font-family="Calibri,Calibri_MSFontService,sans-serif" font-style="italic" font-weight="400" font-size="73" transform="matrix(1 0 0 1 1710.86 418)">representation_by_pattern</text><text font-family="Calibri,Calibri_MSFontService,sans-serif" font-style="italic" font-weight="400" font-size="73" transform="matrix(1 0 0 1 2512.89 418)">:</text><text font-family="Calibri,Calibri_MSFontService,sans-serif" font-weight="400" font-size="73" transform="matrix(1 0 0 1 1693.05 506)">Representation_by_pattern</text><text font-family="Calibri,Calibri_MSFontService,sans-serif" font-weight="400" font-size="73" transform="matrix(1 0 0 1 2513.53 506)">_</text><text font-family="Calibri,Calibri_MSFontService,sans-serif" font-weight="400" font-size="73" transform="matrix(1 0 0 1 1755.22 594)">class_for_sign_examples</text><rect x="312" y="370" width="595" height="228" stroke="#7C4CFF" stroke-width="10.3125" stroke-miterlimit="8" fill="none"/><text font-family="Calibri,Calibri_MSFontService,sans-serif" font-style="italic" font-weight="400" font-size="83" transform="matrix(1 0 0 1 473.865 462)">pattern</text><text font-family="Calibri,Calibri_MSFontService,sans-serif" font-weight="400" font-size="83" transform="matrix(1 0 0 1 722.075 462)">:</text><text font-family="Calibri,Calibri_MSFontService,sans-serif" font-weight="400" font-size="83" transform="matrix(1 0 0 1 412.929 561)">“P@773rN”</text><rect x="3191" y="334" width="1031" height="294" stroke="#7C4CFF" stroke-width="10.3125" stroke-miterlimit="8" fill="none"/><text font-family="Calibri,Calibri_MSFontService,sans-serif" font-style="italic" font-weight="400" font-size="64" transform="matrix(1 0 0 1 3647.84 425)">role</text><text font-family="Calibri,Calibri_MSFontService,sans-serif" font-weight="400" font-size="64" transform="matrix(1 0 0 1 3747.53 425)">:</text><text font-family="Calibri,Calibri_MSFontService,sans-serif" font-weight="400" font-size="64" transform="matrix(1 0 0 1 3290.71 502)">Kind_of_recognizing_language</text><text font-family="Calibri,Calibri_MSFontService,sans-serif" font-weight="400" font-size="64" transform="matrix(1 0 0 1 4089.74 502)">_</text><text font-family="Calibri,Calibri_MSFontService,sans-serif" font-weight="400" font-size="64" transform="matrix(1 0 0 1 3298.06 579)">community_for_sign_examples</text><rect x="1621" y="1052" width="1011" height="287" stroke="#07B9D5" stroke-width="10.3125" stroke-miterlimit="8" fill="none"/><text font-family="Calibri,Calibri_MSFontService,sans-serif" font-style="italic" font-weight="400" font-size="73" transform="matrix(1 0 0 1 1765.97 1177)">representation_by_sign</text><text font-family="Calibri,Calibri_MSFontService,sans-serif" font-style="italic" font-weight="400" font-size="73" transform="matrix(1 0 0 1 2467.42 1177)">:</text><text font-family="Calibri,Calibri_MSFontService,sans-serif" font-weight="400" font-size="73" transform="matrix(1 0 0 1 1657.07 1265)">Example_RepresentationBySign</text><path d="M612.337 1445.87 606.113 605.32 612.988 605.269 619.212 1445.82ZM590.731 631.214 609.5 598.484 628.752 630.932C629.72 632.565 629.182 634.674 627.549 635.643 625.916 636.612 623.808 636.073 622.839 634.441L606.594 607.06 612.532 607.016 596.695 634.634C595.75 636.281 593.65 636.851 592.003 635.906 590.356 634.962 589.786 632.861 590.731 631.214Z" fill="#07B9D5" fill-opacity="0.45098"/><path d="M1.75878-2.95349 483.325 283.815 479.807 289.722-1.75878 2.95349ZM469.158 257.253 487.432 290.262 449.704 289.922C447.806 289.904 446.281 288.352 446.298 286.453 446.315 284.555 447.868 283.03 449.766 283.047L481.602 283.334 478.563 288.436 463.143 260.583C462.224 258.922 462.825 256.83 464.486 255.911 466.146 254.991 468.238 255.592 469.158 257.253Z" fill="#07B9D5" transform="matrix(1 0 0 -1 1133.5 1486.75)"/><text font-family="Courier New,Courier New_MSFontService,sans-serif" font-weight="700" font-size="46" transform="matrix(1 0 0 1 984.836 1296)">participant_in</text><path d="M2123.88 1052.46 2119.14 635.34 2126.01 635.262 2130.76 1052.38ZM2103.86 661.288 2122.5 628.484 2141.88 660.856C2142.86 662.485 2142.33 664.596 2140.7 665.571 2139.07 666.546 2136.96 666.016 2135.98 664.387L2119.63 637.071 2125.57 637.004 2109.84 664.684C2108.9 666.335 2106.8 666.913 2105.15 665.975 2103.5 665.037 2102.92 662.939 2103.86 661.288Z" fill="#07B9D5"/><text font-family="Courier New,Courier New_MSFontService,sans-serif" font-weight="700" font-size="46" transform="matrix(1 0 0 1 1948.48 855)">member_of</text><text font-family="Courier New,Courier New_MSFontService,sans-serif" font-weight="700" font-size="46" transform="matrix(1 0 0 1 2195.98 855)">_</text><path d="M3227.31 1449.45 2637.45 1202.3 2640.11 1195.96 3229.96 1443.11ZM2655.2 1226.62 2632.49 1196.49 2669.89 1191.55C2671.77 1191.31 2673.5 1192.63 2673.75 1194.51 2674 1196.39 2672.67 1198.12 2670.79 1198.37L2639.23 1202.54 2641.52 1197.06 2660.69 1222.48C2661.83 1224 2661.53 1226.16 2660.01 1227.3 2658.49 1228.44 2656.34 1228.14 2655.2 1226.62Z" fill="#07B9D5"/><text font-family="Courier New,Courier New_MSFontService,sans-serif" font-weight="700" font-size="46" transform="matrix(1 0 0 1 2599.63 1400)">participant_in</text><path d="M3.36078-0.722176 177.697 810.587 170.976 812.031-3.36078 0.722176ZM187.509 782.12 175.769 817.977 150.336 790.108C149.056 788.706 149.156 786.531 150.558 785.252 151.96 783.972 154.135 784.071 155.414 785.473L176.875 808.99 171.069 810.237 180.976 779.981C181.566 778.176 183.508 777.193 185.312 777.783 187.116 778.374 188.1 780.316 187.509 782.12Z" fill="#07B9D5" fill-opacity="0.45098" transform="matrix(1 0 0 -1 3530.5 1446.46)"/><text font-family="Courier New,Courier New_MSFontService,sans-serif" font-weight="700" font-size="46" transform="matrix(1 0 0 1 437.351 1087)">member_of</text><text font-family="Courier New,Courier New_MSFontService,sans-serif" font-weight="700" font-size="46" transform="matrix(1 0 0 1 684.851 1087)">__</text><text font-family="Courier New,Courier New_MSFontService,sans-serif" font-weight="700" font-size="46" transform="matrix(1 0 0 1 3458.79 1042)">member_of</text><text font-family="Courier New,Courier New_MSFontService,sans-serif" font-weight="700" font-size="46" transform="matrix(1 0 0 1 3706.29 1042)">__</text><rect x="95.9999" y="1445" width="1039" height="324" stroke="#07B9D5" stroke-width="10.3125" stroke-miterlimit="8" fill="none"/><text font-family="Calibri,Calibri_MSFontService,sans-serif" font-style="italic" font-weight="400" font-size="83" transform="matrix(1 0 0 1 536.354 1585)">sign</text><text font-family="Calibri,Calibri_MSFontService,sans-serif" font-weight="400" font-size="83" transform="matrix(1 0 0 1 672.135 1585)">: </text><text font-family="Calibri,Calibri_MSFontService,sans-serif" font-weight="400" font-size="83" transform="matrix(1 0 0 1 383.569 1684)">Example_Sign</text><rect x="2853" y="1446" width="1355" height="323" stroke="#07B9D5" stroke-width="10.3125" stroke-miterlimit="8" fill="none"/><text font-family="Calibri,Calibri_MSFontService,sans-serif" font-style="italic" font-weight="400" font-size="73" transform="matrix(1 0 0 1 3007.75 1589)">recognizing_language_community</text><text font-family="Calibri,Calibri_MSFontService,sans-serif" font-style="italic" font-weight="400" font-size="73" transform="matrix(1 0 0 1 4033.75 1589)">: </text><text font-family="Calibri,Calibri_MSFontService,sans-serif" font-weight="400" font-size="73" transform="matrix(1 0 0 1 2895.91 1677)">Example_RecognizingLanguageCommunity</text><rect x="1202" y="2010" width="957" height="288" stroke="#63DD16" stroke-width="10.3125" stroke-miterlimit="8" fill="none"/><text font-family="Calibri,Calibri_MSFontService,sans-serif" font-style="italic" font-weight="400" font-size="83" transform="matrix(1 0 0 1 1507.19 2132)">individual</text><text font-family="Calibri,Calibri_MSFontService,sans-serif" font-weight="400" font-size="83" transform="matrix(1 0 0 1 1831.46 2132)">:</text><text font-family="Calibri,Calibri_MSFontService,sans-serif" font-weight="400" font-size="83" transform="matrix(1 0 0 1 1312.86 2231)">Example_individual_X</text><path d="M2.86242-1.90341 445.043 663.065 439.318 666.872-2.86242 1.90341ZM443.742 632.983 445.957 670.648 412.081 654.037C410.376 653.201 409.672 651.141 410.508 649.437 411.343 647.732 413.403 647.028 415.107 647.864L443.693 661.881 438.748 665.169 436.878 633.387C436.767 631.492 438.213 629.865 440.108 629.754 442.003 629.642 443.63 631.088 443.742 632.983Z" fill="#63DD16" transform="matrix(-1 0 0 1 2126.45 1339.5)"/><text font-family="Courier New,Courier New_MSFontService,sans-serif" font-weight="700" font-size="46" transform="matrix(1 0 0 1 1896.57 1769)">represents</text><text font-family="Courier New,Courier New_MSFontService,sans-serif" font-weight="700" font-size="46" transform="matrix(1 0 0 1 1091.58 1898)">represent</text><text font-family="Courier New,Courier New_MSFontService,sans-serif" font-weight="700" font-size="46" transform="matrix(1 0 0 1 1339.08 1898)">ed</text><path d="M2647.07 626.219 3367.46 1438.61 3362.32 1443.17 2641.93 630.781ZM3362.02 1409 3369.41 1446 3333.57 1434.22C3331.76 1433.63 3330.78 1431.69 3331.37 1429.89 3331.97 1428.08 3333.91 1427.1 3335.71 1427.69L3365.96 1437.63 3361.52 1441.57 3355.27 1410.35C3354.9 1408.48 3356.11 1406.67 3357.97 1406.3 3359.83 1405.93 3361.64 1407.14 3362.02 1409Z" fill="#7C4CFF"/><text font-family="Courier New,Courier New_MSFontService,sans-serif" font-weight="700" font-size="46" transform="matrix(1 0 0 1 2642.61 906)">c</text><text font-family="Courier New,Courier New_MSFontService,sans-serif" font-weight="700" font-size="46" transform="matrix(1 0 0 1 2670.11 906)">onsists_of_in_members</text><path d="M0.0158341-3.43746 640.193-0.48859 640.161 6.38634-0.0158341 3.43746ZM614.503-16.1805 647.005 2.98032 614.327 21.8409C612.683 22.7899 610.581 22.2263 609.632 20.5821 608.683 18.9378 609.246 16.8356 610.891 15.8865L638.464-0.0282895 638.437 5.91013 611.011-10.258C609.376-11.2222 608.831-13.3295 609.796-14.965 610.76-16.6004 612.867-17.1446 614.503-16.1805Z" fill="#7C4CFF" transform="matrix(-1 0 0 1 1554.49 481.5)"/><text font-family="Courier New,Courier New_MSFontService,sans-serif" font-weight="700" font-size="46" transform="matrix(1 0 0 1 1042.93 462)">c</text><text font-family="Courier New,Courier New_MSFontService,sans-serif" font-weight="700" font-size="46" transform="matrix(1 0 0 1 1070.43 462)">onsists_of</text><text font-family="Courier New,Courier New_MSFontService,sans-serif" font-weight="700" font-size="46" transform="matrix(1 0 0 1 1345.43 462)">_</text><text font-family="Courier New,Courier New_MSFontService,sans-serif" font-weight="700" font-size="46" transform="matrix(1 0 0 1 1097.93 518)">by_class</text></g></svg>