<svg width="2771" height="1502" xmlns="http://www.w3.org/2000/svg" xmlns:xlink="http://www.w3.org/1999/xlink" xml:space="preserve" overflow="hidden"><g transform="translate(-637 -481)"><rect x="1378" y="773" width="1474" height="134" fill="#7C4CFF" fill-opacity="0.341176"/><rect x="1686" y="1307" width="891" height="134" stroke="#7C4CFF" stroke-width="10.3125" stroke-miterlimit="8" stroke-dasharray="41.25 30.9375" fill="#7C4CFF" fill-opacity="0.341176"/><path d="M753.5 551.501 788.501 516.5 823.5 551.501 806 551.501 806 1833.5 771 1833.5 771 551.501Z" stroke="#7C4CFF" stroke-width="4.58333" stroke-miterlimit="8" fill="#7C4CFF" fill-rule="evenodd"/><path d="M3368.5 1782.5 3403.5 1817.5 3368.5 1852.5 3368.5 1835 779.5 1835 779.5 1800 3368.5 1800Z" stroke="#7C4CFF" stroke-width="4.58333" stroke-miterlimit="8" fill="#7C4CFF" fill-rule="evenodd"/><text fill="#7C4CFF" font-family="Calibri,Calibri_MSFontService,sans-serif" font-weight="400" font-size="83" transform="matrix(-1.83697e-16 -1 1 -1.83697e-16 738.926 798)">Space</text><text fill="#7C4CFF" font-family="Calibri,Calibri_MSFontService,sans-serif" font-weight="400" font-size="83" transform="matrix(1 0 0 1 3188.65 1911)">Time</text><path d="M1693.5 673.5C1693.5 654.17 1696.11 638.5 1699.33 638.5L2129.67 638.5C2132.89 638.5 2135.5 622.83 2135.5 603.5 2135.5 622.83 2138.11 638.5 2141.33 638.5L2571.67 638.5C2574.89 638.5 2577.5 654.171 2577.5 673.501" stroke="#7C4CFF" stroke-width="4.58333" stroke-miterlimit="8" fill="none" fill-rule="evenodd"/><text font-family="Calibri,Calibri_MSFontService,sans-serif" font-weight="400" font-size="73" transform="matrix(1 0 0 1 1646.84 573)">LM</text><text font-family="Calibri,Calibri_MSFontService,sans-serif" font-weight="400" font-size="73" transform="matrix(1 0 0 1 1740.23 573)">-</text><text font-family="Calibri,Calibri_MSFontService,sans-serif" font-weight="400" font-size="73" transform="matrix(1 0 0 1 1762.57 573)">5 Ascent Activity from </text><text font-family="Calibri,Calibri_MSFontService,sans-serif" font-weight="400" font-size="73" transform="matrix(1 0 0 1 2433.87 573)">Moon</text><rect x="1614" y="1306" width="1365" height="134" fill="#7C4CFF" fill-opacity="0.341176"/><path d="M1686 1400 1686 1801.06" stroke="#A6A6A6" stroke-width="2.29167" stroke-miterlimit="8" stroke-dasharray="18.3333 6.875" fill="none" fill-rule="evenodd"/><text fill="#36464E" font-family="Roboto Mono,Roboto Mono_MSFontService,sans-serif" font-weight="400" font-size="50" transform="matrix(0.851211 -0.524824 0.524824 0.851211 1456.9 1790)">1969</text><text fill="#36464E" font-family="Roboto Mono,Roboto Mono_MSFontService,sans-serif" font-weight="400" font-size="50" transform="matrix(0.851211 -0.524824 0.524824 0.851211 1560.28 1726)">-</text><text fill="#36464E" font-family="Roboto Mono,Roboto Mono_MSFontService,sans-serif" font-weight="400" font-size="50" transform="matrix(0.851211 -0.524824 0.524824 0.851211 1586.13 1710)">07</text><text fill="#36464E" font-family="Roboto Mono,Roboto Mono_MSFontService,sans-serif" font-weight="400" font-size="50" transform="matrix(0.851211 -0.524824 0.524824 0.851211 1637.82 1678)">-</text><text fill="#36464E" font-family="Roboto Mono,Roboto Mono_MSFontService,sans-serif" font-weight="400" font-size="50" transform="matrix(0.851211 -0.524824 0.524824 0.851211 1663.67 1662)">21T17:54:00</text><text font-family="Calibri,Calibri_MSFontService,sans-serif" font-weight="400" font-size="83" transform="matrix(1 0 0 1 1911.07 867)">state of Buzz</text><text font-family="Calibri,Calibri_MSFontService,sans-serif" font-weight="400" font-size="73" transform="matrix(1 0 0 1 1707.88 1403)">state of </text><text font-family="Calibri,Calibri_MSFontService,sans-serif" font-style="italic" font-weight="400" font-size="73" transform="matrix(1 0 0 1 1948.75 1403)">LM</text><text font-family="Calibri,Calibri_MSFontService,sans-serif" font-style="italic" font-weight="400" font-size="73" transform="matrix(1 0 0 1 2042.14 1403)">-</text><text font-family="Calibri,Calibri_MSFontService,sans-serif" font-style="italic" font-weight="400" font-size="73" transform="matrix(1 0 0 1 2064.48 1403)">5 Ascent Module</text><text font-family="Calibri,Calibri_MSFontService,sans-serif" font-weight="400" font-size="73" transform="matrix(1 0 0 1 999.74 859)">Buzz Aldrin </text><text font-family="Calibri,Calibri_MSFontService,sans-serif" font-style="italic" font-weight="400" font-size="73" transform="matrix(1 0 0 1 1201.77 1359)">LM</text><text font-family="Calibri,Calibri_MSFontService,sans-serif" font-style="italic" font-weight="400" font-size="73" transform="matrix(1 0 0 1 1295.16 1359)">-</text><text font-family="Calibri,Calibri_MSFontService,sans-serif" font-style="italic" font-weight="400" font-size="73" transform="matrix(1 0 0 1 1317.5 1359)">5 Ascent </text><text font-family="Calibri,Calibri_MSFontService,sans-serif" font-style="italic" font-weight="400" font-size="73" transform="matrix(1 0 0 1 1341.54 1447)">Module</text><path d="M2576 1403 2576 1804.06" stroke="#A6A6A6" stroke-width="2.29167" stroke-miterlimit="8" stroke-dasharray="18.3333 6.875" fill="none" fill-rule="evenodd"/><text fill="#36464E" font-family="Roboto Mono,Roboto Mono_MSFontService,sans-serif" font-weight="400" font-size="50" transform="matrix(0.851211 -0.524824 0.524824 0.851211 2347.05 1792)">1969</text><text fill="#36464E" font-family="Roboto Mono,Roboto Mono_MSFontService,sans-serif" font-weight="400" font-size="50" transform="matrix(0.851211 -0.524824 0.524824 0.851211 2450.44 1729)">-</text><text fill="#36464E" font-family="Roboto Mono,Roboto Mono_MSFontService,sans-serif" font-weight="400" font-size="50" transform="matrix(0.851211 -0.524824 0.524824 0.851211 2476.29 1713)">07</text><text fill="#36464E" font-family="Roboto Mono,Roboto Mono_MSFontService,sans-serif" font-weight="400" font-size="50" transform="matrix(0.851211 -0.524824 0.524824 0.851211 2527.98 1681)">-</text><text fill="#36464E" font-family="Roboto Mono,Roboto Mono_MSFontService,sans-serif" font-weight="400" font-size="50" transform="matrix(0.851211 -0.524824 0.524824 0.851211 2553.83 1665)">21T</text><text fill="#36464E" font-family="Roboto Mono,Roboto Mono_MSFontService,sans-serif" font-weight="400" font-size="50" transform="matrix(0.851211 -0.524824 0.524824 0.851211 2631.37 1617)">21:35:00</text><rect x="1354" y="1031" width="1474" height="134" fill="#7C4CFF" fill-opacity="0.341176"/><text font-family="Calibri,Calibri_MSFontService,sans-serif" font-weight="400" font-size="83" transform="matrix(1 0 0 1 1915.59 1117)">state of </text><text font-family="Calibri,Calibri_MSFontService,sans-serif" font-weight="400" font-size="83" transform="matrix(1 0 0 1 2186.44 1117)">Neil</text><text font-family="Calibri,Calibri_MSFontService,sans-serif" font-weight="400" font-size="73" transform="matrix(1 0 0 1 868.449 1123)">Neil Armstrong</text><rect x="1686" y="1032" width="890" height="134" stroke="#7C4CFF" stroke-width="10.3125" stroke-miterlimit="8" stroke-dasharray="41.25 30.9375" fill="#7C4CFF" fill-opacity="0.341176"/><rect x="1686" y="774" width="891" height="134" stroke="#7C4CFF" stroke-width="10.3125" stroke-miterlimit="8" stroke-dasharray="41.25 30.9375" fill="#7C4CFF" fill-opacity="0.341176"/><rect x="1686" y="772" width="891" height="667" stroke="#7C4CFF" stroke-width="10.3125" stroke-miterlimit="8" fill="#7C4CFF" fill-opacity="0.341176"/></g></svg>