<svg xmlns="http://www.w3.org/2000/svg" id="chart-inner" width="1560" height="600"><g transform="translate(30,10)"><defs><style type="text/css">@import url('https://fonts.googleapis.com/css2?family=Roboto:wght@300;400;500&amp;display=swap');</style></defs><g transform="translate(0,560)" fill="none" font-size="10" font-family="sans-serif" text-anchor="middle" style="stroke-width: 8; fill: none; opacity: 0.9; stroke: rgb(23, 55, 94); color: rgb(23, 55, 94);"><path class="domain" stroke="currentColor" d="M0.5,6V0.5H1490.5V6"/></g><text transform="translate(745 ,590)" style="text-anchor: middle; font-weight: bold; font-size: 18px;">Time</text><g fill="none" font-size="10" font-family="sans-serif" text-anchor="end" style="stroke-width: 8; fill: none; opacity: 0.9; stroke: rgb(23, 55, 94); color: rgb(23, 55, 94);"><path class="domain" stroke="currentColor" d="M-6,560.5H0.5V0.5H-6"/></g><text transform="rotate(-90)" y="-30" x="-280" dy="1em" style="text-anchor: middle; font-weight: bold; font-size: 18px;">Space</text><defs><marker id="arrow" viewBox="0 0 20 20" refX="10" refY="10" markerWidth="10" markerHeight="10" orient="auto-start-reverse"><path stroke="purple" fill="purple" d="M0,0L0,20L20,10"/></marker></defs><path d="M409.75,453.6C577.375,453.6,577.375,347.2,745,347.2" stroke="#7C4CFF" stroke-width="3" fill="none" style="stroke-opacity: 0.8; fill-opacity: 0.5;"/><path d="M409.75,509.6C577.375,509.6,577.375,403.2,745,403.2" stroke="#7C4CFF" stroke-width="3" fill="none" style="stroke-opacity: 0.8; fill-opacity: 0.5;"/><path d="M1415.5,347.2C1415.5,347.2,1415.5,453.6,1415.5,453.6" stroke="#7C4CFF" stroke-width="3" fill="none" style="stroke-opacity: 0.8; fill-opacity: 0.5;"/><path d="M1415.5,403.2C1415.5,403.2,1415.5,509.6,1415.5,509.6" stroke="#7C4CFF" stroke-width="3" fill="none" style="stroke-opacity: 0.8; fill-opacity: 0.5;"/><path d="M577.375,28C828.813,28,828.813,134.4,1080.25,134.4" stroke="#7C4CFF" stroke-width="3" fill="none" style="stroke-opacity: 0.8; fill-opacity: 0.5;"/><path d="M577.375,84C828.813,84,828.813,190.4,1080.25,190.4" stroke="#7C4CFF" stroke-width="3" fill="none" style="stroke-opacity: 0.8; fill-opacity: 0.5;"/><path d="M1415.5,134.4C1415.5,134.4,1415.5,28,1415.5,28" stroke="#7C4CFF" stroke-width="3" fill="none" style="stroke-opacity: 0.8; fill-opacity: 0.5;"/><path d="M1415.5,190.4C1415.5,190.4,1415.5,84,1415.5,84" stroke="#7C4CFF" stroke-width="3" fill="none" style="stroke-opacity: 0.8; fill-opacity: 0.5;"/><rect rx="0" ry="0" x="409.75000000000006" y="134.4" width="1005.7500000000001" height="268.8" style="stroke-dasharray: 10, 0; fill: rgb(99, 221, 22); stroke-opacity: 0.8; fill-opacity: 0.5; stroke: rgb(99, 221, 22); stroke-width: 12;"/><rect rx="0" ry="0" x="74.5" y="453.6" width="335.25" height="56" style="stroke-dasharray: 10, 0; fill: rgb(124, 76, 255); stroke-opacity: 0.8; fill-opacity: 0.5; stroke: rgb(124, 76, 255); stroke-width: 12;"/><rect rx="0" ry="0" x="1415.5" y="453.6" width="0" height="56" style="stroke-dasharray: 10, 0; fill: rgb(124, 76, 255); stroke-opacity: 0.8; fill-opacity: 0.5; stroke: rgb(124, 76, 255); stroke-width: 12;"/><rect rx="0" ry="0" x="409.75000000000006" y="347.2" width="1005.7500000000001" height="56" style="stroke-dasharray: 10, 0; fill: rgb(124, 76, 255); stroke-opacity: 0.8; fill-opacity: 0.5; stroke: rgb(124, 76, 255); stroke-width: 5;"/><rect rx="0" ry="0" x="745" y="347.2" width="670.5" height="56" style="stroke-dasharray: 10, 3; fill: rgb(124, 76, 255); stroke-opacity: 0.8; fill-opacity: 0.5; stroke: rgb(124, 76, 255); stroke-width: 3;"/><rect rx="0" ry="0" x="409.75000000000006" y="134.4" width="1005.7500000000001" height="56" style="stroke-dasharray: 10, 0; fill: rgb(124, 76, 255); stroke-opacity: 0.8; fill-opacity: 0.5; stroke: rgb(124, 76, 255); stroke-width: 5;"/><rect rx="0" ry="0" x="1080.25" y="134.4" width="335.25" height="56" style="stroke-dasharray: 10, 3; fill: rgb(124, 76, 255); stroke-opacity: 0.8; fill-opacity: 0.5; stroke: rgb(124, 76, 255); stroke-width: 3;"/><rect rx="0" ry="0" x="74.5" y="28.000000000000025" width="502.87500000000006" height="56" style="stroke-dasharray: 10, 0; fill: rgb(124, 76, 255); stroke-opacity: 0.8; fill-opacity: 0.5; stroke: rgb(124, 76, 255); stroke-width: 12;"/><rect rx="0" ry="0" x="1415.5" y="28.000000000000025" width="0" height="56" style="stroke-dasharray: 10, 0; fill: rgb(124, 76, 255); stroke-opacity: 0.8; fill-opacity: 0.5; stroke: rgb(124, 76, 255); stroke-width: 12;"/><text y="481.6" x="745" text-anchor="middle" style="fill: rgb(33, 33, 33); font-size: 18px; font-family: Roboto;">Descent_Module_Functional_System_1969-059D</text><text y="343" x="409.75000000000006" text-anchor="start" style="fill: rgb(33, 33, 33); font-size: 18px; font-family: Roboto;">Descent_Module_System_Component_1969-059D</text><text y="375.2" x="1080.25" text-anchor="start" style="fill: white; font-size: 18px; font-family: Roboto;"/><text y="268.79999999999995" x="912.6250000000001" text-anchor="middle" style="fill: rgb(33, 33, 33); font-size: 18px; font-family: Roboto;">Example_individual_that_is_Lunar_Module_Eagle_LM-5</text><text y="130.20000000000002" x="409.75000000000006" text-anchor="start" style="fill: rgb(33, 33, 33); font-size: 18px; font-family: Roboto;">Ascent_Module_System_Component_1969-059C</text><text y="162.4" x="1247.875" text-anchor="start" style="fill: white; font-size: 18px; font-family: Roboto;"/><text y="56.00000000000003" x="745" text-anchor="middle" style="fill: rgb(33, 33, 33); font-size: 18px; font-family: Roboto;">Ascent_Module_Functional_System_1969-059C</text></g></svg>