<svg xmlns="http://www.w3.org/2000/svg" id="chart-inner" width="3120" height="600"><g transform="translate(30,10)"><defs><style type="text/css">@import url('https://fonts.googleapis.com/css2?family=Roboto:wght@300;400;500&amp;display=swap');</style></defs><g transform="translate(0,560)" fill="none" font-size="10" font-family="sans-serif" text-anchor="middle" style="stroke-width: 8; fill: none; opacity: 0.9; stroke: rgb(23, 55, 94); color: rgb(23, 55, 94);"><path class="domain" stroke="currentColor" d="M0.5,6V0.5H3050.5V6"/></g><text transform="translate(1525 ,590)" style="text-anchor: middle; font-weight: bold; font-size: 18px;">Time</text><g fill="none" font-size="10" font-family="sans-serif" text-anchor="end" style="stroke-width: 8; fill: none; opacity: 0.9; stroke: rgb(23, 55, 94); color: rgb(23, 55, 94);"><path class="domain" stroke="currentColor" d="M-6,560.5H0.5V0.5H-6"/></g><text transform="rotate(-90)" y="-30" x="-280" dy="1em" style="text-anchor: middle; font-weight: bold; font-size: 18px;">Space</text><defs><marker id="arrow" viewBox="0 0 20 20" refX="10" refY="10" markerWidth="10" markerHeight="10" orient="auto-start-reverse"><path stroke="purple" fill="purple" d="M0,0L0,20L20,10"/></marker></defs><path d="M544.643,453.6C740.714,453.6,740.714,347.2,936.786,347.2" stroke="#7C4CFF" stroke-width="3" fill="none" style="stroke-opacity: 0.8; fill-opacity: 0.5;"/><path d="M544.643,509.6C740.714,509.6,740.714,403.2,936.786,403.2" stroke="#7C4CFF" stroke-width="3" fill="none" style="stroke-opacity: 0.8; fill-opacity: 0.5;"/><path d="M2505.357,347.2C2603.393,347.2,2603.393,453.6,2701.429,453.6" stroke="#7C4CFF" stroke-width="3" fill="none" style="stroke-opacity: 0.8; fill-opacity: 0.5;"/><path d="M2505.357,403.2C2603.393,403.2,2603.393,509.6,2701.429,509.6" stroke="#7C4CFF" stroke-width="3" fill="none" style="stroke-opacity: 0.8; fill-opacity: 0.5;"/><path d="M740.714,28C1034.821,28,1034.821,134.4,1328.929,134.4" stroke="#7C4CFF" stroke-width="3" fill="none" style="stroke-opacity: 0.8; fill-opacity: 0.5;"/><path d="M740.714,84C1034.821,84,1034.821,190.4,1328.929,190.4" stroke="#7C4CFF" stroke-width="3" fill="none" style="stroke-opacity: 0.8; fill-opacity: 0.5;"/><path d="M1721.071,134.4C1770.089,134.4,1770.089,28,1819.107,28" stroke="#7C4CFF" stroke-width="3" fill="none" style="stroke-opacity: 0.8; fill-opacity: 0.5;"/><path d="M1721.071,190.4C1770.089,190.4,1770.089,84,1819.107,84" stroke="#7C4CFF" stroke-width="3" fill="none" style="stroke-opacity: 0.8; fill-opacity: 0.5;"/><path d="M2015.179,28C2064.196,28,2064.196,134.4,2113.214,134.4" stroke="#7C4CFF" stroke-width="3" fill="none" style="stroke-opacity: 0.8; fill-opacity: 0.5;"/><path d="M2015.179,84C2064.196,84,2064.196,190.4,2113.214,190.4" stroke="#7C4CFF" stroke-width="3" fill="none" style="stroke-opacity: 0.8; fill-opacity: 0.5;"/><path d="M2505.357,134.4C2603.393,134.4,2603.393,28,2701.429,28" stroke="#7C4CFF" stroke-width="3" fill="none" style="stroke-opacity: 0.8; fill-opacity: 0.5;"/><path d="M2505.357,190.4C2603.393,190.4,2603.393,84,2701.429,84" stroke="#7C4CFF" stroke-width="3" fill="none" style="stroke-opacity: 0.8; fill-opacity: 0.5;"/><rect rx="0" ry="0" x="544.6428571428571" y="134.4" width="1960.7142857142856" height="268.8" style="stroke-dasharray: 10, 0; fill: rgb(99, 221, 22); stroke-opacity: 0.8; fill-opacity: 0.5; stroke: rgb(99, 221, 22); stroke-width: 12;"/><rect rx="0" ry="0" x="152.5" y="453.6" width="392.14285714285717" height="56" style="stroke-dasharray: 10, 0; fill: rgb(124, 76, 255); stroke-opacity: 0.8; fill-opacity: 0.5; stroke: rgb(124, 76, 255); stroke-width: 12;"/><rect rx="0" ry="0" x="2701.428571428571" y="453.6" width="196.07142857142864" height="56" style="stroke-dasharray: 10, 0; fill: rgb(124, 76, 255); stroke-opacity: 0.8; fill-opacity: 0.5; stroke: rgb(124, 76, 255); stroke-width: 12;"/><rect rx="0" ry="0" x="544.6428571428571" y="347.2" width="1960.7142857142856" height="56" style="stroke-dasharray: 10, 0; fill: rgb(124, 76, 255); stroke-opacity: 0.8; fill-opacity: 0.5; stroke: rgb(124, 76, 255); stroke-width: 5;"/><rect rx="0" ry="0" x="936.7857142857143" y="347.2" width="1568.5714285714284" height="56" style="stroke-dasharray: 10, 3; fill: rgb(124, 76, 255); stroke-opacity: 0.8; fill-opacity: 0.5; stroke: rgb(124, 76, 255); stroke-width: 3;"/><rect rx="0" ry="0" x="544.6428571428571" y="134.4" width="1960.7142857142856" height="56" style="stroke-dasharray: 10, 0; fill: rgb(124, 76, 255); stroke-opacity: 0.8; fill-opacity: 0.5; stroke: rgb(124, 76, 255); stroke-width: 5;"/><rect rx="0" ry="0" x="2113.214285714286" y="134.4" width="392.1428571428568" height="56" style="stroke-dasharray: 10, 3; fill: rgb(124, 76, 255); stroke-opacity: 0.8; fill-opacity: 0.5; stroke: rgb(124, 76, 255); stroke-width: 3;"/><rect rx="0" ry="0" x="1328.9285714285716" y="134.4" width="392.1428571428573" height="56" style="stroke-dasharray: 10, 3; fill: rgb(124, 76, 255); stroke-opacity: 0.8; fill-opacity: 0.5; stroke: rgb(124, 76, 255); stroke-width: 3;"/><rect rx="0" ry="0" x="152.5" y="28.000000000000025" width="588.2142857142857" height="56" style="stroke-dasharray: 10, 0; fill: rgb(124, 76, 255); stroke-opacity: 0.8; fill-opacity: 0.5; stroke: rgb(124, 76, 255); stroke-width: 12;"/><rect rx="0" ry="0" x="1819.107142857143" y="28.000000000000025" width="196.07142857142884" height="56" style="stroke-dasharray: 10, 0; fill: rgb(124, 76, 255); stroke-opacity: 0.8; fill-opacity: 0.5; stroke: rgb(124, 76, 255); stroke-width: 12;"/><rect rx="0" ry="0" x="2701.428571428571" y="28.000000000000025" width="196.07142857142864" height="56" style="stroke-dasharray: 10, 0; fill: rgb(124, 76, 255); stroke-opacity: 0.8; fill-opacity: 0.5; stroke: rgb(124, 76, 255); stroke-width: 12;"/><text y="481.6" x="1525" text-anchor="middle" style="fill: rgb(33, 33, 33); font-size: 18px; font-family: Roboto;">Descent_Module_Functional_System_1969-059D</text><text y="343" x="544.6428571428571" text-anchor="start" style="fill: rgb(33, 33, 33); font-size: 18px; font-family: Roboto;">Descent_Module_System_Component_1969-059D</text><text y="375.2" x="1721.0714285714284" text-anchor="start" style="fill: white; font-size: 18px; font-family: Roboto;"/><text y="268.79999999999995" x="1525" text-anchor="middle" style="fill: rgb(33, 33, 33); font-size: 18px; font-family: Roboto;">Example_individual_that_is_Lunar_Module_Eagle_LM-5</text><text y="130.20000000000002" x="544.6428571428571" text-anchor="start" style="fill: rgb(33, 33, 33); font-size: 18px; font-family: Roboto;">Ascent_Module_System_Component_1969-059C</text><text y="162.4" x="2309.285714285714" text-anchor="start" style="fill: white; font-size: 18px; font-family: Roboto;"/><text y="162.4" x="1525.0000000000002" text-anchor="start" style="fill: white; font-size: 18px; font-family: Roboto;"/><text y="56.00000000000003" x="1525" text-anchor="middle" style="fill: rgb(33, 33, 33); font-size: 18px; font-family: Roboto;">Ascent_Module_Functional_System_1969-059C</text></g></svg>