<svg xmlns="http://www.w3.org/2000/svg" id="chart-inner" width="3020" height="790"><g transform="translate(30,10)"><defs><style type="text/css">@import url('https://fonts.googleapis.com/css2?family=Roboto:wght@300;400;500&amp;display=swap');</style></defs><g transform="translate(0,750)" fill="none" font-size="10" font-family="sans-serif" text-anchor="middle" style="stroke-width: 8; fill: none; opacity: 0.9; stroke: rgb(23, 55, 94); color: rgb(23, 55, 94);"><path class="domain" stroke="currentColor" d="M0.5,6V0.5H2950.5V6"/></g><text transform="translate(1475 ,780)" style="text-anchor: middle; font-weight: bold; font-size: 18px;">Time</text><g fill="none" font-size="10" font-family="sans-serif" text-anchor="end" style="stroke-width: 8; fill: none; opacity: 0.9; stroke: rgb(23, 55, 94); color: rgb(23, 55, 94);"><path class="domain" stroke="currentColor" d="M-6,750.5H0.5V0.5H-6"/></g><text transform="rotate(-90)" y="-30" x="-375" dy="1em" style="text-anchor: middle; font-weight: bold; font-size: 18px;">Space</text><defs><marker id="arrow" viewBox="0 0 20 20" refX="10" refY="10" markerWidth="10" markerHeight="10" orient="auto-start-reverse"><path stroke="purple" fill="purple" d="M0,0L0,20L20,10"/></marker></defs><path d="M526.786,607.5C716.429,607.5,716.429,465,906.071,465" stroke="#7C4CFF" stroke-width="3" fill="none" style="stroke-opacity: 0.8; fill-opacity: 0.5;"/><path d="M526.786,682.5C716.429,682.5,716.429,540,906.071,540" stroke="#7C4CFF" stroke-width="3" fill="none" style="stroke-opacity: 0.8; fill-opacity: 0.5;"/><path d="M2423.214,465C2518.036,465,2518.036,607.5,2612.857,607.5" stroke="#7C4CFF" stroke-width="3" fill="none" style="stroke-opacity: 0.8; fill-opacity: 0.5;"/><path d="M2423.214,540C2518.036,540,2518.036,682.5,2612.857,682.5" stroke="#7C4CFF" stroke-width="3" fill="none" style="stroke-opacity: 0.8; fill-opacity: 0.5;"/><path d="M716.429,37.5C1000.893,37.5,1000.893,180,1285.357,180" stroke="#7C4CFF" stroke-width="3" fill="none" style="stroke-opacity: 0.8; fill-opacity: 0.5;"/><path d="M716.429,112.5C1000.893,112.5,1000.893,255,1285.357,255" stroke="#7C4CFF" stroke-width="3" fill="none" style="stroke-opacity: 0.8; fill-opacity: 0.5;"/><path d="M1664.643,180C1712.054,180,1712.054,37.5,1759.464,37.5" stroke="#7C4CFF" stroke-width="3" fill="none" style="stroke-opacity: 0.8; fill-opacity: 0.5;"/><path d="M1664.643,255C1712.054,255,1712.054,112.5,1759.464,112.5" stroke="#7C4CFF" stroke-width="3" fill="none" style="stroke-opacity: 0.8; fill-opacity: 0.5;"/><path d="M1949.107,37.5C1996.518,37.5,1996.518,180,2043.929,180" stroke="#7C4CFF" stroke-width="3" fill="none" style="stroke-opacity: 0.8; fill-opacity: 0.5;"/><path d="M1949.107,112.5C1996.518,112.5,1996.518,255,2043.929,255" stroke="#7C4CFF" stroke-width="3" fill="none" style="stroke-opacity: 0.8; fill-opacity: 0.5;"/><path d="M2423.214,180C2518.036,180,2518.036,37.5,2612.857,37.5" stroke="#7C4CFF" stroke-width="3" fill="none" style="stroke-opacity: 0.8; fill-opacity: 0.5;"/><path d="M2423.214,255C2518.036,255,2518.036,112.5,2612.857,112.5" stroke="#7C4CFF" stroke-width="3" fill="none" style="stroke-opacity: 0.8; fill-opacity: 0.5;"/><rect rx="0" ry="0" x="526.7857142857143" y="180" width="1896.4285714285713" height="360" style="stroke-dasharray: 10, 0; fill: rgb(99, 221, 22); stroke-opacity: 0.8; fill-opacity: 0.5; stroke: rgb(99, 221, 22); stroke-width: 12;"/><rect rx="0" ry="0" x="147.5" y="607.5" width="379.28571428571433" height="75" style="stroke-dasharray: 10, 0; fill: rgb(124, 76, 255); stroke-opacity: 0.8; fill-opacity: 0.5; stroke: rgb(124, 76, 255); stroke-width: 12;"/><rect rx="0" ry="0" x="2612.8571428571427" y="607.5" width="189.6428571428572" height="75" style="stroke-dasharray: 10, 0; fill: rgb(124, 76, 255); stroke-opacity: 0.8; fill-opacity: 0.5; stroke: rgb(124, 76, 255); stroke-width: 12;"/><rect rx="0" ry="0" x="526.7857142857143" y="465" width="2275.7142857142853" height="75" style="stroke-dasharray: 10, 0; fill: rgb(124, 76, 255); stroke-opacity: 0.8; fill-opacity: 0.5; stroke: rgb(124, 76, 255); stroke-width: 5;"/><rect rx="0" ry="0" x="906.0714285714287" y="465" width="1517.1428571428569" height="75" style="stroke-dasharray: 10, 3; fill: rgb(124, 76, 255); stroke-opacity: 0.8; fill-opacity: 0.5; stroke: rgb(124, 76, 255); stroke-width: 3;"/><rect rx="0" ry="0" x="526.7857142857143" y="180" width="2275.7142857142853" height="75" style="stroke-dasharray: 10, 0; fill: rgb(124, 76, 255); stroke-opacity: 0.8; fill-opacity: 0.5; stroke: rgb(124, 76, 255); stroke-width: 5;"/><rect rx="0" ry="0" x="2043.9285714285718" y="180" width="379.285714285714" height="75" style="stroke-dasharray: 10, 3; fill: rgb(124, 76, 255); stroke-opacity: 0.8; fill-opacity: 0.5; stroke: rgb(124, 76, 255); stroke-width: 3;"/><rect rx="0" ry="0" x="1285.357142857143" y="180" width="379.2857142857144" height="75" style="stroke-dasharray: 10, 3; fill: rgb(124, 76, 255); stroke-opacity: 0.8; fill-opacity: 0.5; stroke: rgb(124, 76, 255); stroke-width: 3;"/><rect rx="0" ry="0" x="147.5" y="37.500000000000036" width="568.9285714285713" height="75" style="stroke-dasharray: 10, 0; fill: rgb(124, 76, 255); stroke-opacity: 0.8; fill-opacity: 0.5; stroke: rgb(124, 76, 255); stroke-width: 12;"/><rect rx="0" ry="0" x="1759.4642857142858" y="37.500000000000036" width="189.64285714285742" height="75" style="stroke-dasharray: 10, 0; fill: rgb(124, 76, 255); stroke-opacity: 0.8; fill-opacity: 0.5; stroke: rgb(124, 76, 255); stroke-width: 12;"/><rect rx="0" ry="0" x="2612.8571428571427" y="37.500000000000036" width="189.6428571428572" height="75" style="stroke-dasharray: 10, 0; fill: rgb(124, 76, 255); stroke-opacity: 0.8; fill-opacity: 0.5; stroke: rgb(124, 76, 255); stroke-width: 12;"/><text y="645" x="1475" text-anchor="middle" style="fill: rgb(33, 33, 33); font-size: 18px; font-family: Roboto;">Descent_Module_Functional_System_1969-059D</text><text y="459.375" x="526.7857142857143" text-anchor="start" style="fill: rgb(33, 33, 33); font-size: 18px; font-family: Roboto;">Descent_Module_System_Component_1969-059D</text><text y="502.5" x="1664.642857142857" text-anchor="start" style="fill: white; font-size: 18px; font-family: Roboto;"/><text y="360" x="1475" text-anchor="middle" style="fill: rgb(33, 33, 33); font-size: 18px; font-family: Roboto;">Example_individual_that_is_Lunar_Module_Eagle_LM-5</text><text y="174.375" x="526.7857142857143" text-anchor="start" style="fill: rgb(33, 33, 33); font-size: 18px; font-family: Roboto;">Ascent_Module_System_Component_1969-059C</text><text y="217.5" x="2233.571428571429" text-anchor="start" style="fill: white; font-size: 18px; font-family: Roboto;"/><text y="217.5" x="1475" text-anchor="start" style="fill: white; font-size: 18px; font-family: Roboto;"/><text y="75.00000000000003" x="1475" text-anchor="middle" style="fill: rgb(33, 33, 33); font-size: 18px; font-family: Roboto;">Ascent_Module_Functional_System_1969-059C</text></g></svg>