<svg width="3619" height="2172" xmlns="http://www.w3.org/2000/svg" xmlns:xlink="http://www.w3.org/1999/xlink" xml:space="preserve" overflow="hidden"><g transform="translate(-400 -51)"><rect x="1165" y="1727" width="1695" height="134" stroke="#7C4CFF" stroke-width="10.3125" stroke-miterlimit="8" fill="#7C4CFF" fill-opacity="0.341176"/><path d="M516.5 793 552.001 757.5 587.5 793 569.75 793 569.75 2074.5 534.25 2074.5 534.25 793Z" stroke="#7C4CFF" stroke-width="4.58333" stroke-miterlimit="8" fill="#7C4CFF" fill-rule="evenodd"/><path d="M3131.5 2023.5 3166.5 2058.5 3131.5 2093.5 3131.5 2076 542.5 2076 542.5 2041 3131.5 2041Z" stroke="#7C4CFF" stroke-width="4.58333" stroke-miterlimit="8" fill="#7C4CFF" fill-rule="evenodd"/><text fill="#7C4CFF" font-family="Calibri,Calibri_MSFontService,sans-serif" font-weight="400" font-size="83" transform="matrix(-1.83697e-16 -1 1 -1.83697e-16 502.041 1038)">Space</text><text fill="#7C4CFF" font-family="Calibri,Calibri_MSFontService,sans-serif" font-weight="400" font-size="83" transform="matrix(1 0 0 1 2951.77 2151)">Time</text><text font-family="Calibri,Calibri_MSFontService,sans-serif" font-style="italic" font-weight="400" font-size="64" transform="matrix(1 0 0 1 608.998 1776)">Actual thing being </text><text font-family="Calibri,Calibri_MSFontService,sans-serif" font-style="italic" font-weight="400" font-size="64" transform="matrix(1 0 0 1 775.877 1853)">represented</text><path d="M1477 302C1477 166.138 1654.97 56 1874.5 56 2094.03 56 2272 166.138 2272 302 2272 437.862 2094.03 548 1874.5 548 1654.97 548 1477 437.862 1477 302Z" stroke="#7C4CFF" stroke-width="10.3125" stroke-miterlimit="8" fill="#7C4CFF" fill-rule="evenodd" fill-opacity="0.341176"/><text fill="#595959" font-family="Courier New,Courier New_MSFontService,sans-serif" font-weight="700" font-size="55" transform="matrix(1 0 0 1 1634.95 182)">IDENTIFICATION</text><path d="M1555 334.377 1588.61 334.377 1599 300 1609.39 334.377 1643 334.377 1615.81 355.623 1626.19 390 1599 368.754 1571.81 390 1582.19 355.623Z" stroke="#7C4CFF" stroke-width="10.3125" stroke-miterlimit="8" fill="#7C4CFF" fill-rule="evenodd" fill-opacity="0.341176"/><path d="M3219 340C3219 204.138 3396.97 93.9998 3616.5 93.9998 3836.03 93.9998 4014 204.138 4014 340 4014 475.862 3836.03 586 3616.5 586 3396.97 586 3219 475.862 3219 340Z" stroke="#7C4CFF" stroke-width="10.3125" stroke-miterlimit="8" fill="#7C4CFF" fill-rule="evenodd" fill-opacity="0.341176"/><text fill="#595959" font-family="Courier New,Courier New_MSFontService,sans-serif" font-weight="700" font-size="55" transform="matrix(1 0 0 1 3500.12 213)">PATTERN</text><path d="M3572 406.995 3605.61 406.995 3616 373 3626.39 406.995 3660 406.995 3632.81 428.005 3643.19 462 3616 440.99 3588.81 462 3599.19 428.005Z" stroke="#7C4CFF" stroke-width="10.3125" stroke-miterlimit="8" fill="#7C4CFF" fill-rule="evenodd" fill-opacity="0.341176"/><text fill="#7C4CFF" font-family="Courier New,Courier New_MSFontService,sans-serif" font-weight="400" font-size="55" transform="matrix(0.998811 0.048751 -0.048751 0.998811 2404.38 315)">consists_of_by_class</text><path d="M1643.59 332.21 1661.91 332.899 1661.73 337.479 1643.41 336.79ZM1675.65 333.415 1693.97 334.104 1693.79 338.684 1675.47 337.995ZM1707.71 334.621 1726.03 335.309 1725.86 339.889 1707.54 339.201ZM1739.77 335.826 1758.09 336.515 1757.92 341.095 1739.6 340.406ZM1771.83 337.031 1790.15 337.72 1789.98 342.3 1771.66 341.611ZM1803.89 338.237 1822.21 338.925 1822.04 343.506 1803.72 342.817ZM1835.95 339.442 1854.27 340.131 1854.1 344.711 1835.78 344.022ZM1868.01 340.647 1886.33 341.336 1886.16 345.916 1867.84 345.228ZM1900.07 341.853 1918.39 342.542 1918.22 347.122 1899.9 346.433ZM1932.13 343.058 1950.45 343.747 1950.28 348.327 1931.96 347.638ZM1964.19 344.263 1982.51 344.952 1982.34 349.532 1964.02 348.844ZM1996.25 345.469 2014.57 346.158 2014.4 350.738 1996.08 350.049ZM2028.31 346.674 2046.63 347.363 2046.46 351.943 2028.14 351.254ZM2060.38 347.88 2078.7 348.568 2078.52 353.148 2060.2 352.46ZM2092.44 349.085 2110.76 349.774 2110.58 354.354 2092.26 353.665ZM2124.5 350.29 2142.82 350.979 2142.64 355.559 2124.32 354.87ZM2156.56 351.496 2174.88 352.184 2174.71 356.764 2156.38 356.076ZM2188.62 352.701 2206.94 353.39 2206.77 357.97 2188.45 357.281ZM2220.68 353.906 2239 354.595 2238.83 359.175 2220.51 358.486ZM2252.74 355.112 2271.06 355.8 2270.89 360.381 2252.57 359.692ZM2284.8 356.317 2303.12 357.006 2302.95 361.586 2284.63 360.897ZM2316.86 357.522 2335.18 358.211 2335.01 362.791 2316.69 362.102ZM2348.92 358.728 2367.24 359.417 2367.07 363.997 2348.75 363.308ZM2380.98 359.933 2399.3 360.622 2399.13 365.202 2380.81 364.513ZM2413.04 361.138 2431.36 361.827 2431.19 366.407 2412.87 365.719ZM2445.1 362.344 2463.42 363.033 2463.25 367.613 2444.93 366.924ZM2477.16 363.549 2495.48 364.238 2495.31 368.818 2476.99 368.129ZM2509.22 364.755 2527.54 365.443 2527.37 370.023 2509.05 369.335ZM2541.29 365.96 2559.61 366.649 2559.43 371.229 2541.11 370.54ZM2573.35 367.165 2591.67 367.854 2591.49 372.434 2573.17 371.745ZM2605.41 368.371 2623.73 369.059 2623.55 373.639 2605.23 372.951ZM2637.47 369.576 2655.79 370.265 2655.62 374.845 2637.3 374.156ZM2669.53 370.781 2687.85 371.47 2687.68 376.05 2669.36 375.361ZM2701.59 371.987 2719.91 372.675 2719.74 377.256 2701.42 376.567ZM2733.65 373.192 2751.97 373.881 2751.8 378.461 2733.48 377.772ZM2765.71 374.397 2784.03 375.086 2783.86 379.666 2765.54 378.977ZM2797.77 375.603 2816.09 376.291 2815.92 380.872 2797.6 380.183ZM2829.83 376.808 2848.15 377.497 2847.98 382.077 2829.66 381.388ZM2861.89 378.013 2880.21 378.702 2880.04 383.282 2861.72 382.594ZM2893.95 379.219 2912.27 379.908 2912.1 384.488 2893.78 383.799ZM2926.01 380.424 2944.33 381.113 2944.16 385.693 2925.84 385.004ZM2958.07 381.629 2976.39 382.318 2976.22 386.898 2957.9 386.21ZM2990.13 382.835 3008.46 383.524 3008.28 388.104 2989.96 387.415ZM3022.2 384.04 3040.52 384.729 3040.34 389.309 3022.02 388.62ZM3054.26 385.246 3072.58 385.934 3072.4 390.514 3054.08 389.826ZM3086.32 386.451 3104.64 387.14 3104.47 391.72 3086.14 391.031ZM3118.38 387.656 3136.7 388.345 3136.53 392.925 3118.21 392.236ZM3150.44 388.862 3168.76 389.55 3168.59 394.13 3150.27 393.442ZM3182.5 390.067 3200.82 390.756 3200.65 395.336 3182.33 394.647ZM3214.56 391.272 3232.88 391.961 3232.71 396.541 3214.39 395.852ZM3246.62 392.478 3264.94 393.166 3264.77 397.747 3246.45 397.058ZM3278.68 393.683 3297 394.372 3296.83 398.952 3278.51 398.263ZM3310.74 394.888 3329.06 395.577 3328.89 400.157 3310.57 399.468ZM3342.8 396.094 3361.12 396.783 3360.95 401.363 3342.63 400.674ZM3374.86 397.299 3393.18 397.988 3393.01 402.568 3374.69 401.879ZM3406.92 398.504 3425.24 399.193 3425.07 403.773 3406.75 403.085ZM3438.98 399.71 3457.3 400.399 3457.13 404.979 3438.81 404.29ZM3471.04 400.915 3489.37 401.604 3489.19 406.184 3470.87 405.495ZM3503.11 402.121 3521.43 402.809 3521.25 407.389 3502.93 406.701ZM3535.17 403.326 3549.62 403.869 3549.45 408.449 3534.99 407.906ZM3545.47 392.247 3572.43 407.02 3544.44 419.727Z" fill="#7C4CFF"/><path d="M1574.79 390.396 1575.62 408.71 1571.04 408.919 1570.21 390.604ZM1576.25 422.446 1577.08 440.76 1572.5 440.969 1571.67 422.654ZM1577.71 454.496 1578.54 472.811 1573.96 473.019 1573.13 454.705ZM1579.16 486.546 1580 504.861 1575.42 505.069 1574.58 486.755ZM1580.62 518.597 1581.45 536.911 1576.88 537.119 1576.04 518.805ZM1582.08 550.647 1582.91 568.961 1578.33 569.169 1577.5 550.855ZM1583.54 582.697 1584.37 601.011 1579.79 601.22 1578.96 582.905ZM1584.99 614.747 1585.83 633.062 1581.25 633.27 1580.42 614.956ZM1586.45 646.797 1587.29 665.112 1582.71 665.32 1581.87 647.006ZM1587.91 678.848 1588.74 697.162 1584.16 697.37 1583.33 679.056ZM1589.37 710.898 1590.2 729.212 1585.62 729.42 1584.79 711.106ZM1590.83 742.948 1591.66 761.262 1587.08 761.471 1586.25 743.156ZM1592.28 774.998 1593.12 793.312 1588.54 793.521 1587.71 775.206ZM1593.74 807.048 1594.58 825.363 1590 825.571 1589.16 807.257ZM1595.2 839.099 1596.03 857.413 1591.45 857.621 1590.62 839.307ZM1596.66 871.149 1597.49 889.463 1592.91 889.671 1592.08 871.357ZM1598.12 903.199 1598.95 921.513 1594.37 921.721 1593.54 903.407ZM1599.57 935.249 1600.41 953.563 1595.83 953.772 1594.99 935.457ZM1601.03 967.299 1601.86 985.614 1597.29 985.822 1596.45 967.507ZM1602.49 999.349 1603.32 1017.66 1598.74 1017.87 1597.91 999.558ZM1603.95 1031.4 1604.78 1049.71 1600.2 1049.92 1599.37 1031.61ZM1605.41 1063.45 1606.24 1081.76 1601.66 1081.97 1600.83 1063.66ZM1606.86 1095.5 1607.7 1113.81 1603.12 1114.02 1602.28 1095.71ZM1608.32 1127.55 1609.15 1145.86 1604.58 1146.07 1603.74 1127.76ZM1609.78 1159.6 1610.61 1177.91 1606.03 1178.12 1605.2 1159.81ZM1611.24 1191.65 1612.07 1209.96 1607.49 1210.17 1606.66 1191.86ZM1612.69 1223.7 1613.53 1242.02 1608.95 1242.22 1608.12 1223.91ZM1614.15 1255.75 1614.99 1274.07 1610.41 1274.27 1609.57 1255.96ZM1615.61 1287.8 1616.44 1306.12 1611.86 1306.32 1611.03 1288.01ZM1617.07 1319.85 1617.9 1338.17 1613.32 1338.37 1612.49 1320.06ZM1618.53 1351.9 1619.36 1370.22 1614.78 1370.42 1613.95 1352.11ZM1619.98 1383.95 1620.82 1402.27 1616.24 1402.47 1615.41 1384.16ZM1621.44 1416 1622.28 1434.32 1617.7 1434.52 1616.86 1416.21ZM1622.9 1448.05 1623.73 1466.37 1619.15 1466.57 1618.32 1448.26ZM1624.36 1480.1 1625.19 1498.42 1620.61 1498.63 1619.78 1480.31ZM1625.82 1512.15 1626.65 1530.47 1622.07 1530.68 1621.24 1512.36ZM1627.27 1544.2 1628.11 1562.52 1623.53 1562.73 1622.69 1544.41ZM1628.73 1576.25 1629.56 1594.57 1624.99 1594.78 1624.15 1576.46ZM1630.19 1608.3 1631.02 1626.62 1626.44 1626.83 1625.61 1608.51ZM1631.65 1640.35 1632.48 1658.67 1627.9 1658.88 1627.07 1640.56ZM1633.11 1672.4 1633.94 1690.72 1629.36 1690.93 1628.53 1672.61ZM1634.56 1704.45 1634.58 1704.93 1630.01 1705.14 1629.98 1704.66ZM1645.82 1699.83 1633.34 1727.93 1618.35 1701.08Z" fill="#7C4CFF"/><text fill="#7C4CFF" font-family="Courier New,Courier New_MSFontService,sans-serif" font-weight="400" font-size="55" transform="matrix(1 0 0 1 1214.69 1387)">represented</text></g></svg>