<svg width="3133" height="1519" xmlns="http://www.w3.org/2000/svg" xmlns:xlink="http://www.w3.org/1999/xlink" xml:space="preserve" overflow="hidden"><g transform="translate(-637 -466)"><rect x="1274" y="674" width="1578" height="691" fill="#63DD16" fill-opacity="0.341176"/><path d="M753.5 551.501 788.501 516.5 823.5 551.501 806 551.501 806 1833.5 771 1833.5 771 551.501Z" stroke="#7C4CFF" stroke-width="4.58333" stroke-miterlimit="8" fill="#7C4CFF" fill-rule="evenodd"/><path d="M3368.5 1782.5 3403.5 1817.5 3368.5 1852.5 3368.5 1835 779.5 1835 779.5 1800 3368.5 1800Z" stroke="#7C4CFF" stroke-width="4.58333" stroke-miterlimit="8" fill="#7C4CFF" fill-rule="evenodd"/><text fill="#7C4CFF" font-family="Calibri,Calibri_MSFontService,sans-serif" font-weight="400" font-size="83" transform="matrix(-1.83697e-16 -1 1 -1.83697e-16 738.926 798)">Space</text><text fill="#7C4CFF" font-family="Calibri,Calibri_MSFontService,sans-serif" font-weight="400" font-size="83" transform="matrix(1 0 0 1 3188.65 1911)">Time</text><path d="M1274.5 645.5C1274.5 626.17 1277.11 610.5 1280.33 610.5L2057.67 610.5C2060.89 610.5 2063.5 594.83 2063.5 575.5 2063.5 594.83 2066.11 610.5 2069.33 610.5L2846.67 610.5C2849.89 610.5 2852.5 626.17 2852.5 645.5" stroke="#63DD16" stroke-width="4.58333" stroke-miterlimit="8" fill="none" fill-rule="evenodd"/><text fill="#63DD16" font-family="Calibri,Calibri_MSFontService,sans-serif" font-weight="400" font-size="73" transform="matrix(1 0 0 1 1812.49 557)">Ascent System</text><path d="M2041 1702 2041 1801.2" stroke="#A6A6A6" stroke-width="2.29167" stroke-miterlimit="8" stroke-dasharray="18.3333 6.875" fill="none" fill-rule="evenodd"/><text fill="#36464E" font-family="Roboto Mono,Roboto Mono_MSFontService,sans-serif" font-weight="400" font-size="50" transform="matrix(0.851211 -0.524824 0.524824 0.851211 1811.96 1790)">1969</text><text fill="#36464E" font-family="Roboto Mono,Roboto Mono_MSFontService,sans-serif" font-weight="400" font-size="50" transform="matrix(0.851211 -0.524824 0.524824 0.851211 1915.34 1726)">-</text><text fill="#36464E" font-family="Roboto Mono,Roboto Mono_MSFontService,sans-serif" font-weight="400" font-size="50" transform="matrix(0.851211 -0.524824 0.524824 0.851211 1941.19 1710)">07</text><text fill="#36464E" font-family="Roboto Mono,Roboto Mono_MSFontService,sans-serif" font-weight="400" font-size="50" transform="matrix(0.851211 -0.524824 0.524824 0.851211 1992.88 1678)">-</text><text fill="#36464E" font-family="Roboto Mono,Roboto Mono_MSFontService,sans-serif" font-weight="400" font-size="50" transform="matrix(0.851211 -0.524824 0.524824 0.851211 2018.73 1662)">21T17:54:00</text><path d="M2576 658 2576 1804.15" stroke="#A6A6A6" stroke-width="2.29167" stroke-miterlimit="8" stroke-dasharray="18.3333 6.875" fill="none" fill-rule="evenodd"/><rect x="1274" y="676" width="1578" height="681" stroke="#63DD16" stroke-width="10.3125" stroke-miterlimit="8" stroke-dasharray="82.5 30.9375 10.3125 30.9375" fill="#63DD16" fill-opacity="0.341176"/><text fill="#63DD16" font-family="Calibri,Calibri_MSFontService,sans-serif" font-style="italic" font-weight="400" font-size="73" transform="matrix(1 0 0 1 887.339 982)">1969</text><text fill="#63DD16" font-family="Calibri,Calibri_MSFontService,sans-serif" font-style="italic" font-weight="400" font-size="73" transform="matrix(1 0 0 1 1036.3 982)">-</text><text fill="#63DD16" font-family="Calibri,Calibri_MSFontService,sans-serif" font-style="italic" font-weight="400" font-size="73" transform="matrix(1 0 0 1 1058.64 982)">059C</text><text fill="#63DD16" font-family="Calibri,Calibri_MSFontService,sans-serif" font-style="italic" font-weight="700" font-size="48" transform="matrix(1 0 0 1 2899.95 1220)">Propulsion component parts</text><text fill="#63DD16" font-family="Calibri,Calibri_MSFontService,sans-serif" font-style="italic" font-weight="700" font-size="48" transform="matrix(1 0 0 1 2899.95 1101)">Guidance &amp; Navigation component parts</text><text fill="#63DD16" font-family="Calibri,Calibri_MSFontService,sans-serif" font-style="italic" font-weight="700" font-size="48" transform="matrix(1 0 0 1 2899.95 999)">Control component parts</text><text fill="#63DD16" font-family="Calibri,Calibri_MSFontService,sans-serif" font-style="italic" font-weight="700" font-size="48" transform="matrix(1 0 0 1 2899.95 913)">Heat Transport component parts</text><text fill="#63DD16" font-family="Calibri,Calibri_MSFontService,sans-serif" font-style="italic" font-weight="700" font-size="48" transform="matrix(1 0 0 1 2899.95 817)">Water Management component parts</text><text fill="#63DD16" font-family="Calibri,Calibri_MSFontService,sans-serif" font-style="italic" font-weight="700" font-size="48" transform="matrix(1 0 0 1 2898 723)">Oxygen Supply component parts</text><text fill="#63DD16" font-family="Calibri,Calibri_MSFontService,sans-serif" font-style="italic" font-weight="700" font-size="48" transform="matrix(1 0 0 1 2899.95 1332)">Structural and Shielding component parts</text><rect x="1274" y="1277" width="1578" height="80.0001" stroke="#63DD16" stroke-width="10.3125" stroke-miterlimit="8" stroke-dasharray="41.25 30.9375" fill="#63DD16" fill-opacity="0.341176"/><rect x="1274" y="1153" width="1578" height="108" stroke="#63DD16" stroke-width="10.3125" stroke-miterlimit="8" stroke-dasharray="41.25 30.9375" fill="#63DD16" fill-opacity="0.341176"/><rect x="1274" y="1038" width="1578" height="93.9999" stroke="#63DD16" stroke-width="10.3125" stroke-miterlimit="8" stroke-dasharray="41.25 30.9375" fill="#63DD16" fill-opacity="0.341176"/><rect x="1276" y="949" width="1578" height="68.9998" stroke="#63DD16" stroke-width="10.3125" stroke-miterlimit="8" stroke-dasharray="41.25 30.9375" fill="#63DD16" fill-opacity="0.341176"/><rect x="1274" y="857" width="1578" height="68.0001" stroke="#63DD16" stroke-width="10.3125" stroke-miterlimit="8" stroke-dasharray="41.25 30.9375" fill="#63DD16" fill-opacity="0.341176"/><rect x="1274" y="766" width="1578" height="72.0002" stroke="#63DD16" stroke-width="10.3125" stroke-miterlimit="8" stroke-dasharray="41.25 30.9375" fill="#63DD16" fill-opacity="0.341176"/><rect x="1274" y="677" width="1578" height="68.0001" stroke="#63DD16" stroke-width="10.3125" stroke-miterlimit="8" stroke-dasharray="41.25 30.9375" fill="#63DD16" fill-opacity="0.341176"/><path d="M2005.5 1809.24 2033.38 1809.24 2042 1782.5 2050.62 1809.24 2078.5 1809.24 2055.94 1825.76 2064.56 1852.5 2042 1835.97 2019.44 1852.5 2028.06 1825.76Z" stroke="#07B9D5" stroke-width="4.58333" stroke-miterlimit="8" fill="#07B9D5" fill-rule="evenodd"/><text font-family="Courier New,Courier New_MSFontService,sans-serif" font-weight="400" font-size="37" transform="matrix(1 0 0 1 1944.19 1907)">Apollo</text><text font-family="Courier New,Courier New_MSFontService,sans-serif" font-weight="400" font-size="37" transform="matrix(1 0 0 1 2074.81 1907)">-</text><text font-family="Courier New,Courier New_MSFontService,sans-serif" font-weight="400" font-size="37" transform="matrix(1 0 0 1 2096.58 1907)">11 </text><text font-family="Courier New,Courier New_MSFontService,sans-serif" font-weight="400" font-size="37" transform="matrix(1 0 0 1 1976.84 1951)">Launch</text><text fill="#36464E" font-family="Roboto Mono,Roboto Mono_MSFontService,sans-serif" font-weight="400" font-size="50" transform="matrix(0.851211 -0.524824 0.524824 0.851211 2347.05 1792)">1969</text><text fill="#36464E" font-family="Roboto Mono,Roboto Mono_MSFontService,sans-serif" font-weight="400" font-size="50" transform="matrix(0.851211 -0.524824 0.524824 0.851211 2450.44 1729)">-</text><text fill="#36464E" font-family="Roboto Mono,Roboto Mono_MSFontService,sans-serif" font-weight="400" font-size="50" transform="matrix(0.851211 -0.524824 0.524824 0.851211 2476.29 1713)">07</text><text fill="#36464E" font-family="Roboto Mono,Roboto Mono_MSFontService,sans-serif" font-weight="400" font-size="50" transform="matrix(0.851211 -0.524824 0.524824 0.851211 2527.98 1681)">-</text><text fill="#36464E" font-family="Roboto Mono,Roboto Mono_MSFontService,sans-serif" font-weight="400" font-size="50" transform="matrix(0.851211 -0.524824 0.524824 0.851211 2553.83 1665)">21T</text><text fill="#36464E" font-family="Roboto Mono,Roboto Mono_MSFontService,sans-serif" font-weight="400" font-size="50" transform="matrix(0.851211 -0.524824 0.524824 0.851211 2631.37 1617)">17:54</text><text fill="#36464E" font-family="Roboto Mono,Roboto Mono_MSFontService,sans-serif" font-weight="400" font-size="50" transform="matrix(0.851211 -0.524824 0.524824 0.851211 2760.6 1537)">:00</text></g></svg>