<svg width="4136" height="1977" xmlns="http://www.w3.org/2000/svg" xmlns:xlink="http://www.w3.org/1999/xlink" xml:space="preserve" overflow="hidden"><g transform="translate(-91 -326)"><rect x="1554" y="334" width="1136" height="294" stroke="#7C4CFF" stroke-width="10.3125" stroke-miterlimit="8" fill="none"/><text font-family="Calibri,Calibri_MSFontService,sans-serif" font-style="italic" font-weight="400" font-size="73" transform="matrix(1 0 0 1 1710.86 418)">representation_by_pattern</text><text font-family="Calibri,Calibri_MSFontService,sans-serif" font-style="italic" font-weight="400" font-size="73" transform="matrix(1 0 0 1 2512.89 418)">:</text><text font-family="Calibri,Calibri_MSFontService,sans-serif" font-weight="400" font-size="73" transform="matrix(1 0 0 1 1693.05 506)">Representation_by_pattern</text><text font-family="Calibri,Calibri_MSFontService,sans-serif" font-weight="400" font-size="73" transform="matrix(1 0 0 1 2513.53 506)">_</text><text font-family="Calibri,Calibri_MSFontService,sans-serif" font-weight="400" font-size="73" transform="matrix(1 0 0 1 1755.22 594)">class_for_sign_examples</text><rect x="312" y="370" width="595" height="228" stroke="#7C4CFF" stroke-width="10.3125" stroke-miterlimit="8" fill="none"/><text font-family="Calibri,Calibri_MSFontService,sans-serif" font-style="italic" font-weight="400" font-size="83" transform="matrix(1 0 0 1 473.865 462)">pattern</text><text font-family="Calibri,Calibri_MSFontService,sans-serif" font-weight="400" font-size="83" transform="matrix(1 0 0 1 722.075 462)">:</text><text font-family="Calibri,Calibri_MSFontService,sans-serif" font-weight="400" font-size="83" transform="matrix(1 0 0 1 412.929 561)">“P@773rN”</text><rect x="3191" y="334" width="1031" height="294" stroke="#7C4CFF" stroke-width="10.3125" stroke-miterlimit="8" fill="none"/><text font-family="Calibri,Calibri_MSFontService,sans-serif" font-style="italic" font-weight="400" font-size="64" transform="matrix(1 0 0 1 3647.84 425)">role</text><text font-family="Calibri,Calibri_MSFontService,sans-serif" font-weight="400" font-size="64" transform="matrix(1 0 0 1 3747.53 425)">:</text><text font-family="Calibri,Calibri_MSFontService,sans-serif" font-weight="400" font-size="64" transform="matrix(1 0 0 1 3290.71 502)">Kind_of_recognizing_language</text><text font-family="Calibri,Calibri_MSFontService,sans-serif" font-weight="400" font-size="64" transform="matrix(1 0 0 1 4089.74 502)">_</text><text font-family="Calibri,Calibri_MSFontService,sans-serif" font-weight="400" font-size="64" transform="matrix(1 0 0 1 3298.06 579)">community_for_sign_examples</text><rect x="1621" y="1052" width="1011" height="287" stroke="#07B9D5" stroke-width="10.3125" stroke-miterlimit="8" fill="none"/><text font-family="Calibri,Calibri_MSFontService,sans-serif" font-style="italic" font-weight="400" font-size="73" transform="matrix(1 0 0 1 1765.97 1177)">representation_by_sign</text><text font-family="Calibri,Calibri_MSFontService,sans-serif" font-style="italic" font-weight="400" font-size="73" transform="matrix(1 0 0 1 2467.42 1177)">:</text><text font-family="Calibri,Calibri_MSFontService,sans-serif" font-weight="400" font-size="73" transform="matrix(1 0 0 1 1657.07 1265)">Example_RepresentationBySign</text><path d="M612.337 1445.87 606.113 605.32 612.988 605.269 619.212 1445.82ZM590.731 631.214 609.5 598.484 628.752 630.932C629.72 632.565 629.182 634.674 627.549 635.643 625.916 636.612 623.808 636.073 622.839 634.441L606.594 607.06 612.532 607.016 596.695 634.634C595.75 636.281 593.65 636.851 592.003 635.906 590.356 634.962 589.786 632.861 590.731 631.214Z" fill="#07B9D5" fill-opacity="0.45098"/><path d="M1.75878-2.95349 483.325 283.815 479.807 289.722-1.75878 2.95349ZM469.158 257.253 487.432 290.262 449.704 289.922C447.806 289.904 446.281 288.352 446.298 286.453 446.315 284.555 447.868 283.03 449.766 283.047L481.602 283.334 478.563 288.436 463.143 260.583C462.224 258.922 462.825 256.83 464.486 255.911 466.146 254.991 468.238 255.592 469.158 257.253Z" fill="#07B9D5" transform="matrix(1 0 0 -1 1133.5 1486.75)"/><text font-family="Courier New,Courier New_MSFontService,sans-serif" font-weight="700" font-size="46" transform="matrix(1 0 0 1 984.836 1296)">participant_in</text><path d="M2123.88 1052.46 2119.14 635.34 2126.01 635.262 2130.76 1052.38ZM2103.86 661.288 2122.5 628.484 2141.88 660.856C2142.86 662.485 2142.33 664.596 2140.7 665.571 2139.07 666.546 2136.96 666.016 2135.98 664.387L2119.63 637.071 2125.57 637.004 2109.84 664.684C2108.9 666.335 2106.8 666.913 2105.15 665.975 2103.5 665.037 2102.92 662.939 2103.86 661.288Z" fill="#07B9D5"/><text font-family="Courier New,Courier New_MSFontService,sans-serif" font-weight="700" font-size="46" transform="matrix(1 0 0 1 1948.48 855)">member_of</text><text font-family="Courier New,Courier New_MSFontService,sans-serif" font-weight="700" font-size="46" transform="matrix(1 0 0 1 2195.98 855)">_</text><path d="M3227.31 1449.45 2637.45 1202.3 2640.11 1195.96 3229.96 1443.11ZM2655.2 1226.62 2632.49 1196.49 2669.89 1191.55C2671.77 1191.31 2673.5 1192.63 2673.75 1194.51 2674 1196.39 2672.67 1198.12 2670.79 1198.37L2639.23 1202.54 2641.52 1197.06 2660.69 1222.48C2661.83 1224 2661.53 1226.16 2660.01 1227.3 2658.49 1228.44 2656.34 1228.14 2655.2 1226.62Z" fill="#07B9D5"/><text font-family="Courier New,Courier New_MSFontService,sans-serif" font-weight="700" font-size="46" transform="matrix(1 0 0 1 2864.17 1262)">participant_in</text><path d="M3.36078-0.722176 177.697 810.587 170.976 812.031-3.36078 0.722176ZM187.509 782.12 175.769 817.977 150.336 790.108C149.056 788.706 149.156 786.531 150.558 785.252 151.96 783.972 154.135 784.071 155.414 785.473L176.875 808.99 171.069 810.237 180.976 779.981C181.566 778.176 183.508 777.193 185.312 777.783 187.116 778.374 188.1 780.316 187.509 782.12Z" fill="#07B9D5" fill-opacity="0.45098" transform="matrix(1 0 0 -1 3530.5 1446.46)"/><text font-family="Courier New,Courier New_MSFontService,sans-serif" font-weight="700" font-size="46" transform="matrix(1 0 0 1 437.351 1087)">member_of</text><text font-family="Courier New,Courier New_MSFontService,sans-serif" font-weight="700" font-size="46" transform="matrix(1 0 0 1 684.851 1087)">_</text><text font-family="Courier New,Courier New_MSFontService,sans-serif" font-weight="700" font-size="46" transform="matrix(1 0 0 1 712.351 1087)">_</text><text font-family="Courier New,Courier New_MSFontService,sans-serif" font-weight="700" font-size="46" transform="matrix(1 0 0 1 3458.79 1042)">member_of</text><text font-family="Courier New,Courier New_MSFontService,sans-serif" font-weight="700" font-size="46" transform="matrix(1 0 0 1 3706.29 1042)">_</text><text font-family="Courier New,Courier New_MSFontService,sans-serif" font-weight="700" font-size="46" transform="matrix(1 0 0 1 3733.79 1042)">_</text><rect x="95.9999" y="1445" width="1039" height="324" stroke="#07B9D5" stroke-width="10.3125" stroke-miterlimit="8" fill="none"/><text font-family="Calibri,Calibri_MSFontService,sans-serif" font-style="italic" font-weight="400" font-size="83" transform="matrix(1 0 0 1 536.354 1585)">sign</text><text font-family="Calibri,Calibri_MSFontService,sans-serif" font-weight="400" font-size="83" transform="matrix(1 0 0 1 672.135 1585)">: </text><text font-family="Calibri,Calibri_MSFontService,sans-serif" font-weight="400" font-size="83" transform="matrix(1 0 0 1 383.569 1684)">Example_Sign</text><rect x="2853" y="1446" width="1355" height="323" stroke="#07B9D5" stroke-width="10.3125" stroke-miterlimit="8" fill="none"/><text font-family="Calibri,Calibri_MSFontService,sans-serif" font-style="italic" font-weight="400" font-size="73" transform="matrix(1 0 0 1 3007.75 1589)">recognizing_language_community</text><text font-family="Calibri,Calibri_MSFontService,sans-serif" font-style="italic" font-weight="400" font-size="73" transform="matrix(1 0 0 1 4033.75 1589)">: </text><text font-family="Calibri,Calibri_MSFontService,sans-serif" font-weight="400" font-size="73" transform="matrix(1 0 0 1 2895.91 1677)">Example_RecognizingLanguageCommunity</text><rect x="1202" y="2010" width="957" height="288" stroke="#63DD16" stroke-width="10.3125" stroke-miterlimit="8" fill="none"/><text font-family="Calibri,Calibri_MSFontService,sans-serif" font-style="italic" font-weight="400" font-size="83" transform="matrix(1 0 0 1 1507.19 2132)">individual</text><text font-family="Calibri,Calibri_MSFontService,sans-serif" font-weight="400" font-size="83" transform="matrix(1 0 0 1 1831.46 2132)">:</text><text font-family="Calibri,Calibri_MSFontService,sans-serif" font-weight="400" font-size="83" transform="matrix(1 0 0 1 1312.86 2231)">Example_individual_X</text><path d="M2.86242-1.90341 445.043 663.065 439.318 666.872-2.86242 1.90341ZM443.742 632.983 445.957 670.648 412.081 654.037C410.376 653.201 409.672 651.141 410.508 649.437 411.343 647.732 413.403 647.028 415.107 647.864L443.693 661.881 438.748 665.169 436.878 633.387C436.767 631.492 438.213 629.865 440.108 629.754 442.003 629.642 443.63 631.088 443.742 632.983Z" fill="#63DD16" transform="matrix(-1 0 0 1 2126.45 1339.5)"/><text font-family="Courier New,Courier New_MSFontService,sans-serif" font-weight="700" font-size="46" transform="matrix(1 0 0 1 1896.57 1769)">represents</text></g></svg>